<svg xmlns="http://www.w3.org/2000/svg" xmlns:xlink="http://www.w3.org/1999/xlink" width="414" height="5785" viewBox="0 0 414 5785">
  <defs>
    <linearGradient id="linear-gradient" x1="0.5" x2="0.5" y2="1" gradientUnits="objectBoundingBox">
      <stop offset="0" stop-color="#fff"/>
      <stop offset="1" stop-color="#01fabe"/>
    </linearGradient>
    <linearGradient id="linear-gradient-4" x1="0.5" x2="0.5" y2="1" gradientUnits="objectBoundingBox">
      <stop offset="0" stop-color="#8253ea"/>
      <stop offset="1" stop-color="#f85fbf"/>
    </linearGradient>
    <clipPath id="clip-Mobile_iOS_1">
      <rect width="414" height="5785"/>
    </clipPath>
  </defs>
  <g id="Mobile_iOS_1" data-name="Mobile iOS – 1" clip-path="url(#clip-Mobile_iOS_1)">
    <rect width="414" height="5785" fill="#fff"/>
    <path id="Trazado_12821" data-name="Trazado 12821" d="M0,0H414V1274H0Z" transform="translate(0 2690)" fill="#01fabe"/>
    <path id="Trazado_12779" data-name="Trazado 12779" d="M2486.914-300.066a30.588,30.588,0,0,0-18.266-5.945v-.009h-93.662a31.23,31.23,0,0,0-4.165.308A30.631,30.631,0,0,0,2350.5-293.68l-22.082,29.44-31.334-41.779H2094.16a30.614,30.614,0,0,0-18.044,6.167,30.648,30.648,0,0,0-12.031,20.315,30.65,30.65,0,0,0,5.859,22.874l118.2,157.6,45.737-60.983,94.6,128.532,165.1-225.423A30.894,30.894,0,0,0,2486.914-300.066Z" transform="translate(-2309.528 2367.809)" fill="url(#linear-gradient)"/>
    <path id="Trazado_12778" data-name="Trazado 12778" d="M2990.226-292.984A66.973,66.973,0,0,0,2950.232-306v-.019H2745.164a68.377,68.377,0,0,0-9.119.674A67.065,67.065,0,0,0,2691.552-279L2643.2-214.545l-68.6-91.474H2130.31a67.027,67.027,0,0,0-39.507,13.5,67.1,67.1,0,0,0-26.342,44.478,67.108,67.108,0,0,0,12.829,50.081l258.786,345.049L2436.216,13.57l207.122,281.415,361.481-493.553A67.642,67.642,0,0,0,2990.226-292.984Z" transform="translate(-1838.769 1574.809)" fill="url(#linear-gradient)"/>
    <path id="Trazado_12776" data-name="Trazado 12776" d="M3659.075-283.574a115.321,115.321,0,0,0-68.867-22.413v-.032H3237.093a117.74,117.74,0,0,0-15.7,1.16,115.484,115.484,0,0,0-76.615,45.359l-83.251,110.993L2943.391-306.019H2178.349a115.417,115.417,0,0,0-68.028,23.25,115.544,115.544,0,0,0-45.359,76.589,115.559,115.559,0,0,0,22.09,86.237l445.616,594.154L2705.1,244.3l356.651,484.582,622.45-849.87C3722.1-172.718,3710.82-245.6,3659.075-283.574Z" transform="translate(-3345.633 945.306)" fill="url(#linear-gradient)"/>
    <path id="Trazado_12257" data-name="Trazado 12257" d="M3193.722-290.121A81.682,81.682,0,0,0,3144.944-306v-.023H2894.832a83.383,83.383,0,0,0-11.121.821,81.8,81.8,0,0,0-54.267,32.128l-58.967,78.616L2686.8-306.019H2144.925a81.748,81.748,0,0,0-48.184,16.468,81.84,81.84,0,0,0-32.128,54.248,81.853,81.853,0,0,0,15.647,61.081l315.629,420.838L2518.024,83.768,2770.64,427l440.88-601.962A82.5,82.5,0,0,0,3193.722-290.121Z" transform="translate(-2262.99 306.019)" fill="url(#linear-gradient-4)"/>
    <rect id="Rectángulo_246" data-name="Rectángulo 246" width="414" height="920" transform="translate(0 4548)" fill="#4a3288"/>
    <g id="_03_footer-logo-links-socials-copyright-medium-web" data-name="03_footer-logo-links-socials-copyright-medium-web" transform="translate(-753 5419)">
      <path id="Trazado_12525" data-name="Trazado 12525" d="M0,0H414V304.081H0Z" transform="translate(753)" fill="#01fabe"/>
    </g>
    <g id="Grupo_2260" data-name="Grupo 2260" transform="translate(0 5723)">
      <rect id="Rectángulo_198" data-name="Rectángulo 198" width="414" height="62"/>
    </g>
  </g>
</svg>
