<svg id="Grupo_2211" data-name="Grupo 2211" xmlns="http://www.w3.org/2000/svg" width="270" height="27" viewBox="0 0 270 27">
  <path id="Trazado_12618" data-name="Trazado 12618" d="M-4382.167-5343.877h-6.392l-2.94-10.893q-.071-.325-.4-2.578a26.055,26.055,0,0,1-.363,2.615l-2.834,10.855h-6.391l-5.663-20.985h6.282l2.868,13.4q.146.62.327,2.107.182-1.488.327-2.107l3.087-13.4h4.865l3.088,13.4a19.137,19.137,0,0,1,.289,2.035q.182-1.38.327-2.035l2.869-13.4h6.318Z" transform="translate(4407.148 5370.55)" fill="#4a3288"/>
  <path id="Trazado_12619" data-name="Trazado 12619" d="M-4369.63-5356.842v13.071h-4.467l-1.09-3.85a6.362,6.362,0,0,1-2.488,3.087,7.645,7.645,0,0,1-4.229,1.09,6.329,6.329,0,0,1-4.774-1.615,5.972,5.972,0,0,1-1.543-4.3,5.281,5.281,0,0,1,1.634-4.2,9.075,9.075,0,0,1,4.157-1.979,64.567,64.567,0,0,1,6.845-.979v-.073q0-3.631-4.539-3.631a7.926,7.926,0,0,0-3.086.653,8.486,8.486,0,0,0-2.759,1.852l-2.4-4.467a14.974,14.974,0,0,1,3.921-2.032,14.807,14.807,0,0,1,4.975-.8q5.009,0,7.408,2.07A7.711,7.711,0,0,1-4369.63-5356.842Zm-5.955,5.12v-1.488a36.241,36.241,0,0,0-3.685.544,5.112,5.112,0,0,0-2.106.908,2.091,2.091,0,0,0-.781,1.743q0,2.142,2.4,2.142a4.476,4.476,0,0,0,2.832-.963A3.719,3.719,0,0,0-4375.585-5351.722Z" transform="translate(4420.496 5370.443)" fill="#4a3288"/>
  <path id="Trazado_12620" data-name="Trazado 12620" d="M-4361.925-5358.678a10.786,10.786,0,0,0-2.251-.182,4.034,4.034,0,0,0-3.287,1.288,6.548,6.548,0,0,0-1.215,3.868v-.074l-.038,10.021h-6.027v-20.985h4.5l1.233,4.175a7.227,7.227,0,0,1,2.287-3.268,5.4,5.4,0,0,1,3.415-1.2,4.748,4.748,0,0,1,1.38.146Z" transform="translate(4430.18 5370.429)" fill="#4a3288"/>
  <path id="Trazado_12621" data-name="Trazado 12621" d="M-4333.5-5357.663v13.906h-6.136V-5356.1a4.563,4.563,0,0,0-.763-2.924,2.925,2.925,0,0,0-2.4-.925,3.18,3.18,0,0,0-2.561,1.144,5.818,5.818,0,0,0-1.107,3.431v11.619h-5.955V-5356.1a4.591,4.591,0,0,0-.761-2.924,2.931,2.931,0,0,0-2.4-.925,3.22,3.22,0,0,0-2.6,1.144,5.811,5.811,0,0,0-1.107,3.431v11.619h-6.064v-20.985h4.5l1.089,3.7a6.215,6.215,0,0,1,2.5-2.977,7.323,7.323,0,0,1,3.885-1.017q4.975,0,6.391,3.993a6.145,6.145,0,0,1,2.488-3,7.479,7.479,0,0,1,3.939-1,7,7,0,0,1,5.228,1.851A7.588,7.588,0,0,1-4333.5-5357.663Z" transform="translate(4436.862 5370.429)" fill="#4a3288"/>
  <path id="Trazado_12622" data-name="Trazado 12622" d="M-4338.028-5368.175v3.89h-6.029v-3.89Zm0,5.67v21h-6.029v-21Z" transform="translate(4451.99 5368.175)" fill="#4a3288"/>
  <path id="Trazado_12623" data-name="Trazado 12623" d="M-4327.944-5343.937h-3.122l-7.771-20.842h3.05l5.917,16.449a7.542,7.542,0,0,1,.236.764l.165.652a11.941,11.941,0,0,1,.363-1.416l5.917-16.449h3.051Z" transform="translate(4455.701 5370.611)" fill="#4a3288"/>
  <path id="Trazado_12624" data-name="Trazado 12624" d="M-4323.741-5353.018q.544,6.864,6.827,6.863a8.421,8.421,0,0,0,3.521-.727,7.664,7.664,0,0,0,2.687-2l1.417,2.361a11.155,11.155,0,0,1-3.323,2.142,11.162,11.162,0,0,1-4.3.764q-4.973,0-7.39-2.76t-2.413-7.808q0-5.084,2.287-7.916t6.751-2.831q4.54,0,6.735,2.813t2.2,7.934v1.161Zm0-2.469h12.018a8.858,8.858,0,0,0-1.651-5.174,5.186,5.186,0,0,0-4.23-1.724,5.472,5.472,0,0,0-4.321,1.76A8.529,8.529,0,0,0-4323.741-5355.487Z" transform="translate(4464.313 5370.504)" fill="#4a3288"/>
  <path id="Trazado_12625" data-name="Trazado 12625" d="M-4296.421-5357.52v13.688h-2.943v-13a5.929,5.929,0,0,0-1.2-4.1,4.837,4.837,0,0,0-3.739-1.309,5.774,5.774,0,0,0-4.193,1.526,7.35,7.35,0,0,0-1.943,4.574v12.309h-2.869v-20.842h2.142l.582,4.03q1.925-4.282,7.116-4.283a7,7,0,0,1,5.229,1.851Q-4296.42-5361.223-4296.421-5357.52Z" transform="translate(4473.846 5370.504)" fill="#4a3288"/>
  <path id="Trazado_12626" data-name="Trazado 12626" d="M-4292.5-5341.723a6.475,6.475,0,0,1-4.212-1.2q-1.452-1.2-1.452-4.179l.073-13.229h-3.376v-2.544h3.449l.873-4.578h1.923v4.578h6.029v2.544h-6.029l-.036,12.682a3.858,3.858,0,0,0,.708,2.709,3.1,3.1,0,0,0,2.27.71,7.045,7.045,0,0,0,2.831-.618l.291,2.615A13.017,13.017,0,0,1-4292.5-5341.723Z" transform="translate(4482.263 5368.687)" fill="#4a3288"/>
  <path id="Trazado_12627" data-name="Trazado 12627" d="M-4275.124-5343.937h-2.141l-.545-4.03q-1.96,4.286-7.19,4.286a6.954,6.954,0,0,1-5.229-1.87,7.713,7.713,0,0,1-1.814-5.573v-13.654h2.94v13a5.934,5.934,0,0,0,1.2,4.1,4.841,4.841,0,0,0,3.739,1.308,5.792,5.792,0,0,0,4.231-1.543,7.434,7.434,0,0,0,1.94-4.594l.038-12.273h2.831Z" transform="translate(4488.96 5370.611)" fill="#4a3288"/>
  <path id="Trazado_12628" data-name="Trazado 12628" d="M-4268.056-5361.914h-1.669a5.109,5.109,0,0,0-3.94,1.636,8.159,8.159,0,0,0-1.871,4.683l-.036,11.765h-2.868v-20.842h2.179l.618,4.539a7.747,7.747,0,0,1,2.613-3.54,6.361,6.361,0,0,1,3.994-1.252,8.121,8.121,0,0,1,.98.035Z" transform="translate(4498.628 5370.504)" fill="#4a3288"/>
  <path id="Trazado_12629" data-name="Trazado 12629" d="M-4268.013-5353.018q.543,6.864,6.826,6.863a8.427,8.427,0,0,0,3.522-.727,7.691,7.691,0,0,0,2.687-2l1.415,2.361a11.148,11.148,0,0,1-3.321,2.142,11.167,11.167,0,0,1-4.3.764q-4.976,0-7.389-2.76t-2.416-7.808q0-5.084,2.288-7.916t6.754-2.831q4.54,0,6.735,2.813t2.2,7.934v1.161Zm0-2.469h12.018a8.854,8.854,0,0,0-1.652-5.174,5.186,5.186,0,0,0-4.229-1.724,5.472,5.472,0,0,0-4.321,1.76A8.516,8.516,0,0,0-4268.013-5355.487Z" transform="translate(4503.922 5370.504)" fill="#4a3288"/>
  <path id="Trazado_12630" data-name="Trazado 12630" d="M-4258.577-5346.431l1.453-2.361a8.916,8.916,0,0,0,6.683,2.688,5.959,5.959,0,0,0,3.521-.909,2.905,2.905,0,0,0,1.271-2.5,2.634,2.634,0,0,0-.708-1.943,4.574,4.574,0,0,0-1.78-1.07,23.672,23.672,0,0,0-2.886-.724,29.734,29.734,0,0,1-3.668-1.018,5.59,5.59,0,0,1-2.359-1.672,4.863,4.863,0,0,1-.979-3.231,4.921,4.921,0,0,1,1.052-3.193,6.286,6.286,0,0,1,2.742-1.945,10.293,10.293,0,0,1,3.648-.634,12.338,12.338,0,0,1,4.375.744,10.8,10.8,0,0,1,3.286,1.871l-1.452,2.358a8.778,8.778,0,0,0-2.7-1.778,8.558,8.558,0,0,0-3.359-.655,6.448,6.448,0,0,0-3.341.8,2.644,2.644,0,0,0-1.343,2.434,2.35,2.35,0,0,0,.688,1.762,4.481,4.481,0,0,0,1.708,1.017,24.579,24.579,0,0,0,2.8.709,24.972,24.972,0,0,1,3.721,1.016,5.935,5.935,0,0,1,2.451,1.743,4.888,4.888,0,0,1,1.016,3.267,5.406,5.406,0,0,1-2.015,4.522,8.956,8.956,0,0,1-5.645,1.579,13.013,13.013,0,0,1-4.685-.781A11.061,11.061,0,0,1-4258.577-5346.431Z" transform="translate(4512.746 5370.49)" fill="#4a3288"/>
</svg>
