<svg xmlns="http://www.w3.org/2000/svg" xmlns:xlink="http://www.w3.org/1999/xlink" width="670" height="536.905" viewBox="0 0 670 536.905">
  <defs>
    <clipPath id="clip-path">
      <path id="Trazado_1347" data-name="Trazado 1347" d="M-139.654,316.784c-.292,1.31-.548,2.544-.773,3.693q-.147.755-.3,1.52h0q.716-2.514,1.434-5.026c-.105-.062-.206-.119-.3-.173a.4.4,0,0,1-.062-.014m-.72-17.848,4.922,2.813c-1.684,4.988-2.922,9.533-3.845,13.468l.584-.267q2.013-7.059,4.027-14.12-2.844-.946-5.688-1.895M-145.7,295.9l2.166,1.238c12.367,1.292,23.031,1.937,31.486,2.273.758.03,1.739.068,2.91.1l1-.6c-1.139.023-2.294.035-3.473.035-2.825,0-5.782-.068-8.923-.22A199.986,199.986,0,0,1-145.7,295.9" transform="translate(145.695 -295.897)" fill="none"/>
    </clipPath>
  </defs>
  <g id="Grupo_491" data-name="Grupo 491" transform="translate(467.442 -46.746)">
    <path id="Trazado_1230" data-name="Trazado 1230" d="M-219.865,324.818a40.185,40.185,0,0,1-8.039-10.033,38.6,38.6,0,0,1-2.779-6.14,25.088,25.088,0,0,1-.9-2.977,5.632,5.632,0,0,1-.093-2.741q1-2.354,2.962-1.027c.544.6,1.619-.2,1.14-.879a49.664,49.664,0,0,1-7.625-16.446q-.51-2.031-.851-4.1a39.147,39.147,0,0,0-.5-4.157c-.729-2.605-2.657-5.271-3.833-7.721-5.5-11.47-10.175-24.009-8.236-36.929l-1.327.173a146.054,146.054,0,0,1,22.081,41.248.727.727,0,0,0,1.4-.385,21.776,21.776,0,0,1-.675-6.36l-.919.7a2.945,2.945,0,0,1,2.635,2.629c.136.831,1.405.595,1.426-.194l.2-7.733-1.352.366a160.925,160.925,0,0,1,18.568,39.215.732.732,0,0,0,1.4,0q.6-1.706,1.2-3.413-.533.219-1.066.435a16.579,16.579,0,0,1,6.885,14.4c-.047.934,1.405.932,1.452,0a18.054,18.054,0,0,0-7.6-15.652.735.735,0,0,0-1.068.434q-.6,1.708-1.2,3.413h1.4a162.244,162.244,0,0,0-18.714-39.561.732.732,0,0,0-1.352.366l-.2,7.733,1.426-.193a4.262,4.262,0,0,0-3.649-3.643.739.739,0,0,0-.919.7,23.292,23.292,0,0,0,.726,6.745l1.4-.385a147.212,147.212,0,0,0-22.229-41.6c-.324-.425-1.221-.521-1.327.173-1.889,12.592,2.184,24.733,7.429,36.028,1.361,2.932,3.123,5.785,4.315,8.783,1.066,2.684.959,6.045,1.672,8.866a50.9,50.9,0,0,0,7.771,16.794q.572-.441,1.142-.88a3.1,3.1,0,0,0-4.611.194c-1.931,2.119-.586,5.669.215,7.962a41.184,41.184,0,0,0,11.191,16.813C-220.2,326.474-219.172,325.45-219.865,324.818Z" transform="translate(109.782 93.121)" fill="#e8e8e8"/>
    <path id="Trazado_1231" data-name="Trazado 1231" d="M-315.32,299.233a29.872,29.872,0,0,1-6.23-6.283,30.211,30.211,0,0,1-1.866-2.923c-.315-.56-.614-1.13-.89-1.711-.229-.486-2.33-6.086.535-4.857a.733.733,0,0,0,.994-.993c-.625-1.181-6-9.479-3.184-10.182a.734.734,0,0,0,.434-1.066,92.754,92.754,0,0,1-9.479-25.81c-.169.3-.339.595-.508.893,3.819-.675,5.733,5.345,6.979,7.962q2.343,4.922,4.678,9.849,4.771,10.066,9.515,20.146c.366.777,1.491.206,1.327-.559a8.831,8.831,0,0,1,.14-4.464l-1.214.321a25.988,25.988,0,0,1,6.1,7,.736.736,0,0,0,1.327-.175q2.333-.6,3.083,1.089.377.682.739,1.373.843,1.579,1.679,3.161l3.358,6.322c.44.825,1.693.092,1.255-.733l-3.36-6.321c-.982-1.848-1.821-4.128-3.221-5.7-1.464-1.648-4.023-1.819-4.932.428l1.327-.173a27.153,27.153,0,0,0-6.324-7.294.737.737,0,0,0-1.214.321,10.572,10.572,0,0,0-.14,5.235l1.327-.559q-5.752-12.226-11.547-24.43c-1.726-3.634-3.2-7.762-5.473-11.092-1.4-2.045-3.208-3.56-5.791-3.1a.74.74,0,0,0-.508.893,94.1,94.1,0,0,0,9.626,26.156l.434-1.066c-5.157,1.289,1.251,10.307,2.315,12.315l.994-.992a2.588,2.588,0,0,0-3.363.952c-1.1,1.72-.074,3.91.679,5.542a31.228,31.228,0,0,0,9.67,11.788c.745.563,1.47-.7.732-1.254" transform="translate(66.297 100.227)" fill="#e8e8e8"/>
    <path id="Trazado_1232" data-name="Trazado 1232" d="M-452.683,147.9c5.745-6.559,14.831-2.271,21.259.584,5.9,2.622,12.685,4.7,18.574.9,5.608-3.625,8.747-9.9,15.685-11.467,8.318-1.879,16.253,2.33,23.052,6.642.791.5,1.52-.755.732-1.255-6.575-4.169-13.968-8.053-22.015-7.149a17.525,17.525,0,0,0-8.94,3.6c-2.633,2.054-4.727,4.687-7.254,6.858-7.638,6.563-15.911,1.792-23.818-1.477-5.916-2.444-13.574-3.664-18.3,1.735C-454.325,147.577-453.3,148.609-452.683,147.9Z" transform="translate(6.853 45.176)" fill="#e8e8e8"/>
    <path id="Trazado_1233" data-name="Trazado 1233" d="M-466.214,205.907c3.036-3.251,7.577.316,9.934,2.6,2.044,1.979,4.378,4.333,7.361,4.663,2.679.3,4.81-1.182,6.649-2.961,2.619-2.53,4.968-4.759,8.6-5.742a15.768,15.768,0,0,1,11.065.991c2.7,1.346,5.16,3.959,8.4,3.681,2.878-.247,4.53-2.736,6.351-4.66a13.578,13.578,0,0,1,11.406-4.187c7.135.857,13.342,7.015,20.816,4.816a.727.727,0,0,0-.387-1.4c-7.092,2.087-13.376-4.017-20.211-4.858a15,15,0,0,0-9.269,1.908,15.6,15.6,0,0,0-3.617,2.947c-1.25,1.354-2.444,3.176-4.267,3.8-3.535,1.212-7.387-3.095-10.6-4.184a17.412,17.412,0,0,0-9.047-.5,16.743,16.743,0,0,0-7.77,3.892c-3.065,2.741-5.837,6.73-10.4,4.135-4.191-2.384-10.6-11.788-16.037-5.964C-467.879,205.562-466.853,206.592-466.214,205.907Z" transform="translate(0 76.91)" fill="#e8e8e8"/>
    <path id="Trazado_1234" data-name="Trazado 1234" d="M-430.186,197.068c2.642-2.148,5.736-4.447,9.254-4.73,3.185-.258,5.759,1.506,8.217,3.28,3.381,2.443,8.137,5.392,12.19,2.577,1.238-.86,2.157-2.429,3.675-2.861,2.126-.605,4.226.849,5.821,2.033,1.794,1.334,3.526,2.875,5.8,3.26,2.87.486,5.973-.658,8.738-1.285l10.325-2.34c.911-.206.526-1.607-.387-1.4q-5.4,1.224-10.794,2.446c-3.709.842-7.218,2.095-10.663-.218-2.33-1.563-4.39-3.776-7.352-4.032-2.282-.2-3.527,1.02-5.1,2.434-5.648,5.075-11.379-2.98-16.531-4.8-5.3-1.875-10.26,1.395-14.221,4.613C-431.939,196.631-430.906,197.652-430.186,197.068Z" transform="translate(18.207 72.932)" fill="#e8e8e8"/>
    <path id="Trazado_1235" data-name="Trazado 1235" d="M-74.586,171.355c1.312-4.2,6.45-2.928,9.263-1.376,2.676,1.474,5.2,3.464,8.33,3.831,2.619.309,4.762-.884,6.953-2.146a13.647,13.647,0,0,1,11.128-1.6c2.5.782,4.666,2.843,7.342,3.071,2.633.223,4.556-1.482,6.649-2.791,5.482-3.425,11.372,1.374,17.217-.074a.726.726,0,0,0-.386-1.4c-6.063,1.5-11.721-3.437-17.565.218a18.169,18.169,0,0,1-4.057,2.407c-2.3.7-4.175-.685-6.1-1.684a14.842,14.842,0,0,0-8.541-1.693c-3.134.345-5.435,1.884-8.167,3.285-4.577,2.346-8.152-.536-12.066-2.684-3.73-2.045-9.785-2.919-11.4,2.245C-76.265,171.864-74.865,172.246-74.586,171.355Z" transform="translate(198.062 60.909)" fill="#e8e8e8"/>
    <path id="Trazado_1236" data-name="Trazado 1236" d="M-58.427,168.325c2.2-2.032,4.529-4.209,7.422-5.2,2.663-.908,5.319-.4,7.881.547,4.083,1.506,8.1,4.12,12.64,3.431,4.173-.637,8.414-5.16,12.724-3.964,2.23.617,3.6,2.4,6.032,2.652,2.557.261,5.084-.581,7.459-1.423.875-.31.5-1.714-.386-1.4-3.038,1.077-6.506,2.265-9.532.523-1.861-1.072-3.239-2.157-5.512-1.943-4.992.47-8.638,4.946-13.931,4.095-4.613-.742-8.483-3.907-13.17-4.4-5.134-.545-9.119,2.791-12.655,6.057C-60.143,167.933-59.114,168.959-58.427,168.325Z" transform="translate(206.331 57.906)" fill="#e8e8e8"/>
    <path id="Trazado_1237" data-name="Trazado 1237" d="M-370.378,70.68c1.057-3.878,6.119-3.267,8.943-2.02,2.858,1.262,5.556,3.1,8.788,3.167,6.086.128,10.86-6.19,16.958-5.126,2.846.5,5.169,2.6,8.062,2.944,3.232.384,5.143-1.983,7.605-3.608a15.178,15.178,0,0,1,10.006-2.268,14.788,14.788,0,0,1,5.105,1.526c1.447.748,2.672,1.895,4.166,2.551,2.935,1.291,4.89-.471,7.259-2.009,4.64-3.006,9.694.893,13.158,3.937.7.614,1.73-.408,1.027-1.026-2.62-2.3-5.611-4.711-9.138-5.348-3.482-.631-5.318,1.214-8.119,2.816-2.52,1.441-4.331-.145-6.4-1.462a16.021,16.021,0,0,0-4.343-1.938,17.1,17.1,0,0,0-9.114.021,15.867,15.867,0,0,0-4.339,1.947c-1.661,1.078-3.1,2.863-5.072,3.346-3.532.863-6.831-2.625-10.316-2.946-7-.646-12.152,7.128-19.309,4.646-3.553-1.233-6.648-3.843-10.595-3.587-2.607.17-5.009,1.408-5.73,4.051A.727.727,0,0,0-370.378,70.68Z" transform="translate(48.392 7.824)" fill="#e8e8e8"/>
    <path id="Trazado_1238" data-name="Trazado 1238" d="M-325.56,60.56a10.447,10.447,0,0,1,9.09-2.315c2.8.617,4.452,2.673,6.864,3.976,3.8,2.053,7.074-.5,10.172-2.6,2.267-1.536,4.527-2.7,7.229-1.447,2.178,1.011,3.9,2.306,6.419,2.22,5.571-.193,11.485-7.092,16.932-3.3.77.535,1.5-.723.733-1.253-5.191-3.616-10.6,1.3-15.557,2.712a7.517,7.517,0,0,1-5.952-.631,15.616,15.616,0,0,0-3.629-1.658,7.573,7.573,0,0,0-5.468,1.176c-2.044,1.182-3.827,2.941-6.065,3.767-3.517,1.3-5.548-1.67-8.283-3.217a11.9,11.9,0,0,0-13.51,1.538C-327.3,60.145-326.264,61.167-325.56,60.56Z" transform="translate(71.154 3.946)" fill="#e8e8e8"/>
    <path id="Trazado_1239" data-name="Trazado 1239" d="M-262.7,167.652h-.241a7.329,7.329,0,0,1-2.155,5.2,7.329,7.329,0,0,1-5.2,2.155,7.33,7.33,0,0,1-5.2-2.155,7.328,7.328,0,0,1-2.154-5.2,7.329,7.329,0,0,1,2.154-5.2,7.328,7.328,0,0,1,5.2-2.154,7.328,7.328,0,0,1,5.2,2.154,7.33,7.33,0,0,1,2.155,5.2h.483a7.838,7.838,0,0,0-7.839-7.839,7.839,7.839,0,0,0-7.839,7.839,7.839,7.839,0,0,0,7.839,7.839,7.838,7.838,0,0,0,7.839-7.839Z" transform="translate(95.792 57.213)" fill="#e8e8e8"/>
    <path id="Trazado_1240" data-name="Trazado 1240" d="M-424.315,253.083h-.242a5.932,5.932,0,0,1-1.744,4.211,5.937,5.937,0,0,1-4.209,1.744,5.941,5.941,0,0,1-4.211-1.744,5.937,5.937,0,0,1-1.742-4.211,5.936,5.936,0,0,1,1.742-4.209,5.947,5.947,0,0,1,4.211-1.744,5.943,5.943,0,0,1,4.209,1.744,5.931,5.931,0,0,1,1.744,4.209h.483a6.437,6.437,0,0,0-6.437-6.437,6.438,6.438,0,0,0-6.438,6.437,6.438,6.438,0,0,0,6.438,6.438,6.437,6.437,0,0,0,6.437-6.438Z" transform="translate(15.43 101.151)" fill="#e8e8e8"/>
    <path id="Trazado_1241" data-name="Trazado 1241" d="M-186.821,52.184h-.242a4.94,4.94,0,0,1-1.45,3.5,4.936,4.936,0,0,1-3.5,1.45,4.937,4.937,0,0,1-3.5-1.45,4.94,4.94,0,0,1-1.45-3.5,4.94,4.94,0,0,1,1.45-3.5,4.938,4.938,0,0,1,3.5-1.452,4.938,4.938,0,0,1,3.5,1.452,4.94,4.94,0,0,1,1.45,3.5h.485a5.44,5.44,0,0,0-5.438-5.438,5.438,5.438,0,0,0-5.438,5.438,5.438,5.438,0,0,0,5.438,5.438,5.44,5.44,0,0,0,5.438-5.438Z" transform="translate(136.616 0)" fill="#e8e8e8"/>
    <path id="Trazado_1242" data-name="Trazado 1242" d="M-354.68,99.823a3.016,3.016,0,0,1-3.015,3.017,3.016,3.016,0,0,1-3.015-3.017,3.015,3.015,0,0,1,3.015-3.015A3.015,3.015,0,0,1-354.68,99.823Z" transform="translate(54.008 25.332)" fill="#4a3288"/>
    <path id="Trazado_1243" data-name="Trazado 1243" d="M-263.884,221.03a6.573,6.573,0,0,1-6.572,6.572,6.573,6.573,0,0,1-6.574-6.572,6.572,6.572,0,0,1,6.574-6.572A6.572,6.572,0,0,1-263.884,221.03Z" transform="translate(96.35 84.864)" fill="#4a3288"/>
    <path id="Trazado_1244" data-name="Trazado 1244" d="M-74.683,80.67a5.061,5.061,0,0,1-5.062,5.062,5.062,5.062,0,0,1-5.063-5.062,5.063,5.063,0,0,1,5.063-5.063A5.061,5.061,0,0,1-74.683,80.67Z" transform="translate(193.617 14.604)" fill="#4a3288"/>
    <path id="Trazado_1245" data-name="Trazado 1245" d="M-418.955,249.309A4.051,4.051,0,0,1-423,253.36a4.051,4.051,0,0,1-4.051-4.051,4.05,4.05,0,0,1,4.051-4.05A4.05,4.05,0,0,1-418.955,249.309Z" transform="translate(20.436 100.449)" fill="#4a3288"/>
    <path id="Trazado_1246" data-name="Trazado 1246" d="M-195.285,205.7a2.155,2.155,0,0,1-2.155,2.155A2.156,2.156,0,0,1-199.6,205.7a2.155,2.155,0,0,1,2.155-2.155A2.154,2.154,0,0,1-195.285,205.7Z" transform="translate(135.533 79.342)" fill="#4a3288"/>
    <circle id="Elipse_28" data-name="Elipse 28" cx="5.153" cy="5.153" r="5.153" transform="translate(-140.037 173.334)" fill="#f85fbf"/>
    <path id="Trazado_1247" data-name="Trazado 1247" d="M-221.107,72.083a3.966,3.966,0,0,1-3.965,3.965,3.966,3.966,0,0,1-3.965-3.965,3.966,3.966,0,0,1,3.965-3.965A3.966,3.966,0,0,1-221.107,72.083Z" transform="translate(120.635 10.814)" fill="#f85fbf"/>
    <path id="Trazado_1248" data-name="Trazado 1248" d="M-232.4,108.314a4.082,4.082,0,0,1,5.057-.873,17.39,17.39,0,0,0,2.66,1.586,5.665,5.665,0,0,0,4.446-.767c2.7-1.417,4.489-2.751,7.5-1.056,1.607.907,3.23,1.848,5.114,1.149,2.508-.934,3.857-2.961,6.768-3.191a8.665,8.665,0,0,1,4.72.959,16.953,16.953,0,0,0,2.739,1.515c1.712.526,2.816-.2,4.129-1.232a7.868,7.868,0,0,1,9.166-.721.727.727,0,0,0,.732-1.255,9.344,9.344,0,0,0-6.429-1.241,8.943,8.943,0,0,0-3.322,1.285c-1.5.974-2.331,2.417-4.527,1.45-2.291-1.009-3.857-2.245-6.5-2.239-2.738.006-4.6,1.175-6.81,2.611-3.22,2.1-4.974-1.212-8.045-1.517-2.033-.2-3.744.983-5.432,1.929-1.631.913-3.042,1.423-4.782.426a10.258,10.258,0,0,0-3.023-1.592,5.6,5.6,0,0,0-5.185,1.745C-234.074,107.962-233.048,108.99-232.4,108.314Z" transform="translate(118.309 28.491)" fill="#f85fbf"/>
    <path id="Trazado_1249" data-name="Trazado 1249" d="M-215.037,102.308A7.241,7.241,0,0,1-209,100.9c1.449.345,2.485,1.367,3.848,1.864,2.428.883,4.163-.636,6.135-1.834,2.087-1.27,3.248-1.029,5.3.105a6.207,6.207,0,0,0,3.7.931c2.718-.208,7.991-3.628,9.688.126.384.849,1.636.111,1.253-.733-1.053-2.33-3.8-2.712-6.083-2.221-2.806.605-4.95,2.108-7.83.643-1.423-.724-2.5-1.574-4.182-1.271a10.154,10.154,0,0,0-3.581,1.833,5.846,5.846,0,0,1-2.536,1.208c-1.357.1-2.37-.8-3.523-1.381a8.585,8.585,0,0,0-8.965.883C-216.514,101.6-215.79,102.864-215.037,102.308Z" transform="translate(127.191 26.162)" fill="#f85fbf"/>
    <path id="Trazado_1250" data-name="Trazado 1250" d="M-434.266,124.788c3.16-1.974,6.739-1.1,9.884.476,2.277,1.142,4.373,3.375,6.846,4.018,5.095,1.325,5.876-6.069,10.03-7.3,4.857-1.435,8.253,4.911,12.837,1.521,2.569-1.9,4.646-3.039,7.958-2.84a30.66,30.66,0,0,1,8.763,2.256c.877.327,1.255-1.075.387-1.4-4.6-1.721-10.212-3.583-14.958-1.3a26.076,26.076,0,0,0-3.114,2.184c-2,1.333-3.336.58-5.2-.508-2.026-1.178-4.008-1.956-6.393-1.471a7.93,7.93,0,0,0-5.019,3.455,18.653,18.653,0,0,1-2.178,3.22c-2.021,1.9-4.075.125-5.816-1.053-4.263-2.884-9.894-5.548-14.757-2.511C-435.79,124.029-435.063,125.285-434.266,124.788Z" transform="translate(16.244 36.642)" fill="#f85fbf"/>
    <path id="Trazado_1251" data-name="Trazado 1251" d="M-429.191,368.782A166.747,166.747,0,0,0-412.5,386.756c18.169,16.878,42.113,31.464,135.6,60.2,8.318,2.557,19.745,6.014,33.439,9.973,8.62-6.306,22.11-15.813,39.305-26.4,27.23-16.763,38.915-20.94,54.227-30.938,15.06-9.837,35.507-26.533,55.209-55.852a915.17,915.17,0,0,1-104.641-28.888c-18.028-6.151-35.152-12.622-51.358-19.259q-89.233,36.592-178.468,73.185" transform="translate(19.356 125.921)" fill="#fff"/>
    <path id="Trazado_1252" data-name="Trazado 1252" d="M-428.8,369.045l-.566.453A167.166,167.166,0,0,0-412.6,387.551c9.126,8.48,19.748,16.411,39.741,25.78s49.378,20.211,96.135,34.587c8.321,2.557,19.753,6.015,33.451,9.976l.342.1.288-.211c8.61-6.3,22.084-15.794,39.259-26.367,13.6-8.37,23.307-13.595,31.543-17.982s15.01-7.944,22.7-12.967c15.126-9.876,35.656-26.647,55.415-56.054l.6-.892-1.05-.224a914.118,914.118,0,0,1-104.559-28.866c-18.013-6.145-35.123-12.61-51.316-19.244l-.276-.111-.276.113-178.468,73.185-.9.367.605.758.566-.453.276.672q89.233-36.594,178.468-73.185l-.276-.672-.276.672c16.22,6.643,33.357,13.119,51.4,19.274A916.181,916.181,0,0,0-94.481,344.717l.151-.709-.6-.405c-19.644,29.232-40.007,45.853-55,55.649-7.622,4.977-14.345,8.509-22.589,12.9s-17.991,9.635-31.622,18.027c-17.215,10.6-30.721,20.117-39.354,26.432l.429.586.2-.7c-13.688-3.958-25.111-7.413-33.427-9.97-46.724-14.364-76.055-25.19-95.945-34.513s-30.325-17.131-39.367-25.528a165.718,165.718,0,0,1-16.619-17.9l-.568.453.276.672-.276-.672" transform="translate(18.962 125.657)"/>
    <path id="Trazado_1253" data-name="Trazado 1253" d="M-327.817,360.812a24.68,24.68,0,0,1,11.577-10.434c.852-.38.114-1.631-.733-1.255a25.973,25.973,0,0,0-12.1,10.955A.726.726,0,0,0-327.817,360.812Z" transform="translate(69.966 152.971)"/>
    <path id="Trazado_1254" data-name="Trazado 1254" d="M-328.709,360.551c1.657,1.889,4.141,1.229,5.807-.268,1.384-1.244,2.452-2.888,3.736-4.242a47.907,47.907,0,0,1,4.864-4.432c.729-.584-.3-1.607-1.027-1.027a47.412,47.412,0,0,0-5.425,5.036c-1.447,1.583-4.568,6.6-6.929,3.908C-328.3,358.82-329.324,359.85-328.709,360.551Z" transform="translate(70.104 153.656)"/>
    <path id="Trazado_1255" data-name="Trazado 1255" d="M-320.629,350.25l1.812,1.524a.747.747,0,0,0,1.027,0,.733.733,0,0,0,0-1.027q-.906-.761-1.813-1.524a.745.745,0,0,0-1.026,0A.733.733,0,0,0-320.629,350.25Z" transform="translate(74.182 152.952)"/>
    <path id="Trazado_1256" data-name="Trazado 1256" d="M-326.857,356.372q-1.215-1.261.011-2.131a14.023,14.023,0,0,1,1.28-1.03c.571-.44,1.145-.875,1.718-1.313.851-.649,3.666-3.238,4.349-1.28.306.877,1.709.5,1.4-.385-1.4-4.008-5.849-.072-7.628,1.288-1.279.976-3.126,2.026-3.3,3.8a2.208,2.208,0,0,0,1.779,2.452C-326.33,357.947-325.938,356.548-326.857,356.372Z" transform="translate(70.037 152.68)"/>
    <path id="Trazado_1257" data-name="Trazado 1257" d="M-325.473,358.025c3.2,2.928,4.541,7.1,7.1,10.506a19.846,19.846,0,0,0,8.068,6.306,19.9,19.9,0,0,0,21-3.669c.7-.622-.33-1.646-1.027-1.027a18.387,18.387,0,0,1-21.363,2.392A19.808,19.808,0,0,1-318.93,365c-1.646-2.843-3.059-5.754-5.517-8.006C-325.134,356.369-326.163,357.393-325.473,358.025Z" transform="translate(71.722 156.891)"/>
    <path id="Trazado_1258" data-name="Trazado 1258" d="M-319.386,352.429c3.53.1,7.06.181,10.589.289,3.736.115,7.381.417,10.574,2.56,5.61,3.765,10.022,11.766,5.057,17.843-.586.718.435,1.751,1.027,1.027,4.714-5.77,2.25-13.425-2.782-18.08-6.622-6.126-16.09-4.864-24.465-5.092A.726.726,0,0,0-319.386,352.429Z" transform="translate(74.564 153.944)"/>
    <path id="Trazado_1259" data-name="Trazado 1259" d="M-322.684,354.767c3.3,1.729,6.532,3.581,9.651,5.619,3.352,2.19,4.388,6.172,5.95,9.684.379.851,1.631.113,1.254-.733-1.342-3.015-2.392-7.129-5.083-9.245a71.48,71.48,0,0,0-11.041-6.577C-322.778,353.081-323.513,354.334-322.684,354.767Z" transform="translate(73.065 155.182)"/>
    <path id="Trazado_1260" data-name="Trazado 1260" d="M-314.464,359.422q5-.5,10-1c.922-.092.931-1.545,0-1.452q-5,.5-10,1C-315.385,358.062-315.394,359.515-314.464,359.422Z" transform="translate(77.057 156.972)"/>
    <path id="Trazado_1261" data-name="Trazado 1261" d="M-314.42,359.552a40.573,40.573,0,0,1,7.926,3.307c.819.449,1.553-.8.732-1.254a42.375,42.375,0,0,0-8.272-3.452A.726.726,0,0,0-314.42,359.552Z" transform="translate(77.173 157.557)"/>
    <path id="Trazado_1262" data-name="Trazado 1262" d="M-374.152,353.071a58.3,58.3,0,0,0,16.528,7.3c7.232,1.917,23.5,6.226,35.363-3.074,9.334-7.318,11.235-19.367,10.762-19.6-.39-.2-2.322,7.7-9.224,11.916-6.637,4.054-13.361,1.956-23.063,1.154A99.383,99.383,0,0,0-374.152,353.071Z" transform="translate(47.206 147.222)" fill="#f85fbf"/>
    <path id="Trazado_1263" data-name="Trazado 1263" d="M-259.593,346.2l12.438-9.327c.738-.554.015-1.815-.733-1.253l-12.438,9.325C-261.065,345.5-260.343,346.765-259.593,346.2Z" transform="translate(104.646 146.103)"/>
    <path id="Trazado_1264" data-name="Trazado 1264" d="M-257.727,359.994l34.909-28.664c.721-.595-.31-1.616-1.027-1.027l-34.909,28.665C-259.475,359.562-258.443,360.583-257.727,359.994Z" transform="translate(105.474 143.393)"/>
    <path id="Trazado_1265" data-name="Trazado 1265" d="M-241.824,348.492a90.91,90.91,0,0,1,11.269-10.215c.732-.559.009-1.821-.733-1.253a93.26,93.26,0,0,0-11.562,10.441C-243.488,348.147-242.462,349.175-241.824,348.492Z" transform="translate(113.544 146.81)"/>
    <path id="Trazado_1266" data-name="Trazado 1266" d="M-304.751,342.9a431.656,431.656,0,0,0,41.406-27.613c.736-.556.014-1.816-.733-1.255a431.382,431.382,0,0,1-41.406,27.613A.727.727,0,0,0-304.751,342.9Z" transform="translate(81.775 135.179)"/>
    <path id="Trazado_1267" data-name="Trazado 1267" d="M-309.049,334.678a67.07,67.07,0,0,0,15.8-11.712.727.727,0,0,0-1.027-1.027,65.69,65.69,0,0,1-15.5,11.485C-310.606,333.865-309.875,335.118-309.049,334.678Z" transform="translate(79.595 139.142)"/>
    <path id="Trazado_1268" data-name="Trazado 1268" d="M-319.747,334.138q14.535-11.535,29.723-22.208c.758-.533.033-1.792-.733-1.253q-15.332,10.778-30.016,22.434C-321.506,333.69-320.473,334.713-319.747,334.138Z" transform="translate(74.089 133.485)"/>
    <path id="Trazado_1269" data-name="Trazado 1269" d="M-336.959,249.48a268.162,268.162,0,0,0-35.325,12.812c-12.17,5.408-29.82,13.4-48.816,28.9-7.736,6.315-13.485,13.114-24.982,26.714-4.288,5.071-8.715,10.6-9.089,18.4-.1,2.105-.39,8.178,3.506,12.724,6.5,7.593,19.8,5.25,26.319,4.1a56.407,56.407,0,0,0,13.935-4.405c29.095-13.176,24.048-8.428,48.331-20.4,19.077-9.411,28.616-14.117,33.473-18.952,4.563-4.541,23.128-23.015,16.629-40.876-4.84-13.3-20.6-18.071-23.982-19.018" transform="translate(6.186 102.585)" fill="#fff"/>
    <path id="Trazado_1270" data-name="Trazado 1270" d="M-336.811,249.03c-19.057,6.444-38.242,12.941-56.016,22.5a162.484,162.484,0,0,0-43.379,33.867c-6.11,6.738-12.39,14.1-16.412,22.315-3.283,6.7-5.625,16.357.723,22.037,6.428,5.754,16.141,6.3,24.232,4.916,10.138-1.739,19.994-6.044,29.522-9.792a514.311,514.311,0,0,0,62.68-29.7c.815-.455.084-1.709-.733-1.253a511.828,511.828,0,0,1-52.2,25.447c-8.968,3.754-18.044,7.294-27.23,10.48-9.047,3.137-19.019,5.742-28.443,2.607-23.2-7.718-1.411-34.441,7.807-44.816A160.436,160.436,0,0,1-395.6,274.72c18.614-10.568,38.982-17.461,59.18-24.29.88-.3.5-1.7-.387-1.4" transform="translate(5.844 102.336)"/>
    <path id="Trazado_1271" data-name="Trazado 1271" d="M-356.6,305.873a35.032,35.032,0,0,1,6.425-4.944c4.319-2.581,6.524-2.607,15.036-5.527,7.327-2.514,10.354-4.093,12.98-5.857,2.169-1.456,6.3-4.229,5.782-5.765-.613-1.825-7.648-.953-15.4,0-6.441.792-6.666,1.274-12.248,1.83-8.247.821-8.794-.128-11.791,1.063-5.221,2.074-11.316,8.03-9.7,13.164,1.446,4.595,8.25,5.919,8.913,6.039" transform="translate(51.444 119.401)"/>
    <path id="Trazado_1272" data-name="Trazado 1272" d="M-334.375,252.875a62.755,62.755,0,0,0-7.274,4.5,54.668,54.668,0,0,0-12.224,12.461l.962,6.021c-11.605,5.614-20.9,10.721-27.272,14.37-17.557,10.047-27.78,18.092-48.225,34.183-6.61,5.2-13.9,11.147-16.426,20.968a22.653,22.653,0,0,0,.6,14.709,22.1,22.1,0,0,0,11.385,11.333c4.22,1.867,8.241,2.035,14.658,1.425a121.083,121.083,0,0,0,28.938-6.455A245.006,245.006,0,0,0-362,354.9a360.355,360.355,0,0,0,45.911-27.479,8.179,8.179,0,0,0-1.312-6.3,8.09,8.09,0,0,0-7.62-3.117,55.691,55.691,0,0,0,11.876-7.9c8.343-7.257,12.3-15.128,14.825-20.265a77.474,77.474,0,0,0,7.1-24.122,79.341,79.341,0,0,0,.148-18.733c-1.736-.1-28.959-1.551-43.3,5.888" transform="translate(10.954 101.233)" fill="#fff"/>
    <path id="Trazado_1273" data-name="Trazado 1273" d="M-339.161,296.508c-22.98,18.28-52.3,27.735-85.361,55.489-4.777,4.01-9.661,8.428-8.661,10.393.357.7,1.428,1.015,3.047,1.015,9.209,0,36.238-10.122,51.688-16.6a373.115,373.115,0,0,0,53.042-27.418q-.813-1.4-1.6-2.75a7.343,7.343,0,0,0-2.538-.6c-7.822,4.548-16.552,7.669-24.8,11.206l-71.441,30.638a.768.768,0,0,1-.31.066c-.7,0-1.172-1-.423-1.319l38.807-16.643q17.2-7.376,34.4-14.753c7.638-3.276,15.654-6.206,22.9-10.378a.628.628,0,0,1,.479-.279l.267-.157-.276-.176q.572-.269,1.194-.58c-4.16-7.047-7.721-12.848-10.4-17.15m41.191-45a73.485,73.485,0,0,1-8.1,2.008q-.843.158-1.682.3a101.131,101.131,0,0,1-15.619,27.173q-1.362,1.678-2.767,3.26c2,5.294,3.968,9.39,5.053,11.622,1.581,3.256,3.074,6.017,4.3,8.178a64.581,64.581,0,0,0,8.294-11.062l-.8-5.786q1.952-.565,3.9-1.133c.057.252.116.5.173.756a86.412,86.412,0,0,0,7.717-31.727c-.127-1.309-.292-2.509-.471-3.584" transform="translate(17.269 103.611)" fill="#eaeaea"/>
    <path id="Trazado_1274" data-name="Trazado 1274" d="M-299.492,250.874c-.188,22.1-7.622,44.646-25.037,59.12-8.991,7.473-20.33,11.358-30.943,15.909q-17.2,7.378-34.4,14.753L-428.676,357.3c-.855.367-.117,1.617.733,1.253l71.441-30.638c10.819-4.64,22.468-8.563,31.807-15.929a66.588,66.588,0,0,0,18.534-23.48c5.625-11.714,8.01-24.7,8.12-37.631a.726.726,0,0,0-1.452,0" transform="translate(19.424 102.935)"/>
    <path id="Trazado_1275" data-name="Trazado 1275" d="M-354.332,262.336a19.279,19.279,0,0,0,.988,6.214l.334-.821c-17.23,8.489-34.162,17.677-50.024,28.543A243.2,243.2,0,0,0-425.1,313.232c-6.6,5.735-13.723,11.852-18.024,19.6-3.6,6.482-4.393,13.932-1.208,20.741a21.946,21.946,0,0,0,17.544,12.51c9.077,1.1,18.9-1.2,27.655-3.444a172.74,172.74,0,0,0,26.114-9.134c19.917-8.687,38.367-20.309,56.674-31.917.786-.5.059-1.756-.733-1.253-29.914,18.968-61.234,38.719-96.983,43.817-9.075,1.294-18.926,1.3-25.533-6.027a20.644,20.644,0,0,1-2.983-23.211c3.678-7.563,10.4-13.47,16.587-18.97A234.474,234.474,0,0,1-404.4,298.981c16.459-11.5,34.132-21.134,52.123-30a.731.731,0,0,0,.334-.821,18.087,18.087,0,0,1-.935-5.827.727.727,0,0,0-1.453,0" transform="translate(10.687 108.736)"/>
    <path id="Trazado_1276" data-name="Trazado 1276" d="M-364.375,294.832a6.988,6.988,0,0,1,6.741,8.831.727.727,0,0,0,1.4.386,8.441,8.441,0,0,0-8.141-10.669.726.726,0,0,0,0,1.452" transform="translate(51.799 124.799)"/>
    <path id="Trazado_1277" data-name="Trazado 1277" d="M-358.681,304.289c2.836-2.078,5.324-4.047,8.7-5.164q5.11-1.69,10.123-3.66a194.572,194.572,0,0,0,18.919-8.676c.828-.435.095-1.688-.732-1.255a190.756,190.756,0,0,1-20.245,9.179c-3.321,1.274-6.706,2.34-10.053,3.538-2.791,1-5.077,3.051-7.443,4.783-.746.547-.023,1.807.733,1.255" transform="translate(54.505 120.784)"/>
    <path id="Trazado_1278" data-name="Trazado 1278" d="M-353.281,286.441c5.223.929,10.273-.19,15.349-1.407a59.332,59.332,0,0,1,8.756-1.664,13.685,13.685,0,0,1,4.322.02c3.554.923.813,3.8-.949,4.982-.773.518-.047,1.777.732,1.254,1.946-1.309,4.446-3.435,3.126-6.08-1.122-2.248-4.783-1.8-6.824-1.663-8.119.566-15.888,4.622-24.128,3.158C-353.808,284.88-354.2,286.279-353.281,286.441Z" transform="translate(57.501 118.916)"/>
    <path id="Trazado_1279" data-name="Trazado 1279" d="M-327.691,180.587a25.25,25.25,0,0,0-4.279,5.544c-2.057,3.628-3.339,8.071-2.545,22.909a209.751,209.751,0,0,0,2.91,25.455c.867,4.931,1.735,8.947,2.381,11.771,5.757,25.179,16.605,55.022,20.622,65.879,3,8.116,7.179,19.114,12.455,32.128a40.653,40.653,0,0,0-8.187,9.782c-1.434,2.405-3.6,6.042-2.672,7,.758.779,3.741-.029,13.584-7.086a95.952,95.952,0,0,1,12.992,6.256c4.253,2.467,7.876,5.03,13.623,5.815a25.156,25.156,0,0,0,3.878.224,23.625,23.625,0,0,0-5.146-6.97c-3.248-3.027-6.9-4.209-6.8-4.432.093-.208,3.1,1.176,7.187,2.425,3.581,1.095,7.512,1.343,15.372,1.839,1.1.069,2.762.152,3.483-.837.84-1.157-.075-3.132-.453-3.95-2.431-5.248-11.22-8.486-14.428-9.56a15.548,15.548,0,0,0,8.538,1.108,15.505,15.505,0,0,0,7.358-3.27q-3.215-.678-6.625-1.224a136.191,136.191,0,0,0-31.054-1.324,117.576,117.576,0,0,1-5-16.631c-1.736-7.822-1.351-9.867-3.3-21.453-1.562-9.289-2.506-14.756-4.91-21.635a88.131,88.131,0,0,0-6.655-14.6c-7.054-31.4-9.816-45.8-10.834-52.755a143.137,143.137,0,0,0-3.441-15.679,43.3,43.3,0,0,0-3.385-9.566,39.136,39.136,0,0,0-4.663-7.155" transform="translate(67.142 67.725)" fill="#fff"/>
    <path id="Trazado_1280" data-name="Trazado 1280" d="M-307.909,298.194h-.059c2,5.117,3.639,9,4.788,11.681-1.649-4.23-3.143-8.134-4.477-11.67-.081-.008-.166-.011-.251-.011M-321.98,257.22c5.072,16.851,9.708,29.834,13.3,39.141a2.645,2.645,0,0,1,.309-.054q-.931-2.485-1.749-4.694c-2.381-6.435-7.161-19.54-11.86-34.393m-9.762-36.058-.014.027c.057.246.116.488.175.738-.053-.25-.107-.506-.161-.765" transform="translate(68.659 88.256)" fill="#eee"/>
    <path id="Trazado_1281" data-name="Trazado 1281" d="M-316.124,271.059a2.653,2.653,0,0,0-.309.054q.364.942.712,1.833h.059c.086,0,.17,0,.252.011l-.714-1.9" transform="translate(76.412 113.504)" fill="#dadada"/>
    <path id="Trazado_1282" data-name="Trazado 1282" d="M-276.311,311.431l.08.029.024,0-.033-.026-.071,0m-29.159-12.286c-.34.244-.67.479-.994.708l.741.3q.436-.287.886-.587c2.691,1.366,4.994,2.62,6.839,3.663q2.679,1.05,5.391,2.1a95.891,95.891,0,0,0-12.863-6.181m-2.938-10.218q-1.349,1.654-2.533,3.152c.985-1.035,1.92-1.907,2.745-2.628l-.212-.524" transform="translate(79.191 122.546)" fill="#eee"/>
    <path id="Trazado_1283" data-name="Trazado 1283" d="M-287.673,303.723a24.81,24.81,0,0,0,5.217,2.465,25.291,25.291,0,0,0,3.831.935q-4.565-1.687-9.048-3.4m-17.485-6.882c-6.27,4.334-9.175,5.625-10.459,5.625a.946.946,0,0,1-.712-.239,1.148,1.148,0,0,0,.884.3q2.559,0,10.965-5.413l-.678-.274" transform="translate(76.465 126.55)" fill="#eee"/>
    <path id="Trazado_1284" data-name="Trazado 1284" d="M-299.027,299.557c.876.494,1.651.941,2.312,1.328,2.268,1.327,3.895,2.348,5.289,3.172q4.482,1.712,9.048,3.4a26.474,26.474,0,0,0,4.276.343c.3,0,.581,0,.843-.012l-.08-.029a25.486,25.486,0,0,1-2.544-.215c-5.747-.785-9.37-3.348-13.623-5.815l-.13-.075q-2.713-1.046-5.391-2.1m-8.465-3.375q-.736.522-1.419.992l.678.274q.718-.463,1.482-.967l-.741-.3" transform="translate(80.218 126.217)" fill="#0b0b0b"/>
    <path id="Trazado_1285" data-name="Trazado 1285" d="M-315.675,298.275l-.024.009q-1.064,2.164-.693,3c-.256-.6.115-1.741.717-3.008" transform="translate(76.384 127.276)" fill="#eee"/>
    <path id="Trazado_1286" data-name="Trazado 1286" d="M-315.518,297.717q-.246.447-.446.849l.024-.009c.131-.276.273-.557.422-.84" transform="translate(76.649 126.994)" fill="#0b0b0b"/>
    <path id="Trazado_1287" data-name="Trazado 1287" d="M-322.93,209.38c-.107.56-.229,1.123-.367,1.7-1.8,7.4-4.042,7.16-8.449,16.048.054.259.108.515.161.765,1.107,4.655,2.473,10.012,4.154,16.214q2.776,10.254,5.447,19.08c4.7,14.852,9.479,27.958,11.86,34.393q.818,2.207,1.749,4.694l.714,1.9c1.334,3.536,2.828,7.44,4.477,11.67l0,0c2.283,5.322,4.285,9.724,5.721,12.824l-.422.514.212.524c-.825.721-1.76,1.593-2.745,2.628a82.789,82.789,0,0,0-7.117,10.086c-.149.283-.291.565-.422.84-.6,1.267-.973,2.4-.717,3.008a.774.774,0,0,0,.143.218h0a.946.946,0,0,0,.712.239c1.285,0,4.19-1.291,10.459-5.625q.682-.472,1.419-.992c.324-.229.654-.464.994-.708a95.891,95.891,0,0,1,12.863,6.181l.13.075c4.253,2.467,7.876,5.03,13.623,5.815a25.486,25.486,0,0,0,2.544.215l.071,0-24.572-18.92c-5.346-14.03-20.543-55.155-27.674-94.3-2.157-11.84-3.771-21.467-4.97-29.087" transform="translate(68.664 82.294)" fill="#eee"/>
    <path id="Trazado_1288" data-name="Trazado 1288" d="M-330.321,181.331c2.821,2.265,4.209,5.608,5.449,8.913a89.373,89.373,0,0,1,3.075,10.248c1.789,7.346,3.166,14.8,4.69,22.206q4.654,22.624,9.31,45.25c.188.914,1.589.527,1.4-.386l-9.7-47.116c-1.544-7.509-2.905-15.089-4.852-22.506-1.548-5.893-3.355-13.625-8.349-17.635C-330.016,179.725-331.05,180.746-330.321,181.331Z" transform="translate(69.259 67.495)"/>
    <path id="Trazado_1289" data-name="Trazado 1289" d="M-333.232,217.813A670.481,670.481,0,0,0-297.5,325.349c.367.855,1.619.116,1.253-.733a668.228,668.228,0,0,1-35.589-107.189C-332.05,216.519-333.451,216.9-333.232,217.813Z" transform="translate(67.9 86.104)"/>
    <path id="Trazado_1290" data-name="Trazado 1290" d="M-315.219,238.3c12.691,22.22,10.607,48.981,18.443,72.784.292.883,1.694.5,1.4-.387-7.881-23.938-5.821-50.777-18.59-73.129A.726.726,0,0,0-315.219,238.3Z" transform="translate(76.975 96.377)"/>
    <path id="Trazado_1291" data-name="Trazado 1291" d="M-305.631,289.015c-2.777,3.306-5.672,6.545-8.322,9.953-1.346,1.73-3.494,4.376-3,6.759.471,2.273,2.26,1.637,3.732.78,3.75-2.185,7.462-4.438,11.193-6.657a.727.727,0,0,0-.733-1.255l-6.8,4.042-3.6,2.14c-.244.145-1.351,1.014-1.6.95q-.35-.689-.7-1.377a9.25,9.25,0,0,1,.7-1.6,34.9,34.9,0,0,1,4.55-6.054l5.593-6.66C-304.007,289.332-305.03,288.3-305.631,289.015Z" transform="translate(76.113 122.468)"/>
    <path id="Trazado_1292" data-name="Trazado 1292" d="M-302.017,287.245q9.644.255,19.275.786,4.7.262,9.391.595c3.092.218,6.2.324,9.125,1.453.872.337,1.25-1.065.386-1.4a27.575,27.575,0,0,0-8.1-1.405q-4.927-.361-9.86-.643-10.1-.578-20.214-.839A.726.726,0,0,0-302.017,287.245Z" transform="translate(83.353 120.96)"/>
    <path id="Trazado_1293" data-name="Trazado 1293" d="M-306.846,297.156c10.482,2.893,18.631,12.223,30.055,11.9a.735.735,0,0,0,.7-.92c-1.616-6.259-8.172-8.473-12.2-12.836-.636-.688-1.661.34-1.027,1.026,3.818,4.129,10.313,6.312,11.831,12.2l.7-.92c-11.19.318-19.357-9-29.668-11.848A.727.727,0,0,0-306.846,297.156Z" transform="translate(81.004 125.656)"/>
    <path id="Trazado_1294" data-name="Trazado 1294" d="M-294.992,299.74A74.08,74.08,0,0,0-279,304.407a30.006,30.006,0,0,0,7.262.55c1.426-.108,3.173-.242,4-1.6,1.842-3.045-2.571-6.023-4.507-7.491a44,44,0,0,0-13.321-6.824c-.892-.283-1.274,1.117-.386,1.4a42.613,42.613,0,0,1,10.271,4.783,40.8,40.8,0,0,1,4.479,3.337,8.81,8.81,0,0,1,1.949,1.967c1.227,2.134-.759,2.833-2.48,2.974-7.55.623-15.992-2.31-22.87-5.164C-295.467,297.983-295.844,299.386-294.992,299.74Z" transform="translate(87.019 122.585)"/>
    <path id="Trazado_1295" data-name="Trazado 1295" d="M-288.825,290.974c5.553.657,13.562,3.155,18.022-1.479.648-.673-.377-1.7-1.027-1.027-2.22,2.307-5.3,2.364-8.294,2.072-2.905-.282-5.8-.675-8.7-1.018C-289.751,289.412-289.743,290.866-288.825,290.974Z" transform="translate(90.032 122.202)"/>
    <path id="Trazado_1296" data-name="Trazado 1296" d="M-292.951,293.237a47.771,47.771,0,0,0,10.592,3.425,34.051,34.051,0,0,1,11.784,5.051c.767.536,1.492-.721.732-1.255a32.516,32.516,0,0,0-10.545-4.8c-4.015-1.062-8.1-1.771-11.83-3.678C-293.047,291.559-293.784,292.812-292.951,293.237Z" transform="translate(88.109 124.049)"/>
    <path id="Trazado_1297" data-name="Trazado 1297" d="M-366.7,180.764a87.521,87.521,0,0,1,29.284-5.491c11.62-.139,24.881-.3,31.724,8.236,2.637,3.288,3.386,9,4.881,20.438,1.526,11.658,2.289,17.488.61,24.4-2,8.254-4.569,7-10.066,19.522-4.042,9.2-3.6,12.025-8.846,26.845-2.307,6.513-4.428,11.708-5.8,14.947a73.407,73.407,0,0,1-9.456,2.441c-17.766,3.339-33.2-.6-43.012-4.271q5.338-53.536,10.678-107.073" transform="translate(45.571 65.018)" fill="#f85fbf"/>
    <path id="Trazado_1298" data-name="Trazado 1298" d="M-359.058,178.443a28.267,28.267,0,0,0-8.047,5.163,29.564,29.564,0,0,0-6.148,8.148,57.911,57.911,0,0,0-6.056,18.854c-3.291,21.534-4.25,30.322-4.25,30.322-2.05,18.8-2.687,26.134-2.494,35.964a65.75,65.75,0,0,0,1.664,15.028c1.428,5.929,3.508,10.562,7.39,17.866,5.635,10.6,10.4,18.047,13.643,23.22,3.869,6.166,9.34,15.092,15.735,26.266q1.735,4.846,3.715,10.227c6.238,16.941,6.09,15.4,5.745,13.869-.161-.717-.364-1.432.017-.277.452,1.369,1.377,4.312,4.047,5.974.663.413,1.744,1.087,2.372.783,1.262-.61,1.05-5.343-4.587-22.161a35.1,35.1,0,0,0,8.395,11.723,27.774,27.774,0,0,0,5.651,3.882q1.22,5.756,2.3,11.9,1.389,7.929,2.334,15.358a17.1,17.1,0,0,0-.708,5.875,12.418,12.418,0,0,0,1.39,5.646c.607,1.107,2.163,3.94,4.614,4.169,1.289.122,2.407-.613,4.643-2.083,2.943-1.932,3.544-3.146,5.006-3.107.773.021,1.883.393,3.2,2.114-.044-3.318-.976-4.524-1.8-5.018a3.55,3.55,0,0,0-2.506-.2,11.606,11.606,0,0,1-3.217.023,7.693,7.693,0,0,1-4.507-1.735c-1.875-1.879-1.465-5.089-1.387-5.895.395-4.077-1.122-14.691-7.11-39.013a3.481,3.481,0,0,0,3.8,2.527,3.485,3.485,0,0,0,2.956-3.687l-9.181-8.551q-.547-4.369-1.214-8.843c-1.553-10.423-3.468-20.345-5.632-29.742q-1.952.567-3.9,1.133,1.3,9.364,2.6,18.727-4.855-.608-9.709-1.214c-1.294-2.25-2.934-5.242-4.682-8.843a128.8,128.8,0,0,1-6.589-15.952c-3.169-9.545-5.024-15.131-5.2-22.715-.078-3.349.146-8.128-2.255-13.87a28.708,28.708,0,0,0-2.6-4.855c1.084-6.325,1.97-11.785,2.651-16.1,4.578-29.012,2.209-20.786,5.956-48.257.7-5.11,1.355-9.623.393-15.735a45.269,45.269,0,0,0-6.431-16.911" transform="translate(41.168 66.64)" fill="#fff"/>
    <path id="Trazado_1299" data-name="Trazado 1299" d="M-336.278,367.429l.008.024q.443,1.322.842,2.545.775.987,1.515,1.913a33.044,33.044,0,0,1-2.364-4.482m-10.3-5.024a.784.784,0,0,1,.108.658A80.678,80.678,0,0,0-341.356,376c-.693-1.83-1.52-4.05-2.508-6.732q-1.29-3.5-2.476-6.785a.916.916,0,0,1-.241-.075m-39.4-93.189a50.92,50.92,0,0,0-.056,7.956c.018.267.038.533.059.8q-.018-.644-.032-1.312c-.05-2.568-.044-4.965.029-7.441m11.673-75.537c-2.2,4.114-3.87,8.7-6.238,23.754-.753,4.789-1.285,8.786-2.039,15.878.655-4.9,1.706-12.387,3.319-22.94a59,59,0,0,1,4.958-16.693m12.05-14.772a53.2,53.2,0,0,0-4.063,3.809,27.989,27.989,0,0,1,3.441-2.508q.321-.682.622-1.3" transform="translate(41.126 66.875)" fill="#ececec"/>
    <path id="Trazado_1300" data-name="Trazado 1300" d="M-349.962,322.312l-.027.014.027-.014m3.78-10.425c1.857,2.148,3.435,3.9,5.349,3.9.1,0,.2,0,.3-.014a27.774,27.774,0,0,1-5.651-3.882" transform="translate(59.433 134.164)" fill="#ececec"/>
    <path id="Trazado_1301" data-name="Trazado 1301" d="M-382.992,259.673l.048.142.008-.011-.056-.131" transform="translate(42.733 107.743)" fill="#ececec"/>
    <path id="Trazado_1302" data-name="Trazado 1302" d="M-349.2,318.125q.312,1.247.645,2.437c.033-.136.06-.27.086-.405q-.37-1.028-.73-2.032m-1.681-2.922,0,0q.829,1.432,1.685,2.919-.852-1.489-1.681-2.922m-3.342-5.727-.012.006.087.148.011-.006-.086-.148m-10.712-17.617.3.473h0l-.3-.471m-18.016-32.1-.008.011c3.285,9.593,6.762,14.223,15.9,28.712-3.062-4.895-7.013-11.357-11.524-19.843-1.81-3.407-3.23-6.232-4.373-8.879" transform="translate(42.749 107.787)" fill="#ececec"/>
    <path id="Trazado_1303" data-name="Trazado 1303" d="M-358.643,301.513q.788,1.349,1.6,2.75l0,0q-.806-1.4-1.59-2.739l-.015-.008m-12.152-20.126h0c2.684,4.3,6.245,10.1,10.4,17.15l.012-.006c-4.1-6.949-7.646-12.723-10.416-17.146" transform="translate(48.904 118.731)" fill="#dadada"/>
    <path id="Trazado_1304" data-name="Trazado 1304" d="M-363.818,292.87l-.011.006.566.961.015,0c-.19-.325-.381-.649-.571-.97" transform="translate(52.429 124.541)" fill="#181818"/>
    <path id="Trazado_1305" data-name="Trazado 1305" d="M-359.951,300.709c.071.242.142.483.214.721a.784.784,0,0,0-.108-.658.754.754,0,0,1-.105-.063" transform="translate(54.392 128.508)" fill="#181818"/>
    <path id="Trazado_1306" data-name="Trazado 1306" d="M-358.342,303.078c-.026.136-.053.27-.086.405.083.292.164.581.248.867a.754.754,0,0,0,.105.063.916.916,0,0,0,.241.075q-.258-.712-.509-1.411m-5.111-9.566,1.095,1.866.015.008q-.553-.949-1.095-1.87l-.015,0" transform="translate(52.62 124.866)" fill="#181818"/>
    <path id="Trazado_1307" data-name="Trazado 1307" d="M-362.923,179.771a27.989,27.989,0,0,0-3.441,2.508,49.565,49.565,0,0,0-7.976,10.944l-.01.02a59,59,0,0,0-4.958,16.693c-1.613,10.553-2.664,18.043-3.319,22.94-.455,4.273-.989,9.666-1.7,17.034-.934,9.647-1.447,15.193-1.693,18.87-.072,2.476-.078,4.873-.029,7.441q.013.669.032,1.312a93.2,93.2,0,0,0,4.583,22.543l.01.029.056.131c1.143,2.648,2.563,5.473,4.373,8.879,4.51,8.486,8.462,14.949,11.524,19.843q1.012,1.6,2.119,3.376h0l.3.471c2.77,4.423,6.319,10.2,10.416,17.146l.086.148c.19.321.381.645.571.97q.542.924,1.095,1.87.784,1.344,1.59,2.739.829,1.434,1.681,2.922h0q.359,1,.73,2.032.251.7.509,1.411,1.186,3.28,2.476,6.785c.988,2.682,1.815,4.9,2.508,6.732.721,1.44,1.431,2.741,2.1,3.9,1.97,3.417,5.971,9.747,7.407,9.747a.406.406,0,0,0,.166-.033h0l.027-.014c.209-.122.673-.8-.685-6.941a97.357,97.357,0,0,0-4.3-14.215q.615.8,1.211,1.554-.4-1.224-.842-2.545l-.008-.024a33.044,33.044,0,0,0,2.364,4.482c2.286,2.86,4.33,5.289,6.038,7.265h0a27.774,27.774,0,0,0,5.651,3.882h0c1.789-.17,3.047-1.792,3.669-2.757a183.155,183.155,0,0,1-17.617-18.852c-7.952-9.816-27.59-34.607-35.575-71.445-3.087-14.241-2.642-30.295-1.75-62.4a117.4,117.4,0,0,1,4.666-31.784,111.356,111.356,0,0,1,5.952-15.607" transform="translate(41.168 67.312)" fill="#ececec"/>
    <path id="Trazado_1308" data-name="Trazado 1308" d="M-358.994,178c-10.581,4.208-16.191,14.589-19.021,25.074-3.452,12.788-4.869,26.221-6.134,39.375-1.3,13.529-3.276,27.546-2.071,41.138,1.166,13.14,7.158,24.143,13.759,35.29q12.108,20.451,24.221,40.9a.726.726,0,0,0,1.253-.733q-10.172-17.178-20.346-34.357c-6.464-10.917-13.953-21.9-16.5-34.531-2.536-12.578-.78-25.711.3-38.357,1.134-13.333,2.458-26.676,5.006-39.822,2.45-12.638,6.759-27.345,19.923-32.578C-357.75,179.055-358.125,177.651-358.994,178Z" transform="translate(40.91 66.386)"/>
    <path id="Trazado_1309" data-name="Trazado 1309" d="M-367.259,179.756c9.385,12.132,5.6,29.445,3.869,43.4l-6.533,52.659c-.115.925,1.337.917,1.452,0q3.443-27.752,6.887-55.505c1.7-13.741,4.506-29.748-4.648-41.582C-366.8,177.991-367.823,179.026-367.259,179.756Z" transform="translate(49.343 66.656)"/>
    <path id="Trazado_1310" data-name="Trazado 1310" d="M-372.223,241.785c4.989,3.465,6.132,9.858,7.075,15.456,1.047,6.221,2.13,12.435,3.52,18.59,2.745,12.149,6.7,24.077,13.31,34.7.492.792,1.748.063,1.255-.732-7.146-11.494-11.122-24.485-13.879-37.649-1.306-6.232-2.145-12.551-3.44-18.78-1.03-4.959-2.8-9.848-7.108-12.845C-372.261,240-372.987,241.255-372.223,241.785Z" transform="translate(48.018 97.991)"/>
    <path id="Trazado_1311" data-name="Trazado 1311" d="M-355.335,288.016a27.066,27.066,0,0,1,8.959,1.02c.887.3,1.268-1.1.386-1.4a28.254,28.254,0,0,0-9.345-1.071A.726.726,0,0,0-355.335,288.016Z" transform="translate(56.373 121.349)"/>
    <path id="Trazado_1312" data-name="Trazado 1312" d="M-348.987,292.8c-.2,4.051,2.572,7.057,5.232,9.768,3.6,3.675,7.355,7.2,11.215,10.6.7.614,1.73-.408,1.027-1.027q-4.769-4.2-9.3-8.67c-2.916-2.893-6.953-6.175-6.727-10.673C-347.489,291.867-348.941,291.87-348.987,292.8Z" transform="translate(59.934 124.152)"/>
    <path id="Trazado_1313" data-name="Trazado 1313" d="M-360.994,298.94c1.889,5.366,3.788,10.732,6.045,15.955,1.14,2.639,2.373,5.236,3.744,7.762,1.2,2.218,2.479,5.014,4.256,6.842.761.78,1.849,1.319,2.845.55,1.223-.946.8-2.876.554-4.151a114.249,114.249,0,0,0-5.1-17.937c-.321-.87-1.724-.494-1.4.386a118.94,118.94,0,0,1,3.943,12.732q.427,1.726.8,3.465c.172.8,1.1,3.306.515,3.956-1.011,1.13-3.97-4.464-4.318-5.072-4.483-7.837-7.494-16.387-10.482-24.875C-359.9,297.678-361.306,298.054-360.994,298.94Z" transform="translate(53.841 127.165)"/>
    <path id="Trazado_1314" data-name="Trazado 1314" d="M-353.289,307c2.583,3.888,5.14,7.977,8.4,11.346,1.925,1.986,5.839,5.167,8.872,3.8,3.146-1.423.962-5.215-.259-7.1q-4.669-7.211-9.363-14.409c-.508-.78-1.765-.053-1.255.733q3.122,4.8,6.242,9.607l2.861,4.4c1.006,1.547,3.8,5.562-.136,5.486-3.09-.057-5.848-3.285-7.635-5.47-2.361-2.889-4.416-6.019-6.479-9.123C-352.551,305.489-353.808,306.217-353.289,307Z" transform="translate(57.701 128.298)"/>
    <path id="Trazado_1315" data-name="Trazado 1315" d="M-348.945,301.108a42.2,42.2,0,0,0,11.387,10.852c1.464.905,3.395,1.7,4.937.514a2.534,2.534,0,0,0,.756-3.328c-.428-.831-1.681-.1-1.253.732q-1.2,2.395-2.763,1.328a4.184,4.184,0,0,1-.943-.5c-.565-.334-1.1-.73-1.628-1.116a41.7,41.7,0,0,1-3.541-2.886,44.063,44.063,0,0,1-5.7-6.331C-348.243,299.633-349.5,300.356-348.945,301.108Z" transform="translate(59.89 128.181)"/>
    <path id="Trazado_1316" data-name="Trazado 1316" d="M-351.634,302.748a51.847,51.847,0,0,0,13.664,17.669c.712.595,1.744-.428,1.027-1.027a50.9,50.9,0,0,1-13.438-17.373C-350.78,301.171-352.033,301.907-351.634,302.748Z" transform="translate(58.561 128.98)"/>
    <path id="Trazado_1317" data-name="Trazado 1317" d="M-351.524,276.4q2.108,13.12,4.214,26.242c.149.92,1.548.53,1.4-.386q-2.108-13.123-4.214-26.244C-350.271,275.1-351.672,275.489-351.524,276.4Z" transform="translate(58.65 115.748)"/>
    <path id="Trazado_1318" data-name="Trazado 1318" d="M-350.126,277.194c.605-.977,2.488-2.617,3.646-1.108a5.974,5.974,0,0,1,.288,1.866q.4,2.566.794,5.132.759,4.9,1.515,9.8l3.032,19.595c.142.922,1.541.53,1.4-.386l-4.256-27.525q-.542-3.5-1.083-7c-.151-.97-.1-2.458-.938-3.146-1.854-1.523-4.673.464-5.649,2.042C-351.873,277.258-350.617,277.988-350.126,277.194Z" transform="translate(58.672 114.929)"/>
    <path id="Trazado_1319" data-name="Trazado 1319" d="M-342.4,307.579q3.913,19.956,6.605,40.123c.122.913,1.575.925,1.453,0q-2.713-20.354-6.658-40.509C-341.185,306.278-342.584,306.665-342.4,307.579Z" transform="translate(63.262 131.524)"/>
    <path id="Trazado_1320" data-name="Trazado 1320" d="M-344.064,314.88q2.6,13.583,4.477,27.286c.127.922,1.526.529,1.4-.387q-1.882-13.7-4.477-27.284C-342.84,313.577-344.239,313.965-344.064,314.88Z" transform="translate(62.423 135.218)"/>
    <path id="Trazado_1321" data-name="Trazado 1321" d="M-340.945,332.994a4.865,4.865,0,0,0,5.026,3.127c.917-.105.928-1.559,0-1.453a3.427,3.427,0,0,1-3.626-2.06C-339.885,331.749-341.29,332.122-340.945,332.994Z" transform="translate(63.982 144.403)"/>
    <path id="Trazado_1322" data-name="Trazado 1322" d="M-340.542,332.61c-1.825,4.833-1.413,11.515,2.7,15.159a5.06,5.06,0,0,0,5.476,1.035c2.383-.986,6.7-7.395,9.239-3.812.535.758,1.8.033,1.253-.732-2.63-3.711-6.48-.508-8.849,1.622-1.786,1.605-3.928,2.687-6.092.86a9.453,9.453,0,0,1-2.559-4.084,13.952,13.952,0,0,1,.236-9.663C-338.811,332.121-340.213,331.743-340.542,332.61Z" transform="translate(63.69 144.401)"/>
    <path id="Trazado_1323" data-name="Trazado 1323" d="M-337.716,334.221c.4,2.473,1.721,5.024,4.178,5.983,3.075,1.2,10.212-1.587,8.885,4.4-.2.91,1.2,1.3,1.4.385.574-2.584-.381-5.262-3.166-5.922-1.964-.465-3.986.44-5.947-.012-2.44-.562-3.587-2.97-3.95-5.223C-336.465,332.915-337.864,333.305-337.716,334.221Z" transform="translate(65.637 145.004)"/>
    <path id="Trazado_1324" data-name="Trazado 1324" d="M-352.725,200.85a9.235,9.235,0,0,0,2.914,3.991,9.636,9.636,0,0,0,5.684,1.812q2.4-2.758,4.791-5.517a13.3,13.3,0,0,0,8.586,3.926,13.078,13.078,0,0,0,6.786-1.908c7.435-3.925,11.968-10.242,14.111-13.709a49.309,49.309,0,0,0,6.241-16.111c1.221-5.515,3.163-14.837-.557-25.367-1.336-3.785-2-5.676-3.623-7.247-9.355-9.078-41.935-2.306-51.292,18.4,0,0-5.66,12.519,6.36,41.733" transform="translate(54.156 45.555)" fill="#fff"/>
    <path id="Trazado_1325" data-name="Trazado 1325" d="M-346.12,142.408a26.914,26.914,0,0,0-11.435,9.119c-5.849,8.429-4.86,18.712-4.461,22.86A42.85,42.85,0,0,0-355.8,192.7q.971-.136,1.905-.245c-9.154-25.263-4.214-36.191-4.214-36.191a34.35,34.35,0,0,1,11.992-13.858" transform="translate(53.184 48.406)" fill="#ebebeb"/>
    <path id="Trazado_1326" data-name="Trazado 1326" d="M-356.094,175.641q-.933.111-1.905.245a45.273,45.273,0,0,0,4.33,5.926c-.1-.2-.19-.413-.279-.63q-1.184-2.878-2.146-5.542" transform="translate(55.379 65.222)" fill="#db6964"/>
    <path id="Trazado_1327" data-name="Trazado 1327" d="M-328.633,140.011a46.334,46.334,0,0,0-18.459,3.61,34.35,34.35,0,0,0-11.992,13.858s-4.94,10.928,4.214,36.191q.965,2.663,2.146,5.542c.089.217.182.426.279.63h0l6.462-4.45,6.648,4.107a41.912,41.912,0,0,1-1.908-16.931,44.233,44.233,0,0,1,7.806-20.628c9.312-13.312,21.19-14.869,20.464-17.816-.52-2.105-7.268-4.113-15.658-4.113" transform="translate(54.157 47.193)" fill="#ebebeb"/>
    <path id="Trazado_1328" data-name="Trazado 1328" d="M-333.693,168.7a62.4,62.4,0,0,0,12.113-4.053,75.191,75.191,0,0,0,13.781-8.4c3.554-2.574,6.385-4.943,8.4-6.723,2.374,1.053,6.905,3.509,8.593,8.274.458,1.291.681,2.682.517,7.187a72.587,72.587,0,0,1-1.244,13.1,62.964,62.964,0,0,1-9.03,21.388,33.7,33.7,0,0,0,12.593-9.947c5.51-7.2,6.372-14.656,7.059-21.512,1.178-11.771,2.282-22.806-4.754-30.561-7.185-7.919-18.858-8.015-28.524-8.095-5.352-.044-12.14-.1-19.626,2.968-12.6,5.164-12.8,13.241-30.458,31.989-12.919,13.72-16.867,13.7-20.169,22.185-3.229,8.3-5.667,24.295,4.37,32.941,10,8.613,26.477,4.854,35.631-3.024,2.119-1.825,9.522-8.756,10.03-20.078a28.562,28.562,0,0,0-6.333-18.914c-4.376-5.148-4.629-10.745-2.352-12.772a6.017,6.017,0,0,1,7.059,0A6.289,6.289,0,0,1-333.693,168.7Z" transform="translate(40.576 41.795)" fill="#4a3288"/>
    <path id="Trazado_1329" data-name="Trazado 1329" d="M-352.441,189.6a51.515,51.515,0,0,0,8.467,7.77c2.58,1.875,6.006,4.571,9.283,4.931,3.349.369,7.3-1.884,10.044-3.59a31.928,31.928,0,0,0,8.214-7.328c4.9-6.208,7.05-14,8.309-21.674,1.4-8.5,1.589-17.209-.89-25.536a.727.727,0,0,0-1.4.387c2.273,7.626,2.26,15.616,1.1,23.438-1.066,7.191-2.828,14.577-6.934,20.687-3.6,5.36-10.1,11.057-16.721,12.044-3.566.533-7.5-2.593-10.269-4.61a50.075,50.075,0,0,1-8.173-7.544C-352.029,187.87-353.054,188.9-352.441,189.6Z" transform="translate(58.097 49.042)"/>
    <path id="Trazado_1330" data-name="Trazado 1330" d="M-329.054,158.095l-2.61,10.369q-.626,2.48-1.248,4.959c-.274,1.087-.521,4.3-1.492,4.988l1.066.434a30.094,30.094,0,0,0-2.8-5.563c-.5-.783-1.762-.056-1.255.733a28.22,28.22,0,0,1,2.66,5.217.735.735,0,0,0,1.066.434c1.1-.779,1.149-1.846,1.477-3.151l1.476-5.861q1.532-6.086,3.065-12.173A.727.727,0,0,0-329.054,158.095Z" transform="translate(65.744 56.082)"/>
    <path id="Trazado_1331" data-name="Trazado 1331" d="M-343.659,168.827a8.326,8.326,0,0,0,8.6,7.307c.929-.05.935-1.5,0-1.452a6.865,6.865,0,0,1-7.149-5.855C-342.322,167.913-343.775,167.9-343.659,168.827Z" transform="translate(62.632 61.425)"/>
    <path id="Trazado_1332" data-name="Trazado 1332" d="M-338.284,159.9c-.777,2.1-.712,4.056.145,4.373s2.184-1.125,2.961-3.223.712-4.056-.145-4.373S-337.506,157.806-338.284,159.9Z" transform="translate(65.081 55.606)"/>
    <path id="Trazado_1333" data-name="Trazado 1333" d="M-328.978,161.339c-.777,2.1-.712,4.056.146,4.373s2.182-1.125,2.959-3.223.712-4.056-.145-4.373S-328.2,159.241-328.978,161.339Z" transform="translate(69.79 56.332)"/>
    <path id="Trazado_1334" data-name="Trazado 1334" d="M-337.617,152.873a2.888,2.888,0,0,1,4.914.626c.417.836,1.67.1,1.255-.733a4.336,4.336,0,0,0-7.2-.92C-339.259,152.546-338.236,153.577-337.617,152.873Z" transform="translate(65.077 52.413)"/>
    <path id="Trazado_1335" data-name="Trazado 1335" d="M-328.023,154.154c1.377-1.425,4.33-2.312,5.17.2.3.881,1.7.5,1.4-.387-1.191-3.554-5.4-3.119-7.6-.84C-329.7,153.8-328.674,154.827-328.023,154.154Z" transform="translate(69.923 52.934)"/>
    <path id="Trazado_1336" data-name="Trazado 1336" d="M-353.544,165.92c-3.474-1.3-4.821-6.681-3.727-9.916a4.755,4.755,0,0,1,4.166-3.3c2.657.015,4.1,2.827,4.482,5.068.155.92,1.554.53,1.4-.386-.861-5.093-6.638-8.572-10.388-3.767-3.154,4.042-1.145,11.9,3.682,13.7C-353.054,167.648-352.675,166.244-353.544,165.92Z" transform="translate(54.807 52.919)"/>
    <path id="Trazado_1337" data-name="Trazado 1337" d="M-340.812,161.856h-.17a.735.735,0,0,0-.726.726.739.739,0,0,0,.726.726h.17a.735.735,0,0,0,.726-.726A.739.739,0,0,0-340.812,161.856Z" transform="translate(63.623 58.247)"/>
    <path id="Trazado_1338" data-name="Trazado 1338" d="M-338.631,164.207a.726.726,0,0,0,0-1.452A.726.726,0,0,0-338.631,164.207Z" transform="translate(64.825 58.702)"/>
    <path id="Trazado_1339" data-name="Trazado 1339" d="M-340.654,165.78a.726.726,0,0,0,0-1.452A.726.726,0,0,0-340.654,165.78Z" transform="translate(63.802 59.498)"/>
    <path id="Trazado_1340" data-name="Trazado 1340" d="M-329.752,166.117a.726.726,0,0,0,0-1.452A.726.726,0,0,0-329.752,166.117Z" transform="translate(69.317 59.668)"/>
    <path id="Trazado_1341" data-name="Trazado 1341" d="M-326.944,165.893a.727.727,0,0,0,0-1.453A.727.727,0,0,0-326.944,165.893Z" transform="translate(70.739 59.554)"/>
    <path id="Trazado_1342" data-name="Trazado 1342" d="M-329.3,168.59a.726.726,0,0,0,0-1.452A.726.726,0,0,0-329.3,168.59Z" transform="translate(69.545 60.919)"/>
    <path id="Trazado_1343" data-name="Trazado 1343" d="M-345.086,179.25l-4.791,5.516c-.611.7.413,1.735,1.026,1.027q2.4-2.758,4.791-5.518C-343.451,179.574-344.473,178.542-345.086,179.25Z" transform="translate(59.394 66.928)"/>
    <path id="Trazado_1344" data-name="Trazado 1344" d="M-355.7,179.938a11.223,11.223,0,0,0,8.265,6.625c.914.17,1.306-1.229.385-1.4a9.911,9.911,0,0,1-7.4-5.956C-354.815,178.349-356.066,179.087-355.7,179.938Z" transform="translate(56.508 66.833)"/>
    <path id="Trazado_1345" data-name="Trazado 1345" d="M-138.892,306.856a79.089,79.089,0,0,0,8.345,4.355,79.717,79.717,0,0,0,18.846,5.768c.956,1.724,2.348,4.238,4.018,7.277,4.467,8.135,7.911,14.556,8.809,16.236,7.408,13.872,17.759,35.388,19.319,38.637a9.972,9.972,0,0,1-5.7,1.108c-2.89-.36-4.821-2.09-6.4-3.563-7.584-7.066-9.816-10.033-9.816-10.033-5.113-6.8-10.126-12.813-20.152-24.849-2.541-3.05-4.64-5.482-5.91-6.94l-16.227-1.48q2.435-13.258,4.872-26.516" transform="translate(163.784 131.618)"/>
    <path id="Trazado_1346" data-name="Trazado 1346" d="M-68.2,266.2c-10.434.4-18.742.366-22.18.336-4.56-.039-11.065-.161-39.774-1.657-13.72-.714-16.084-.887-22.542-1.075-10.882-.319-20.9-.321-32.787,1.977-7.729,1.5-11.58,3.06-15.039,5.825a23.248,23.248,0,0,0-8.407,12.771c-.258,1.145-.8,4,.105,9.7a55.9,55.9,0,0,0,7.67,20.319c3.6,5.885,8.236,11.453,15.935,18.093,4.388,3.783,14.431,11.932,35.119,22.018a275.727,275.727,0,0,0,40.479,15.89,84.715,84.715,0,0,1-.949-10.09c-.324-9.55,1.05-16.806,2.342-23.409a146.2,146.2,0,0,1,4.974-18.727q-5.121-2.928-10.242-5.852a199.986,199.986,0,0,0,25.17,2.825c14.917.72,25.625-.446,38.268-1.822,10.086-1.1,15.184-1.682,17.911-3.345,14.156-8.628,18.741-35.427,9.364-44.185-5.221-4.878-11.28-.9-45.417.408" transform="translate(130.609 109.646)" fill="#fff"/>
    <g id="Grupo_492" data-name="Grupo 492" transform="translate(17.112 421.97)">
      <g id="Grupo_491-2" data-name="Grupo 491" clip-path="url(#clip-path)">
        <rect id="Rectngulo_141" data-name="Rectngulo 141" width="37.565" height="26.099" transform="translate(0 -0.001)" fill="#f0f0f0"/>
      </g>
    </g>
    <path id="Trazado_1348" data-name="Trazado 1348" d="M-178.369,278.812a1.763,1.763,0,0,0-1.486.572c-2.952,3.794,14.325,24.077,33.763,38.033a135.737,135.737,0,0,0,22.822,13.224c.1-.51.2-1.017.3-1.52.224-1.149.48-2.383.773-3.693a.816.816,0,0,1-.372-.221q-.228-.122-.42-.217l.227-.092a.587.587,0,0,1,.337-.771l.584-.265c.923-3.935,2.161-8.48,3.845-13.468l-4.922-2.813q-3.246-1.08-6.491-2.163,1.687.19,3.336.361l-2.166-1.238a200,200,0,0,0,25.17,2.825c3.142.152,6.1.22,8.923.22,1.179,0,2.334-.012,3.473-.035q2.842-1.7,5.646-3.462c6.541-4.11,12.867-8.51,19.077-13.072a192.979,192.979,0,0,1-31.271,2.989c-2.425.032-5.007.066-7.742.066-14.955,0-34.375-1.038-56.341-9.138-8.3-3.06-14.236-6.123-17.06-6.123" transform="translate(145.355 117.428)" fill="#f0f0f0"/>
    <path id="Trazado_1349" data-name="Trazado 1349" d="M-73.6,265.5c-21.021,1.047-41.858-.393-62.834-1.6-10.485-.6-21-1.008-31.5-.584-9.083.367-18.613,1.184-27.072,4.76-6.959,2.943-12.878,8.12-14.316,15.833-1.5,8.036.8,16.769,4.092,24.084,7.361,16.369,21.7,28.036,36.7,37.15,18.355,11.146,38.149,20.545,58.941,26.1a.727.727,0,0,0,.387-1.4c-17.852-4.765-34.73-12.443-50.823-21.437-15.322-8.563-30.574-18.72-40.061-33.885-4.437-7.089-7.592-15.214-8.142-23.614-.3-4.634.333-9.39,2.988-13.309a22.957,22.957,0,0,1,9.151-7.441c8.2-4,17.787-4.9,26.775-5.324,9.682-.461,19.385-.19,29.06.313,22.259,1.155,44.346,2.917,66.651,1.806.931-.045.935-1.5,0-1.452" transform="translate(130.376 109.502)"/>
    <path id="Trazado_1350" data-name="Trazado 1350" d="M-180.094,280.068A323.461,323.461,0,0,0-117.3,310.232c.883.313,1.262-1.089.387-1.4a321.634,321.634,0,0,1-62.447-30.019C-180.158,278.32-180.886,279.576-180.094,280.068Z" transform="translate(145.228 117.371)"/>
    <path id="Trazado_1351" data-name="Trazado 1351" d="M-136.154,299.037a122.7,122.7,0,0,0-7.292,52.944c.077.925,1.529.934,1.452,0a121.7,121.7,0,0,1,7.241-52.558C-134.427,298.546-135.83,298.166-136.154,299.037Z" transform="translate(163.733 127.412)"/>
    <path id="Trazado_1352" data-name="Trazado 1352" d="M-140.8,307.613c2.994,2.974,8.134,4.434,12.035,5.821a89.142,89.142,0,0,0,15.22,3.9c.914.152,1.307-1.247.386-1.4a89.4,89.4,0,0,1-13.566-3.331c-2.428-.809-4.822-1.721-7.167-2.745-2.009-.876-4.3-1.7-5.879-3.271A.727.727,0,0,0-140.8,307.613Z" transform="translate(165.176 131.374)"/>
    <path id="Trazado_1353" data-name="Trazado 1353" d="M-122.858,314.187q16.69,30.083,32.256,60.772c.423.833,1.676.1,1.255-.733q-15.565-30.682-32.256-60.771c-.453-.818-1.708-.087-1.255.732" transform="translate(174.314 134.776)"/>
    <path id="Trazado_1354" data-name="Trazado 1354" d="M-143.1,324.79c3.887.517,7.774,1.024,11.661,1.55,1.655.223,3.224.357,4.526,1.533a15.776,15.776,0,0,1,1.789,2.157c1.038,1.355,2.066,2.717,3.1,4.077,4.422,5.836,8.833,11.687,13.527,17.307a140.977,140.977,0,0,0,15.291,15.929c3.73,3.262,9.316,8.135,14.179,3.964.709-.61-.321-1.633-1.027-1.027-3.622,3.107-8.006-.461-10.836-2.852-2.7-2.286-5.286-4.714-7.765-7.241A192.22,192.22,0,0,1-112.3,344.418c-4.282-5.437-8.226-11.178-12.634-16.509-1.8-2.178-3.785-2.661-6.5-3.023l-11.661-1.548c-.923-.122-.914,1.331,0,1.452" transform="translate(163.772 139.955)"/>
    <path id="Trazado_1355" data-name="Trazado 1355" d="M-144.87,298.1a228.614,228.614,0,0,0,79.346-2.5c.914-.191.527-1.592-.387-1.4a226.5,226.5,0,0,1-78.573,2.5C-145.4,296.57-145.793,297.97-144.87,298.1Z" transform="translate(162.958 125.204)"/>
    <path id="Trazado_1356" data-name="Trazado 1356" d="M-144.862,171.851c.188-2.812.325-6.372.241-10.492-.1-4.876-.383-4.27-.84-11.9-.455-7.59-.322-10.643-2.208-11.556a3.057,3.057,0,0,0-2.807.178c-.514.324-1.262,1.072-1.925,6.462-.389,3.167-.2,3.52-.736,4.164-1.369,1.66-3.443.361-6.006,2.1-1.479,1-1.015,1.589-3.16,3.729-2.229,2.226-2.9,1.76-4.337,3.47a9.334,9.334,0,0,0-2.092,6.75c.1.691.384,2.745,1.685,3.28a2.228,2.228,0,0,0,1.748-.172c.526-.212,1.009-.423,1.452-.187.946.5.583,2.443.434,6.107-.17,4.122-.239,6.285.623,8.414a10.4,10.4,0,0,0,3.342,4.264c.286,1.646.684,4.164,1,7.25,1.119,10.751.026,16,.012,23.381-.023,11.929,2.792,21.156,4.639,27.206a104.863,104.863,0,0,0,8.059,19.278,33.11,33.11,0,0,0,11.608-1.206c5.22-1.526,8.405-3.923,14.84-8.9,11.8-9.119,17.751-13.729,20.174-16.2,9.649-9.84,11.039-15.208,11.486-17.729.343-1.934,1.483-8.343-1.947-10.959-2.836-2.161-7.363-.637-9.254,0-3.642,1.227-5.526,3.142-8.766,5.845-6.1,5.089-6.4,4.125-12.176,8.766a92.763,92.763,0,0,0-13.881,13.881c-.358-1.809-.932-4.617-1.7-8.036-1.515-6.708-2.694-10.873-3.41-13.637-2.182-8.432-3-15.281-4.626-28.979-.45-3.791-.986-8.745-1.471-14.581" transform="translate(151.115 45.996)" fill="#fff"/>
    <path id="Trazado_1357" data-name="Trazado 1357" d="M-111.039,211.62q-.849.569-1.762,1.191a145.761,145.761,0,0,0-18.021,13.881,112.2,112.2,0,0,0-9.741,10.227c-.447-2.783-1.2-6.941-2.435-11.932-.947-3.827-1.565-5.655-2.154-7.507.712,2.684,1.694,6.384,2.884,11.647.773,3.419,1.346,6.227,1.7,8.036a92.763,92.763,0,0,1,13.881-13.881c5.776-4.642,6.075-3.678,12.176-8.766,1.309-1.092,2.4-2.054,3.467-2.9m5.3-3.435c-.655.411-1.41.89-2.251,1.432a16.324,16.324,0,0,1,2.251-.946l.11-.036.045-.423-.155-.027M-150.5,184.813q.1.883.2,1.7c1.1,9.26,1.831,15.39,2.863,21a137.958,137.958,0,0,0-1.646-14.178c-.611-3.69-1.071-6.45-1.416-8.517m-2.008-37.686c.041.748.084,1.553.136,2.414.458,7.628.741,7.021.84,11.9,0,.224.009.449.012.67.559-2.98.64-7.572-.988-14.982m-2.632-9.638.027.31.077.02-.1-.33" transform="translate(158.027 45.916)" fill="#efefef"/>
    <path id="Trazado_1358" data-name="Trazado 1358" d="M-152.728,137.694a56.639,56.639,0,0,1-.545,14.132,56.794,56.794,0,0,1-5.845,17.29,9.576,9.576,0,0,0-.486,5.845,10.038,10.038,0,0,0,5.113,6.331q2.345,12.172,4.628,24.352,3.989,21.293,7.792,42.616,6.745-5.959,13.637-11.932,12.312-10.669,24.527-20.89.282-3.37.666-6.908l-.11.036a16.324,16.324,0,0,0-2.251.946c-.919.595-1.941,1.264-3.048,2-1.071.842-2.158,1.8-3.467,2.9-6.1,5.089-6.4,4.125-12.176,8.766a92.764,92.764,0,0,0-13.881,13.881c-.358-1.809-.932-4.617-1.7-8.036-1.19-5.264-2.172-8.964-2.884-11.647-.4-1.255-.786-2.52-1.256-4.425a39.978,39.978,0,0,1-1.033-5.548c-1.032-5.605-1.762-11.735-2.863-21q-.1-.816-.2-1.7c-.943-5.664-1.018-6.095-1.018-6.095a48.516,48.516,0,0,1-.73-5.113,40.889,40.889,0,0,1,.727-11.486V162c0-.221-.008-.446-.012-.67-.1-4.876-.383-4.27-.84-11.9-.051-.861-.095-1.666-.136-2.414-.595-2.706-1.417-5.791-2.529-9.309l-.077-.02" transform="translate(155.64 46.021)" fill="#efefef"/>
    <path id="Trazado_1359" data-name="Trazado 1359" d="M-107.158,182.805a179.778,179.778,0,0,0-38.614,30.278c-.648.673.378,1.7,1.027,1.026a178.343,178.343,0,0,1,38.32-30.049A.727.727,0,0,0-107.158,182.805Z" transform="translate(162.664 68.794)"/>
    <path id="Trazado_1360" data-name="Trazado 1360" d="M-141.938,226.517c1.322-4.337.679-8.712-.468-13.013-1.354-5.083-2.9-10.1-4.089-15.226a202.822,202.822,0,0,1-4.717-31.622c-.065-.926-1.518-.934-1.452,0a205.49,205.49,0,0,0,4.154,29.268c1.06,4.878,2.312,9.708,3.714,14.5,1.5,5.135,3.075,10.4,1.459,15.708C-143.612,227.026-142.21,227.409-141.938,226.517Z" transform="translate(159.28 60.323)"/>
    <path id="Trazado_1361" data-name="Trazado 1361" d="M-147.46,170c-.828-3.982-2.822-13.253-8.8-11.95-2.006.437-3.926,2.286-3.773,4.468.209,2.992,3.208,2.038,4.8,3.62a.726.726,0,0,0,1.026-1.027c-.815-.813-1.643-.818-2.634-1.241-3.741-1.6.351-5.708,3.253-3.983,3.122,1.854,4.062,7.282,4.729,10.5C-148.669,171.3-147.27,170.915-147.46,170Z" transform="translate(155.55 56.259)"/>
    <path id="Trazado_1362" data-name="Trazado 1362" d="M-149.7,174.53a120.956,120.956,0,0,0-1.895-33.967c-.255-1.253-.476-2.922-1.831-3.483a2.718,2.718,0,0,0-3.233,1.276c-1.075,1.664-1.084,4.194-1.276,6.116a52.866,52.866,0,0,0-.063,9.187c.069.926,1.523.934,1.452,0a54.276,54.276,0,0,1-.131-6.434c.087-2-.083-5.074.782-6.836l.163-.619q2.438-1.554,2.556.282a8.923,8.923,0,0,1,.527,2.7q.644,3.513,1.075,7.06a122.491,122.491,0,0,1,.423,24.718C-151.225,175.461-149.772,175.456-149.7,174.53Z" transform="translate(156.499 45.624)"/>
    <path id="Trazado_1363" data-name="Trazado 1363" d="M-155.823,145.046c-1.1-2.413-4.092.756-4.84,1.872a10.6,10.6,0,0,0-.753,9.772c.7,1.782,2.4,4.206,4.569,2.812,2.792-1.8,2.453-7.661,2.139-10.414-.105-.917-1.559-.928-1.452,0a19.449,19.449,0,0,1-.134,5.889,5.962,5.962,0,0,1-.627,2.22c-1.166,1.658-2.562.336-3.105-.989a9.643,9.643,0,0,1-.533-6.013,8.072,8.072,0,0,1,1.149-2.544c.241-.348,2.062-2.467,2.334-1.872C-156.689,146.627-155.438,145.889-155.823,145.046Z" transform="translate(154.427 49.293)"/>
    <path id="Trazado_1364" data-name="Trazado 1364" d="M-158.317,145.468c-5.214.239-7.51,5.375-6.825,10.033.285,1.935.956,3.91,3.093,4.381a3.539,3.539,0,0,0,4.185-2.943c.208-.91-1.191-1.3-1.4-.386-.962,4.215-4.089.953-4.425-1.06a9.821,9.821,0,0,1,.053-3.768,5.793,5.793,0,0,1,5.318-4.8C-157.388,146.878-157.382,145.426-158.317,145.468Z" transform="translate(152.907 49.954)"/>
    <path id="Trazado_1365" data-name="Trazado 1365" d="M-162.711,148.41c-3.3,1-6.325,4.425-5.541,8.093a3.78,3.78,0,0,0,7.032,1.032.727.727,0,0,0-1.255-.733,2.325,2.325,0,0,1-4.066.206,4.036,4.036,0,0,1-.029-3.3,6.363,6.363,0,0,1,4.245-3.893A.727.727,0,0,0-162.711,148.41Z" transform="translate(151.33 51.425)"/>
    <path id="Trazado_1366" data-name="Trazado 1366" d="M-167.628,152.386c-1.607,2.2-2.637,6.489-.209,8.551a2.8,2.8,0,0,0,3.239.23c1.425-.8,1.983-2.349,2.444-3.824.28-.895-1.122-1.277-1.4-.387a5.672,5.672,0,0,1-1.238,2.5c-1.188,1.17-2.474.416-2.836-1.012a6.451,6.451,0,0,1,1.252-5.325C-165.822,152.363-167.081,151.637-167.628,152.386Z" transform="translate(150.873 53.295)"/>
    <path id="Trazado_1367" data-name="Trazado 1367" d="M-166.342,157.7c2.818,6.107-2.155,16.135,5.872,19.513.86.361,1.235-1.042.386-1.4-4.233-1.78-4-6.91-3.848-10.729a16.985,16.985,0,0,0-1.157-8.117C-165.479,156.118-166.732,156.854-166.342,157.7Z" transform="translate(152.322 55.582)"/>
    <path id="Trazado_1368" data-name="Trazado 1368" d="M-163.047,170.493c1.661,6.655.78,13.492.706,20.26a134.738,134.738,0,0,0,1.229,19.521A136.2,136.2,0,0,0-150.89,246.5c.372.855,1.623.116,1.253-.732A134.337,134.337,0,0,1-160,207.627a132.861,132.861,0,0,1-.861-18.653c.155-6.325.762-12.653-.791-18.866A.726.726,0,0,0-163.047,170.493Z" transform="translate(154.015 62.161)"/>
    <path id="Trazado_1369" data-name="Trazado 1369" d="M-154.186,237.111c13.744,3.12,25.834-7.964,35.783-15.8,5.833-4.593,11.565-9.339,17.072-14.319,4.907-4.438,9.492-9.235,12.739-15.044.456-.818-.8-1.55-1.255-.733-3.051,5.462-7.313,10-11.9,14.2-5,4.569-10.215,8.914-15.5,13.143a191.21,191.21,0,0,1-16.479,12.265c-5.983,3.807-12.914,6.51-20.071,4.885C-154.71,235.5-155.1,236.9-154.186,237.111Z" transform="translate(158.247 72.925)"/>
    <path id="Trazado_1370" data-name="Trazado 1370" d="M-149.307,130.144a5.788,5.788,0,0,0,.533-3.086c-.279-2.245-2.014-3.565-3.3-4.916-1.992-2.089-2.639-4.14-4.3-8.1-.883-2.1-3.744-8.925-.745-15.631a16.237,16.237,0,0,1,7.393-7.672c1.321-.658,6.453-3.215,11.438-.955,4.132,1.873,5.672,5.928,6.977,9.369a24.916,24.916,0,0,1,.938,14.175,19.288,19.288,0,0,1-2.878,7.053c-1.3,1.884-2.319,2.517-3.357,4.446A13.36,13.36,0,0,0-138.134,131q1.383.023,2.765.047-.167,1.934-.336,3.869c-2.077-.506-2.846-.245-3.126.155-.508.723.617,1.864.133,2.91-.146.315-.574.916-3.2,1.286-2.435.343-6.119.864-7.16-.872-.577-.964.139-1.831-.566-2.791a3.641,3.641,0,0,0-2.979-1.065c-.931-2.559-.776-3.416-.407-3.687.345-.251.821.047,1.842-.072A4.841,4.841,0,0,0-149.307,130.144Z" transform="translate(156.35 21.317)" fill="#fff"/>
    <path id="Trazado_1371" data-name="Trazado 1371" d="M-147.6,121.512l-.339-15.623a.726.726,0,0,0-1.452,0l.339,15.623A.726.726,0,0,0-147.6,121.512Z" transform="translate(160.935 29.572)"/>
    <path id="Trazado_1372" data-name="Trazado 1372" d="M-153.053,102.44q2.722,3.221,5.694,6.208a.734.734,0,0,0,1.027,0l4.2-4.483c.785-.839,2.1-1.783,2.506-2.9.178-.494-.276-.863-.7-.919l-.072-.009a.723.723,0,0,0-.7.533l-.012.054c-.194.911,1.2,1.3,1.4.386l.011-.054-.7.533.072.009-.7-.919c-.369,1.023-2.327,2.465-3.1,3.291q-1.615,1.724-3.229,3.45h1.027q-2.977-2.991-5.694-6.209C-152.63,100.7-153.652,101.729-153.053,102.44Z" transform="translate(158.992 27.117)"/>
    <path id="Trazado_1373" data-name="Trazado 1373" d="M-148.049,109.049q.276-5.5.387-11.013a.726.726,0,0,0-1.452,0q-.111,5.51-.389,11.013C-149.549,109.983-148.1,109.981-148.049,109.049Z" transform="translate(160.88 25.598)"/>
    <path id="Trazado_1374" data-name="Trazado 1374" d="M-172.332,92.34c4.432,1.151,8.634,3.922,12.679,6.018.828.428,1.563-.824.733-1.255-4.19-2.17-8.428-4.97-13.027-6.164A.727.727,0,0,0-172.332,92.34Z" transform="translate(149.068 22.349)"/>
    <path id="Trazado_1375" data-name="Trazado 1375" d="M-155.356,92.056l-5.744-6.763c-.605-.714-1.628.318-1.026,1.026l5.744,6.763C-155.776,93.8-154.753,92.764-155.356,92.056Z" transform="translate(154.4 19.383)"/>
    <path id="Trazado_1376" data-name="Trazado 1376" d="M-146.175,89.971a109.246,109.246,0,0,1,1.831-13.931c.179-.913-1.218-1.3-1.4-.386a112.516,112.516,0,0,0-1.883,14.316C-147.688,90.9-146.236,90.9-146.175,89.971Z" transform="translate(161.829 14.363)"/>
    <path id="Trazado_1377" data-name="Trazado 1377" d="M-135.065,93.935q4.8-4.247,9.779-8.3c.724-.59-.309-1.611-1.027-1.026q-4.974,4.048-9.777,8.3C-136.792,93.528-135.762,94.552-135.065,93.935Z" transform="translate(167.549 19.071)"/>
    <path id="Trazado_1378" data-name="Trazado 1378" d="M-131.064,102.151q5.946-2.09,11.809-4.39c.86-.337.486-1.742-.386-1.4q-5.864,2.3-11.809,4.39C-132.326,101.058-131.95,102.462-131.064,102.151Z" transform="translate(169.763 25.079)"/>
    <path id="Trazado_1379" data-name="Trazado 1379" d="M-168.828,108.052l7.467-2.48c.883-.292.5-1.7-.386-1.4l-7.467,2.479C-170.1,106.945-169.718,108.347-168.828,108.052Z" transform="translate(150.653 29.038)"/>
    <path id="Trazado_1380" data-name="Trazado 1380" d="M-155.214,117.34c.883,1.227-.354,2.861.711,4.125a3.583,3.583,0,0,0,2.723,1c4.764.218,9.738-.465,14.5-.7.931-.047.935-1.5,0-1.452l-11.6.574c-1.807.089-4.313.813-4.687-1.607-.172-1.113.331-1.664-.393-2.67C-154.5,115.857-155.76,116.58-155.214,117.34Z" transform="translate(157.923 35.191)"/>
    <path id="Trazado_1381" data-name="Trazado 1381" d="M-153.837,117.661l16.486.276-.726-.726a8.159,8.159,0,0,1-.105,2.843c-.187.913,1.214,1.3,1.4.386a9.851,9.851,0,0,0,.157-3.229.743.743,0,0,0-.726-.726q-8.243-.14-16.486-.277A.727.727,0,0,0-153.837,117.661Z" transform="translate(158.332 35.148)"/>
    <path id="Trazado_1382" data-name="Trazado 1382" d="M-152.586,119.953a2.693,2.693,0,0,0,.315,3.431c1.345,1.45,3.727,1.22,5.5,1.158,1.69-.059,4.035.081,5.41-1.116a2.579,2.579,0,0,0,.526-3.428c-.515-.774-1.773-.048-1.253.733,1.554,2.336-3.977,2.333-4.682,2.358-1.13.041-6.369.187-4.563-2.405C-150.8,119.916-152.054,119.191-152.586,119.953Z" transform="translate(159.079 36.88)"/>
    <path id="Trazado_1383" data-name="Trazado 1383" d="M-148.412,130.468c.86-3.962-2.033-7.137-3.932-10.331-2.334-3.926-4.392-8.2-4.922-12.789a16.746,16.746,0,0,1,2.721-11.7c2.869-3.929,7.855-5.47,12.548-5.541,9.638-.145,11.455,11.7,11.431,19.159-.015,5.2-1.7,9.095-4.857,13.131-2.125,2.712-3.9,5.61-3.157,9.169.191.914,1.59.527,1.4-.387-.965-4.642,3.256-7.759,5.423-11.3a19.644,19.644,0,0,0,2.617-9.4c.265-5.851-.623-13.388-4.437-18.108-3.97-4.916-11.286-4.349-16.574-2.006-5.837,2.586-8.73,8.687-8.693,14.866a26.607,26.607,0,0,0,2.666,10.785,53.816,53.816,0,0,0,3.239,5.947c1.5,2.432,3.785,5.08,3.123,8.123C-150.011,130.992-148.611,131.382-148.412,130.468Z" transform="translate(156.155 21.185)"/>
    <path id="Trazado_1384" data-name="Trazado 1384" d="M-121.492,187.891a76.8,76.8,0,0,1,37.835-13.467,77.79,77.79,0,0,1,48.069,12.685,245.492,245.492,0,0,1,1.22,29.823c-.465,23.509-4.068,34.322-5.34,55.079a228.837,228.837,0,0,0,1.669,44.4A101.552,101.552,0,0,1-78.1,321.417a101.472,101.472,0,0,1-35.384-9.346c-.387-7.071-1.13-17.751-2.67-30.712-1.815-15.275-3.744-25.348-4.673-31.045-2.251-13.794-3.928-34.311-.667-62.423" transform="translate(174.132 64.502)" fill="#7651ee"/>
    <path id="Trazado_1385" data-name="Trazado 1385" d="M-119.521,315.446c-3.66,1.449-6.724,2.477-8.866,3.155-9.2,2.908-12.989,2.991-17.236,6.464-.952.779-2.286,2.02-4.791,5.712-3.8,5.6-6.346,11.021-10.105,20.959a212.777,212.777,0,0,0-8.813,27.1c-1.2,4.922-2.027,9.135-2.581,12.287a47.909,47.909,0,0,0,9.211-5.462c10.206-7.726,12.855-16.316,23.437-31.82,2.169-3.178,5.539-7.92,10.069-13.494a33.24,33.24,0,0,1,11.822-5.4,32.986,32.986,0,0,1,9.172-.824q-.614-2.458-1.227-4.916Z" transform="translate(149.54 135.965)"/>
    <path id="Trazado_1386" data-name="Trazado 1386" d="M-142.21,336.272a21.437,21.437,0,0,1,2.646,1.571c4.6,3.2,6.684,7.355,8.175,10.2,6.825,13.047,8.187,12.018,12.491,22.244,1.785,4.242,3,7.869,3.786,10.408,2.994-1.167,7.425-2.974,12.67-5.428,12.286-5.748,21.164-11.361,48.448-30.9,22.851-16.363,4.02-3.4,39.189-29.962A93.7,93.7,0,0,0,3.414,295.67c5.42-7.379,7.044-11.9,7.569-16.215.334-2.738,1.2-9.809-3.351-15.7a18.6,18.6,0,0,0-8.572-6c-4.02-1.48-9.465-2.1-18.943.892-9.626,3.044-16.37,7.6-28.574,16.712-9.441,7.053-15.217,11.656-20.084,15.446-15.956,12.426-29.449,22.932-46.722,32.607a231.731,231.731,0,0,1-26.947,12.864" transform="translate(164.571 106.146)" fill="#fff"/>
    <path id="Trazado_1387" data-name="Trazado 1387" d="M-128.382,328.509c.842,1.679,1.676,3.464,2.486,5.352-.94-2.232-1.739-3.929-2.486-5.352" transform="translate(171.568 142.575)" fill="#1b1b1b"/>
    <path id="Trazado_1388" data-name="Trazado 1388" d="M.951,261.989A143.212,143.212,0,0,1-9.642,281.751c-19.8,30.855-46.6,46.25-63.49,55.7a224.1,224.1,0,0,1-56.179,22.033q.7,1.294,1.4,2.687c.747,1.423,1.547,3.12,2.486,5.352h0a98.95,98.95,0,0,1,3.574,9.715l.018-.008c24.185-9.164,45.278-24.429,65.779-39.881,9.6-7.233,19.278-14.378,28.732-21.8,8.849-6.944,17.506-14.462,24.065-23.683,5.94-8.351,10.744-20.593,4.209-29.878" transform="translate(171.098 108.915)" fill="#ececec"/>
    <path id="Trazado_1389" data-name="Trazado 1389" d="M-140.976,336.913A316.551,316.551,0,0,0-80.667,301c9.271-6.992,18.294-14.31,27.628-21.22,8.986-6.654,18.331-13.275,28.435-18.135,9.574-4.6,23.429-7.134,31.18,2.259s2.807,22.292-3.37,30.977c-6.559,9.221-15.215,16.739-24.065,23.683-9.453,7.42-19.135,14.565-28.732,21.8-20.5,15.452-41.594,30.717-65.779,39.881-.864.328-.489,1.733.387,1.4,22.412-8.492,42.219-22.155,61.305-36.409q15.26-11.4,30.394-22.967c9.048-6.944,17.983-14.25,25.134-23.206,6.354-7.958,12.027-18.007,9.51-28.54C9.013,260.7-.264,255.654-9.913,256.043c-11.361.458-21.858,7.452-31.054,13.5-9.992,6.569-19.418,13.944-28.846,21.287a421.791,421.791,0,0,1-34.5,24.795,310.557,310.557,0,0,1-37.4,20.038c-.851.384-.113,1.636.732,1.253" transform="translate(164.634 105.896)"/>
    <path id="Trazado_1390" data-name="Trazado 1390" d="M-142.326,310.334c4.006,1.7,6.628,6.015,9.083,9.422q3.6,4.986,6.729,10.283a136.206,136.206,0,0,1,10.882,23.155c.315.872,1.718.5,1.4-.386a138.171,138.171,0,0,0-11.462-24.23q-3.49-5.817-7.55-11.267c-2.322-3.116-4.652-6.663-8.349-8.23C-142.443,308.719-143.184,309.969-142.326,310.334Z" transform="translate(164.319 132.711)"/>
    <path id="Trazado_1391" data-name="Trazado 1391" d="M-119.475,315l-13.146,4.678c-3.986,1.419-8.273,2.563-12.071,4.44-3.161,1.56-4.876,4.321-6.535,7.31q-3.167,5.713-5.932,11.637a193.876,193.876,0,0,0-15.217,48.119c-.089.5.324,1.09.893.893,6.545-2.259,11.516-7.013,15.742-12.351,5.125-6.471,9.691-13.443,14.191-20.355,4.107-6.312,7.712-13.67,13.524-18.631a21.792,21.792,0,0,1,9.952-4.607c3.416-.737,6.822-1.325,9.717-3.414.75-.542.027-1.8-.733-1.255-3.108,2.245-6.824,2.664-10.459,3.509a21.454,21.454,0,0,0-8.413,3.854c-5.373,4.128-8.748,10.271-12.318,15.887-4.568,7.185-9.307,14.283-14.34,21.152-4.529,6.181-9.8,12.239-17.248,14.81l.893.895a192.478,192.478,0,0,1,14.34-46.192q2.44-5.347,5.206-10.538c1.905-3.574,3.663-7.581,7.468-9.47,3.952-1.959,8.45-3.128,12.6-4.6q6.133-2.185,12.268-4.366C-118.214,316.085-118.591,314.683-119.475,315Z" transform="translate(149.301 135.714)"/>
    <path id="Trazado_1392" data-name="Trazado 1392" d="M-160.335,221.238l18.637,93.671,73.564,3.925q-7.3-48.917-14.593-97.83l-77.608.235" transform="translate(155.399 88.176)" fill="#fff"/>
    <path id="Trazado_1393" data-name="Trazado 1393" d="M-160.038,221.483l-.712.142,18.637,93.672.11.553.563.03,73.564,3.923.889.048-.131-.88q-7.3-48.917-14.593-97.83l-.093-.622-.626,0-77.608.235-.883,0,.172.864.712-.142,0,.726,77.608-.235,0-.726-.718.107,14.593,97.83.718-.107.038-.726-73.563-3.923-.039.724.712-.142-18.637-93.671-.712.142,0,.726,0-.726" transform="translate(155.102 87.931)"/>
    <path id="Trazado_1394" data-name="Trazado 1394" d="M-102.025,221.486l-21.408.065a271.206,271.206,0,0,1,3.172,27.858q.4,6.51.486,12.757c.852.042,1.756.075,2.786.075,1.072,0,2.282-.036,3.714-.134a65.887,65.887,0,0,0,8.254-1.1,5.54,5.54,0,0,0-.767-3.779c-1.336-1.925-3.61-1.691-4.154-3.27a3.673,3.673,0,0,1,1.628-3.791,3.451,3.451,0,0,1,1.9-.511c2.491,0,5.605,1.965,7.673,3.273.47.3,1,.649,1.568,1.068q-2.424-16.256-4.849-32.515" transform="translate(174.072 88.42)" fill="#e5e5e5"/>
    <path id="Trazado_1395" data-name="Trazado 1395" d="M-101.359,221q-11.078.034-22.155.066c.042.242.083.483.122.726l21.408-.065q2.424,16.256,4.849,32.515c.268.2.545.407.828.633q-2.526-16.936-5.053-33.875" transform="translate(174.031 88.176)" fill="#1e1e1e"/>
    <path id="Trazado_1396" data-name="Trazado 1396" d="M-92.963,260.515q-.669.364-1.324.708a32.755,32.755,0,0,1-10.644,5.488,32.329,32.329,0,0,1-7.544,1.226,46.677,46.677,0,0,1-7.937,1.247c-.818,9.73-2.1,18.741-3.6,26.929l36.653,1.955q-2.8-18.777-5.6-37.552" transform="translate(173.777 108.169)" fill="#e5e5e5"/>
    <path id="Trazado_1397" data-name="Trazado 1397" d="M-92.24,260.266l-.678.375q2.8,18.777,5.6,37.552l-36.653-1.955c-.045.241-.089.48-.134.72q18.818,1,37.637,2.008-2.887-19.351-5.773-38.7" transform="translate(173.732 108.043)" fill="#1e1e1e"/>
    <path id="Trazado_1398" data-name="Trazado 1398" d="M-121.265,261.585c-.024.4-.048.8-.072,1.2,1.218-.536,2.259-.955,2.712-1.137q-1.389-.011-2.64-.06" transform="translate(175.133 108.711)" fill="#e5e5e5"/>
    <path id="Trazado_1399" data-name="Trazado 1399" d="M-44.62,185.143c-1.869,1.858-2.292,4.3-2.5,8.381a86.294,86.294,0,0,0,.943,18.313c1.738,9.336,2.235,18.86,3.446,28.278,1.383,10.741,2.017,16.211-.729,21.013a26.269,26.269,0,0,1-7.1,7.593,31.831,31.831,0,0,1-10.94,5.007c-5.791,1.66-13.914,3.764-24.128,5.75a28.374,28.374,0,0,0-7.447-6.884c-2.643-1.669-6.992-4.414-9.569-2.762a3.673,3.673,0,0,0-1.628,3.791c.544,1.578,2.818,1.345,4.154,3.27a5.54,5.54,0,0,1,.767,3.779,65.887,65.887,0,0,1-8.254,1.1,53.775,53.775,0,0,1-7.5,0,44.147,44.147,0,0,0-6.649,0c-5.6.44-12.845,2.044-12.863,3.776-.011,1.242,3.774,2.241,4.833,2.52,2.958.782,4.507.375,8.587.613,3.258.191,7,.726,7,1.125-.011.893-18.842-.443-19.783,4.057-.271,1.292.968,2.623,1.818,3.536.979,1.053,3.12,2.86,12.536,3.791,1.947.193,4.583.386,7.73.408q-4.186,2.105-8.373,4.212a2.342,2.342,0,0,0,.271,1.3c1.584,2.8,9.651.973,13.336.139a73.734,73.734,0,0,0,20.059-7.87c7.307-.271,13.3-.867,17.467-1.369,17.434-2.105,26.336-5.41,31.79-7.887,6.018-2.735,9-4.991,11.209-8.089.675-.943,2.381-3.514,4.2-11.366A90.677,90.677,0,0,0-19.679,254.6c.179-3.758.351-10.2-.768-25.208-1.672-22.459-2.524-14.351-3.827-29.2a24.735,24.735,0,0,0-4.036-12.025,11.94,11.94,0,0,0-4.73-4.482c-3.655-1.744-8.738-1.369-11.58,1.459" transform="translate(168.41 68.758)" fill="#fff"/>
    <path id="Trazado_1400" data-name="Trazado 1400" d="M-61.844,282.507a25.208,25.208,0,0,1-6.148,4.259l0,.054a23.543,23.543,0,0,0,6.146-4.313m6.637-15.73c-.139.663-.286,1.34-.447,2.03-1.824,7.852-3.53,10.423-4.2,11.366.95-1.3,2.827-4.188,4.652-13.4m1.438-33.5c.5,8.089.55,13.057.48,16.408.063-1.761.093-3.583.095-5.489,0-2.429-.19-5.816-.575-10.919m-4.111-33.748c1,10.622,1.744,8.158,2.842,18.11-.944-11.337-.14-.122-2.842-18.11m-4.145-13.229h0a22.727,22.727,0,0,1,3.083,6.622,16.677,16.677,0,0,0-3.083-6.622h0" transform="translate(202.126 70.618)" fill="#e3e3e3"/>
    <path id="Trazado_1401" data-name="Trazado 1401" d="M-62.527,255.991c-5.628,2.2-14.153,4.7-28.284,6.4l-.991.116q1.322-.133,2.506-.273c7.729-.908,16.507-2,26.769-6.247m6.583-2.979c-.929.488-1.95.983-3.077,1.5l-.212.095c1.164-.506,2.259-1.009,3.291-1.536l0-.054" transform="translate(190.078 104.373)" fill="#d46b66"/>
    <path id="Trazado_1402" data-name="Trazado 1402" d="M-124.889,265.488c-.443.39-.679.749-.605,1.045.081.327.53.544,1.233.679a1.977,1.977,0,0,1-.355-.458,2.323,2.323,0,0,1-.273-1.267m5.663-3.108a27.712,27.712,0,0,0-5.571,3.029l5.556-2.794.015-.235" transform="translate(173.022 109.113)" fill="#e3e3e3"/>
    <path id="Trazado_1403" data-name="Trazado 1403" d="M-118.62,261.949c-.453.182-1.494.6-2.712,1.137l-.015.235,2.727-1.372h0m22.983-.964a72.787,72.787,0,0,1-17.75,6.614l-.438.1a32.327,32.327,0,0,0,7.544-1.226,32.754,32.754,0,0,0,10.644-5.488" transform="translate(175.128 108.407)" fill="#cfcfcf"/>
    <path id="Trazado_1404" data-name="Trazado 1404" d="M-40.2,182.807c.976,3.42,2.288,8.447,3.438,14.6.726,3.893,2.83,15.952,2.066,47.269-.482,19.735-1.5,22.462-3.1,25.054-4.306,6.982-11.309,9.994-25.313,16.015-11.632,5-19.321,8.307-30.479,10.074-5.128.812-13.015,1.619-23.135,5.687h0l-2.727,1.372L-125,305.673l-.092.08a2.323,2.323,0,0,0,.273,1.267,1.977,1.977,0,0,0,.355.458,17.313,17.313,0,0,0,3.072.2c1.708,0,3.712-.105,5.613-.2,1.459-.077,2.72-.142,3.857-.22l.438-.1a72.787,72.787,0,0,0,17.75-6.614q1.035-.793,2.089-1.73c.355,0,.709,0,1.059,0a155.672,155.672,0,0,0,15.637-.783l.991-.116c14.131-1.708,22.656-4.2,28.284-6.4l.009,0c1.154-.477,2.247-.932,3.285-1.384l.212-.095c1.127-.512,2.148-1.008,3.077-1.5a25.209,25.209,0,0,0,6.148-4.259,19.672,19.672,0,0,0,1.985-2.334h0c.675-.943,2.381-3.514,4.2-11.366.161-.69.309-1.367.447-2.03l.008-.036a105.047,105.047,0,0,0,1.911-17.051c.069-3.351.018-8.319-.48-16.408-.3-4.021-.726-9.108-1.27-15.632v-.006c-1.1-9.952-1.843-7.488-2.842-18.11-.164-1.1-.343-2.307-.536-3.639-.122-.845-.267-1.857-.526-2.968a22.727,22.727,0,0,0-3.083-6.622h0a17.548,17.548,0,0,0-7.069-5.268" transform="translate(173.229 68.848)" fill="#e3e3e3"/>
    <path id="Trazado_1405" data-name="Trazado 1405" d="M-61.29,188.481c1.828-5.721,8.95-6.184,13.233-3.062,4.77,3.476,6.309,9.513,7.215,15.031,1.968,11.986,3.616,24.15,4.434,36.272.828,12.3.509,24.81-2.724,36.768-1.593,5.895-4,10.617-9.4,13.8a69.195,69.195,0,0,1-15.589,6.471c-12.488,3.672-25.575,4.577-38.528,4.765a.726.726,0,0,0,0,1.452c12.937-.187,26.021-1.093,38.509-4.7,5.943-1.715,12.119-3.976,17.345-7.348,4.885-3.154,7.274-7.706,8.825-13.179,3.747-13.224,3.913-27.162,2.815-40.771-.547-6.773-1.408-13.513-2.321-20.245-.9-6.66-1.334-13.762-3.444-20.176-1.685-5.117-5.316-10.3-10.926-11.435-4.526-.916-9.408,1.486-10.84,5.968C-62.975,188.987-61.574,189.369-61.29,188.481Z" transform="translate(184.232 68.406)"/>
    <path id="Trazado_1406" data-name="Trazado 1406" d="M-62.853,185.186c-2.381,7.4-1.485,15.5-.712,23.1.812,7.976,2.063,15.9,3,23.858.468,3.971.86,7.952,1.077,11.944.223,4.126.547,8.538-.166,12.631C-61,264.454-68.3,268.052-74.891,270.75a102.5,102.5,0,0,1-26.658,6.873c-.917.108-.928,1.562,0,1.452a104.287,104.287,0,0,0,23.7-5.625c6.062-2.233,13.078-4.84,17.048-10.242,4.379-5.958,3.092-14.982,2.587-21.881-.64-8.762-2.009-17.444-3.105-26.155-1.193-9.488-3.126-20.3-.133-29.6C-61.166,184.68-62.569,184.3-62.853,185.186Z" transform="translate(184.796 69.796)"/>
    <path id="Trazado_1407" data-name="Trazado 1407" d="M-94.783,249.931c-4.456-4.806-9.976-10.431-17.14-9.885-1.932.146-4.146,1.169-3.483,3.506a4.742,4.742,0,0,0,2.256,2.514c2.029,1.322,3.464,2.646,4.1,5.095a.727.727,0,0,0,1.4-.386,8.861,8.861,0,0,0-2.8-4.655c-.608-.517-2.741-1.389-2.98-2.044q.314-1.231.626-2.462l1.267-.145a10.754,10.754,0,0,1,2.22.158c5.679.916,9.777,5.312,13.5,9.331C-95.174,251.645-94.148,250.616-94.783,249.931Z" transform="translate(178.073 97.793)"/>
    <path id="Trazado_1408" data-name="Trazado 1408" d="M-99.3,247.28c-5.989,2.11-12.685.617-18.9.869a78.091,78.091,0,0,0-8.544.824c-2.22.337-5.477.41-7.315,1.917-2.867,2.355.742,4.782,3.108,5.1,6.331.848,12.94.724,19.319,1.063.935.05.932-1.4,0-1.452l-14.135-.75c-1.255-.066-2.517-.1-3.77-.2-.646-.051-5.81-.492-3.327-2.819.678-.636,2.441-.735,3.289-.9q1.6-.314,3.215-.557a76.605,76.605,0,0,1,14.658-.759c4.331.184,8.626.532,12.788-.934C-98.04,248.372-98.416,246.968-99.3,247.28Z" transform="translate(168.159 101.449)"/>
    <path id="Trazado_1409" data-name="Trazado 1409" d="M-112,253.239c-4.849.282-10.009.105-14.756,1.221a25.806,25.806,0,0,0-6.277,2.446c-.91.489-2.261,1.045-2.044,2.324.5,2.928,7.355,2.864,9.461,2.889,5.214.057,10.376-.9,15.6-.533.932.065.928-1.387,0-1.452a77.745,77.745,0,0,0-10.852.349c-3.334.232-8.158.848-11.253-.72-2.1-1.065-.967-1.2.187-1.8a25.254,25.254,0,0,1,2.825-1.27,22.551,22.551,0,0,1,5.538-1.3c3.834-.408,7.726-.485,11.575-.709C-111.073,254.636-111.067,253.184-112,253.239Z" transform="translate(168.167 104.486)"/>
    <path id="Trazado_1410" data-name="Trazado 1410" d="M-133.113,259.705a35.389,35.389,0,0,0,20.284,3.816c.919-.1.929-1.554,0-1.452a34.035,34.035,0,0,1-19.551-3.619C-133.208,258.021-133.945,259.274-133.113,259.705Z" transform="translate(168.989 107.08)"/>
    <path id="Trazado_1411" data-name="Trazado 1411" d="M-116.471,261.913c-3.654.842-7.626,2.02-9.414,5.625a.734.734,0,0,0,.259.994c2.56,1.149,5.176,1.035,7.926.9a96.1,96.1,0,0,0,10.783-.971c6.089-.991,11.956-3.208,16.444-7.556.672-.651-.355-1.678-1.027-1.026-4.08,3.952-9.373,6.02-14.893,7.026a76.6,76.6,0,0,1-9.458.98c-2.967.164-6.248.645-9.042-.61.087.331.173.663.261.994,1.62-3.267,5.262-4.2,8.547-4.958C-115.175,263.1-115.56,261.7-116.471,261.913Z" transform="translate(172.786 107.743)"/>
    <path id="Trazado_1412" data-name="Trazado 1412" d="M-120.419,147.27c-1.452,3.449-1.667,6.818-1.931,10.929a53.657,53.657,0,0,0,1.738,16.827c1.348,5.138,2.8,10.676,7.321,16.253a34.079,34.079,0,0,0,11.256,8.976c1.973-.568,4.111-1.277,6.367-2.17s4.282-1.828,6.1-2.76a19.988,19.988,0,0,0,2.273,8.435,19.937,19.937,0,0,0,4.81,5.967,24.416,24.416,0,0,0,4.828-2.711,25.181,25.181,0,0,0,7.575-8.873,74.6,74.6,0,0,1-1.682-9.51,74.931,74.931,0,0,1-.008-16.4,10.033,10.033,0,0,0,4.491-1.038c3.914-1.974,5.2-6.1,5.815-8.048a20.368,20.368,0,0,0,.087-10.893c-.476-2.191-2.126-9.8-8.676-15.423-8.185-7.033-18.415-6.16-22.815-5.785-9.294.794-23.012,5.438-27.552,16.221" transform="translate(174.574 42.533)" fill="#fff"/>
    <path id="Trazado_1413" data-name="Trazado 1413" d="M-88.441,169.9h-.2a74.931,74.931,0,0,0,.008,16.4q.145,1.294.324,2.532c-.265-2.346-.455-4.845-.53-7.48a89.463,89.463,0,0,1,.4-11.449m6.7-2.794a9.337,9.337,0,0,1-2.416,1.758q-.352.176-.7.316a7.369,7.369,0,0,0,3.114-2.074m3.907-8.345a17.443,17.443,0,0,1-.508,2.054,16.6,16.6,0,0,1-2.455,5.2,15.88,15.88,0,0,0,2.962-7.253m-8.093-23.351a28.216,28.216,0,0,1,7.673,14.512c.068.315.14.652.212,1.011-1.069-5.849-2.462-13.477-7.885-15.522" transform="translate(191.45 44.866)" fill="#ddd"/>
    <path id="Trazado_1414" data-name="Trazado 1414" d="M-87.381,175.78c-.343.639-.765,1.36-1.279,2.128l1.392-1.571c-.038-.184-.075-.37-.113-.557" transform="translate(191.667 65.292)" fill="#cf6d68"/>
    <path id="Trazado_1415" data-name="Trazado 1415" d="M-80.194,135.077a14.8,14.8,0,0,0-7.2,2.3,62.4,62.4,0,0,1,1.288,11.587A67.307,67.307,0,0,1-88.5,167.173c-4.123,14.794-13.254,25.138-17.593,29.558a43.646,43.646,0,0,0,10.967-5.964,43.777,43.777,0,0,0,10.292-10.913q1.008,11.008,2.014,22.016,1.491-1.683,2.982-3.367c.514-.768.935-1.489,1.279-2.128-.447-2.248-.846-4.715-1.149-7.376q-.178-1.236-.324-2.532a74.931,74.931,0,0,1-.008-16.4h.2c.021-.217.044-.431.066-.643a7.232,7.232,0,0,0,1.651.194,6.465,6.465,0,0,0,1.861-.268l.011,0q.346-.14.7-.316a9.337,9.337,0,0,0,2.416-1.758c.136-.139.273-.288.411-.444q.282-.321.533-.648a16.6,16.6,0,0,0,2.455-5.2,17.442,17.442,0,0,0,.508-2.054c.014-.077.026-.151.036-.22a21.9,21.9,0,0,0-.244-7.605v0c-.072-.358-.145-.7-.212-1.01a28.216,28.216,0,0,0-7.673-14.512l-.008,0a8.086,8.086,0,0,0-2.866-.5" transform="translate(182.846 44.696)" fill="#ddd"/>
    <path id="Trazado_1416" data-name="Trazado 1416" d="M-121.609,164.011a20.2,20.2,0,0,1-1.721-12.586c1.6-7.191,7.485-11.006,13.519-16.024a116.723,116.723,0,0,0,20.687-22.589q-1.118,6.14-2.233,12.282c3.1-2.779,6.52-5.632,10.271-8.485q3.648-2.772,7.148-5.137a12.815,12.815,0,0,0-2.458,7.146,12.862,12.862,0,0,0,2.389,7.769c.682-.9,1.776-2.3,3.194-3.973,1.974-2.328,2.559-2.8,3.574-4.242,2.09-2.973,2.36-4.887,2.77-4.836.613.078.886,4.467-.313,21.807l6.8-7.754,1.233,16.967a37.538,37.538,0,0,1,.268,11.325,37.574,37.574,0,0,1-3.575,11.837,7.275,7.275,0,0,0-4.437-2.074c-2.318-.114-3.093,1.22-4.62,1.116-3.261-.221-3.75-6.679-7.727-11.766-3.908-5-9.583-6.589-13.176-7.592-3.331-.929-13.563-3.785-22.352,2.376C-119.124,154.312-121.076,161.6-121.609,164.011Z" transform="translate(173.927 32.752)" fill="#4a3288"/>
    <path id="Trazado_1417" data-name="Trazado 1417" d="M-120.82,141.616c-2.416,4.7-2.154,10.131-1.919,15.266a66.89,66.89,0,0,0,2.75,17.108c2.884,9.135,8.777,17.507,17.617,21.647.842.395,1.58-.857.733-1.253-8.513-3.988-14.166-11.979-16.95-20.78a63.414,63.414,0,0,1-2.631-15.4c-.31-5.2-.8-11.081,1.652-15.858C-119.141,141.519-120.393,140.784-120.82,141.616Z" transform="translate(174.349 47.82)"/>
    <path id="Trazado_1418" data-name="Trazado 1418" d="M-108.459,187.266a44.722,44.722,0,0,0,30.772-28.527c.3-.886-1.1-1.265-1.4-.386a43.219,43.219,0,0,1-29.76,27.512A.727.727,0,0,0-108.459,187.266Z" transform="translate(181.192 56.222)"/>
    <path id="Trazado_1419" data-name="Trazado 1419" d="M-88.766,164.583c3.39-.056,6.509-.479,8.485-3.524,1.813-2.794,4.16-7.047,3.8-10.491-.271-2.6-2.941-3.976-5.33-4.045a7.635,7.635,0,0,0-6.779,3.779.726.726,0,0,0,1.253.733,6.145,6.145,0,0,1,5.526-3.06,5.082,5.082,0,0,1,2.655.815c1.967,1.486,1.114,3.86.514,5.648a25.1,25.1,0,0,1-2.892,5.889c-1.736,2.56-4.389,2.759-7.23,2.806A.726.726,0,0,0-88.766,164.583Z" transform="translate(191.259 50.487)"/>
    <path id="Trazado_1420" data-name="Trazado 1420" d="M-88.946,158.121c-.566,8.958-1.027,18.009,1.446,26.745a.727.727,0,0,0,1.4-.387c-2.437-8.607-1.952-17.534-1.395-26.358C-87.434,157.187-88.888,157.19-88.946,158.121Z" transform="translate(191.296 56.003)"/>
    <path id="Trazado_1421" data-name="Trazado 1421" d="M-101.073,174.081a32.98,32.98,0,0,0,2.81,9.651c.792,1.688,2.063,5.4,4.363,5.416,2.474.015,5.25-2.369,6.958-3.925a96.366,96.366,0,0,0,7.113-7.777c.614-.7-.408-1.73-1.027-1.027-1.717,1.953-3.4,3.944-5.179,5.842s-4.107,4.39-6.72,5.078c-1.636.431-2.117-.462-2.9-1.789a30.891,30.891,0,0,1-1.7-3.3,31.86,31.86,0,0,1-2.321-8.553C-99.8,172.772-101.2,173.165-101.073,174.081Z" transform="translate(185.382 63.971)"/>
    <path id="Trazado_1422" data-name="Trazado 1422" d="M-112.033,140.317a262.352,262.352,0,0,0-.611,29.1c.024.669,1.026,1.053,1.354.366q2.04-4.283,4.081-8.566c.4-.839-.851-1.577-1.255-.733q-2.04,4.283-4.081,8.566l1.352.367a262.348,262.348,0,0,1,.611-29.1C-110.509,139.385-111.962,139.39-112.033,140.317Z" transform="translate(179.452 46.995)"/>
    <path id="Trazado_1423" data-name="Trazado 1423" d="M-108.38,170.1a2.819,2.819,0,0,1-1.137-3.6,6.1,6.1,0,0,1,2.259-1.934,10.748,10.748,0,0,0,2.361-1.911,15.931,15.931,0,0,0,1.836-3.169c1.1-2.134,3.4-4.872,5.86-2.55,2.949,2.786.333,9.16-2.092,11.58a8.183,8.183,0,0,1-9.312,1.458c-.836-.408-1.572.843-.732,1.253a9.608,9.608,0,0,0,11.562-2.238c2.785-3.318,5.372-10.56.929-13.637a4.2,4.2,0,0,0-5.2.265c-2.143,1.733-2.458,4.744-4.416,6.6-1.672,1.587-4.339,2.217-4.742,4.836a4.293,4.293,0,0,0,2.1,4.3C-108.322,171.856-107.593,170.6-108.38,170.1Z" transform="translate(180.233 54.56)"/>
    <path id="Trazado_1424" data-name="Trazado 1424" d="M-114.994,147.356c0,1.893-.471,3.428-1.054,3.428s-1.053-1.535-1.053-3.428.471-3.429,1.053-3.429S-114.994,145.462-114.994,147.356Z" transform="translate(177.276 49.174)"/>
    <path id="Trazado_1425" data-name="Trazado 1425" d="M-103.539,145.878c0,1.893-.471,3.428-1.053,3.428s-1.053-1.535-1.053-3.428.47-3.429,1.053-3.429S-103.539,143.984-103.539,145.878Z" transform="translate(183.073 48.427)"/>
  </g>
</svg>
