<svg xmlns="http://www.w3.org/2000/svg" xmlns:xlink="http://www.w3.org/1999/xlink" width="954.076" height="601.005" viewBox="0 0 954.076 601.005">
  <defs>
    <linearGradient id="linear-gradient" x1="0.5" x2="0.5" y2="1" gradientUnits="objectBoundingBox">
      <stop offset="0" stop-color="#fff"/>
      <stop offset="1" stop-color="#01fabe"/>
    </linearGradient>
  </defs>
  <path id="Trazado_1206" data-name="Trazado 1206" d="M2990.226-292.984A66.973,66.973,0,0,0,2950.232-306v-.019H2745.164a68.377,68.377,0,0,0-9.119.674A67.065,67.065,0,0,0,2691.552-279L2643.2-214.545l-68.6-91.474H2130.31a67.027,67.027,0,0,0-39.507,13.5,67.1,67.1,0,0,0-26.342,44.478,67.108,67.108,0,0,0,12.829,50.081l258.786,345.049L2436.216,13.57l207.122,281.415,361.481-493.553A67.642,67.642,0,0,0,2990.226-292.984Z" transform="translate(-2063.769 306.019)" fill="url(#linear-gradient)"/>
</svg>
