<svg xmlns="http://www.w3.org/2000/svg" width="616.678" height="466.759" viewBox="0 0 616.678 466.759">
  <g id="Grupo_499" data-name="Grupo 499" transform="translate(-29.059 -76.694)">
    <path id="Trazado_2068" data-name="Trazado 2068" d="M321.712,237.294a129.494,129.494,0,0,1-47.549,21.364c-16.54,3.662-33.622,3.9-50.424,2.2-34.231-3.467-67.125-14.318-100.969-20-19.364-3.253-39.147-4.74-58.667-1.961-.8.113-1.142-1.106-.337-1.221,33.9-4.829,67.691,3.006,100.558,10.657,33.248,7.741,67.732,16.021,102.012,10.531A128.665,128.665,0,0,0,321.072,236.2C321.734,235.722,322.368,236.82,321.712,237.294Z" transform="translate(19.647 91.43)" fill="#e8e8e8"/>
    <path id="Trazado_2069" data-name="Trazado 2069" d="M201.729,270.9a130.939,130.939,0,0,0-67.773-14.915c-23.729,1.275-46.613,9.646-70.494,9.221-11.892-.211-23.822-2.641-34.1-8.826A.634.634,0,0,1,30,255.291c20.334,12.233,45.077,9.1,67.26,4.948,11.912-2.228,23.822-4.751,35.946-5.473a131.733,131.733,0,0,1,69.163,15.045C203.09,270.19,202.45,271.286,201.729,270.9Z" transform="translate(0 102.018)" fill="#e8e8e8"/>
    <path id="Trazado_2070" data-name="Trazado 2070" d="M487.393,348.51c-22.561-10.732-48.288-7.023-71.482-.488-23.836,6.716-46.7,16.994-71.411,20.325-13.686,1.846-27.644,1.344-40.774-3.212-.766-.266-.436-1.49.337-1.223,25.03,8.683,51.706,2.266,76.054-5.586,23.106-7.451,46.035-16.669,70.585-17.8,12.833-.589,25.671,1.338,37.331,6.885C488.769,347.764,488.127,348.858,487.393,348.51Z" transform="translate(157.308 151.286)" fill="#e8e8e8"/>
    <path id="Trazado_2071" data-name="Trazado 2071" d="M410.365,373.905c-7.451,5.749-16.991,6.636-26.074,5.629-10.6-1.177-20.931-4.466-31.2-7.217-22.867-6.128-46.1-12.122-69.94-12.108a112.252,112.252,0,0,0-38.548,6.4c-.768.28-1.1-.944-.337-1.223,21.2-7.747,44.254-7.634,66.3-4.121,11.8,1.88,23.428,4.705,34.982,7.738,10.734,2.817,21.422,6.175,32.327,8.273,10.743,2.068,22.736,2.57,31.85-4.461C410.371,372.314,411,373.415,410.365,373.905Z" transform="translate(123.203 161.919)" fill="#e8e8e8"/>
    <path id="Trazado_2072" data-name="Trazado 2072" d="M476.381,97.718a45.585,45.585,0,0,1-24.653,14.44c-10.822,2.3-21.762,0-31.97-3.785-21.894-8.112-41.437-21.916-64.215-27.748-12.713-3.256-26.209-3.942-38.727.5-.77.274-1.1-.95-.337-1.221,21.167-7.514,43.785-.653,63.3,8.389,10.435,4.834,20.536,10.364,31.045,15.044,10.679,4.756,22.234,9.086,34.119,8.45a44.2,44.2,0,0,0,30.541-14.967C476.024,96.207,476.918,97.107,476.381,97.718Z" transform="translate(164.625)" fill="#e8e8e8"/>
    <path id="Trazado_2073" data-name="Trazado 2073" d="M379.592,94.172c-10.627-9.522-26.442-8.435-39.223-4.626-14.737,4.39-28.771,12.144-44.518,12.03-9.185-.066-18.15-2.452-26.841-5.226-.774-.249-.444-1.473.337-1.223,8.211,2.622,16.657,4.916,25.324,5.162,8.372.236,16.451-1.8,24.311-4.508C332.8,91.02,346.45,84.487,361.451,85.65c7.026.546,13.742,2.881,19.038,7.627C381.1,93.822,380.2,94.715,379.592,94.172Z" transform="translate(137.39 5.059)" fill="#e8e8e8"/>
    <path id="Trazado_2074" data-name="Trazado 2074" d="M467.647,291.341a37.726,37.726,0,0,0-22.182-12.159c-9.28-1.487-18.248,1.122-26.579,5.088-8,3.808-15.514,8.6-23.754,11.919a81.242,81.242,0,0,1-57.03,1.127c-.765-.269-.436-1.495.337-1.223a80.291,80.291,0,0,0,57.035-1.4c16-6.627,30.646-19.277,49.036-16.915a38.9,38.9,0,0,1,24.033,12.671C469.082,291.053,468.19,291.953,467.647,291.341Z" transform="translate(177.028 115.179)" fill="#e8e8e8"/>
    <path id="Trazado_2075" data-name="Trazado 2075" d="M397.066,309.97c.047-5.3-7.343-7.191-11.281-8.554a108.924,108.924,0,0,0-15.873-4.236,75.356,75.356,0,0,0-33.034.924c-19.488,5.165-36.651,17.253-56.912,19.8a71.034,71.034,0,0,1-34.65-4.383c-.751-.294-.425-1.52.337-1.223a70.15,70.15,0,0,0,33.188,4.471c11.011-1.209,21.326-5.39,31.4-9.777,9.475-4.128,18.953-8.5,29.079-10.793a77.842,77.842,0,0,1,32.466.055,108.317,108.317,0,0,1,18.74,5.555c3.588,1.429,7.849,3.764,7.81,8.162a.635.635,0,0,1-1.268,0" transform="translate(123.808 124.947)" fill="#e8e8e8"/>
    <path id="Trazado_2076" data-name="Trazado 2076" d="M375.1,157.153a3.3,3.3,0,1,0,3.3-3.3A3.3,3.3,0,0,0,375.1,157.153Z" transform="translate(198.501 44.259)" fill="#ec615b"/>
    <path id="Trazado_2077" data-name="Trazado 2077" d="M137.743,287.391a6.111,6.111,0,1,0,6.11-6.112A6.111,6.111,0,0,0,137.743,287.391Z" transform="translate(62.345 117.356)" fill="#f85fbf"/>
    <path id="Trazado_2078" data-name="Trazado 2078" d="M63.707,105.96a3.049,3.049,0,1,0,3.048-3.05A3.048,3.048,0,0,0,63.707,105.96Z" transform="translate(19.875 15.038)" fill="#f85fbf"/>
    <path id="Trazado_2079" data-name="Trazado 2079" d="M360.71,344.232a4.981,4.981,0,1,0,4.981-4.981A4.98,4.98,0,0,0,360.71,344.232Z" transform="translate(190.245 150.611)" fill="#f85fbf"/>
    <path id="Trazado_2080" data-name="Trazado 2080" d="M254.876,102.169a2.733,2.733,0,1,0,2.733-2.733A2.733,2.733,0,0,0,254.876,102.169Z" transform="translate(129.536 13.046)" fill="#f85fbf"/>
    <circle id="Elipse_34" data-name="Elipse 34" cx="0.451" cy="0.451" r="0.451" transform="translate(591.15 218.914)" fill="#5222d0"/>
    <path id="Trazado_2081" data-name="Trazado 2081" d="M112.105,300.023a2.958,2.958,0,1,0,2.957-2.957A2.958,2.958,0,0,0,112.105,300.023Z" transform="translate(47.638 126.412)" fill="#4a3288"/>
    <path id="Trazado_2082" data-name="Trazado 2082" d="M45.4,126.492a4.4,4.4,0,1,0,4.394-4.4A4.394,4.394,0,0,0,45.4,126.492Z" transform="translate(9.375 26.045)" fill="#4a3288"/>
    <path id="Trazado_2083" data-name="Trazado 2083" d="M361.419,317.372a1.932,1.932,0,1,0,1.932-1.932A1.933,1.933,0,0,0,361.419,317.372Z" transform="translate(190.652 136.952)" fill="#4a3288"/>
    <path id="Trazado_2084" data-name="Trazado 2084" d="M194.251,102.169a2.733,2.733,0,1,0,2.733-2.733A2.732,2.732,0,0,0,194.251,102.169Z" transform="translate(94.759 13.046)" fill="#4a3288"/>
    <path id="Trazado_2085" data-name="Trazado 2085" d="M211.832,238.39c-2.326,1.306-4.752.131-6.62-1.463-1.563-1.334-3.086-3.493-5.341-3.6-1.736-.085-2.979,1.294-4.165,2.346-1.775,1.574-3.676,2.636-6.106,2.013s-4.359-2.381-6.532-3.519c-3.342-1.75-5.906-.653-8.734,1.4-2.449,1.778-4.829,3.353-7.994,2.864-3.235-.5-5.63-2.663-8.328-4.31-4.518-2.76-7.964-.244-11.206,3.051-.573.582-1.468-.313-.9-.9,2.014-2.049,4.351-4.324,7.339-4.711,3.531-.458,6.114,2.117,8.894,3.821,1.984,1.215,4.364,2.283,6.743,1.761a10.879,10.879,0,0,0,3.868-1.989c2.191-1.555,4.4-3.437,7.256-3.275,2.593.146,4.767,1.844,6.9,3.139a9.136,9.136,0,0,0,3.781,1.578c1.9.164,3.207-1.017,4.523-2.2,1.8-1.611,3.684-2.929,6.177-2.014,3.1,1.135,6.077,7,9.8,4.908A.634.634,0,0,1,211.832,238.39Z" transform="translate(66.925 88.808)" fill="#4a3288"/>
    <path id="Trazado_2086" data-name="Trazado 2086" d="M432.95,266.242c-2.167-4.191-7.053-.277-9.454,1.383-1.851,1.281-4.184,2.455-6.5,1.832-2.51-.677-3.41-3.132-5.1-4.814-2.716-2.715-6.56-1.542-9.664-.209-4.43,1.906-9.876,4.383-13.591-.118-1.076-1.3-1.928-2.752-3.707-3.136-1.956-.423-4.013.411-5.714,1.292-2.631,1.364-4.933,3.013-7.994,3.147-.815.036-.814-1.232,0-1.268,5.228-.228,11.317-7.753,16.507-3.1,1.357,1.216,2.057,3.037,3.763,3.877a7.8,7.8,0,0,0,5.516.047c3.029-.859,5.7-2.653,8.817-3.256a7.4,7.4,0,0,1,6.564,1.432c2.667,2.392,3.748,6.318,8.222,4.457,2.907-1.21,5.012-4.1,8.254-4.556a4.834,4.834,0,0,1,5.169,2.351C434.419,266.327,433.325,266.969,432.95,266.242Z" transform="translate(195.931 104.998)" fill="#4a3288"/>
    <path id="Trazado_2087" data-name="Trazado 2087" d="M432.382,124.594a5.055,5.055,0,0,0-7.361-2.919c-2.17,1.423-2.845,4.458-5.623,5.064-2.634.576-4.864-1.493-6.364-3.39-2.176-2.751-4.15-5.13-7.977-4.15-4.636,1.185-9.2,5.379-14.086,2.535-4.417-2.571-6.538-9.306-12.683-7.723-5.313,1.369-9.25,6.771-15.151,6-.8-.1-.809-1.372,0-1.267,5.662.735,9.673-4.6,14.813-5.959,5.583-1.474,8.325,3.062,11.835,6.419,5.454,5.213,10.521-.867,16.35-1.5,2.763-.3,4.85,1.034,6.545,3.119,1.1,1.356,2.036,2.932,3.526,3.912,2.693,1.775,4.419.1,6.036-1.948s3.454-3.42,6.206-2.995a6.218,6.218,0,0,1,5.155,4.461A.635.635,0,0,1,432.382,124.594Z" transform="translate(191.292 20.542)" fill="#f85fbf"/>
    <path id="Trazado_2088" data-name="Trazado 2088" d="M122.171,329.572c-1.484-3.627-6.323.039-7.868,1.553-1.574,1.539-3.344,3.316-5.668,3.489-5.075.382-7.1-7.906-12.334-5.355-2.178,1.064-3.741,3.08-5.952,4.109a6.907,6.907,0,0,1-5.407.14c-3.9-1.429-7.135-5.975-11.453-6.1-3.221-.093-4.606,3.276-7.218,4.5-1.822.854-4,.758-5.185-1-.455-.68.642-1.314,1.1-.639,2.206,3.287,6.1-1.928,7.876-3.092a6.1,6.1,0,0,1,5.24-.722c4.169,1.259,7.017,5.534,11.39,6.217,5.037.787,7.524-6.142,12.581-5.1,2.126.436,3.553,2.162,5.032,3.605a7.121,7.121,0,0,0,3.147,2.112c2.087.5,3.885-1.067,5.276-2.389,1.9-1.81,3.594-3.619,6.346-3.937a3.785,3.785,0,0,1,4.323,2.28C123.7,329.989,122.476,330.317,122.171,329.572Z" transform="translate(18.309 143.102)" fill="#f85fbf"/>
    <path id="Trazado_2089" data-name="Trazado 2089" d="M473.954,219.616a90.868,90.868,0,0,0-4.213-12.071c-11.949-27.775-34.445-41.567-41.366-45.464-9.147-5.15-17.625-9.923-29.613-9.93-13.086-.006-24.083,5.67-27.413,7.525-2.9,1.618-2.2,1.566-10.677,7.075-10.085,6.557-15.129,9.835-19.645,11.8-9.942,4.316-18.9,4.189-24.439,4.11-18.786-.268-32.691-8.258-43.223-14.481-13.536-8-23.455-17.077-38.806-31.13a215.038,215.038,0,0,0-23.9-19.738c-1.666-1.171-7.947-5.564-14.668-9.371-7.882-4.463-26.745-14.885-52.962-17.042a120.686,120.686,0,0,0-48.655,6.125,95.873,95.873,0,0,1,9.083,19.461,94.387,94.387,0,0,1,4.943,33.293c-.721,17.666-6.751,32.839-8.369,36.738-3.007,7.242-6.049,12.314-6.938,21.365-1.081,11,2.123,16.586,3.092,18.147a23.684,23.684,0,0,0,8.224,7.868,85.394,85.394,0,0,1,10.342-5.393c8.608-3.761,22.209-9.706,37.78-6.645,12.244,2.406,20.316,9.322,26.391,14.528,7.945,6.809,6.46,9.725,16.382,19.667a107.42,107.42,0,0,0,19.768,15.686c6.444,3.939,11.51,6.041,20.739,9.873,8.584,3.564,12.875,5.346,18.386,6.524,4.582.98,12.879,2.754,22.468,1,10.635-1.942,17.611-7.261,25.932-13.761,2.875-2.246,10.619-8.5,23.087-23.436,15.012-17.987,22.519-26.98,28.333-38.478,4.288-8.479,7.325-16.813,16.092-21.338,1.777-.917,7.317-3.682,13.292-2.1,7.317,1.94,11.111,9.3,12.164,11.067,4.829,8.115,22.246,16.77,78.389,18.526" transform="translate(36.606 7.92)" fill="#fff"/>
    <path id="Trazado_2090" data-name="Trazado 2090" d="M310.285,250.88a96.991,96.991,0,0,1-7.637,6.661c-3.034,2.37-5.89,4.584-8.808,6.532a75.367,75.367,0,0,0,10.635-7.52c1.829-1.7,3.747-3.591,5.81-5.673m31.106-35.893-.1.124-.629.856c-2.833,3.841-5.678,7.686-8.573,11.5a154.942,154.942,0,0,0,9.3-12.476m-248.1-26.229c-.689,5.133-1.347,12.548,2.949,19.434-.969-1.561-4.173-7.151-3.092-18.147.042-.437.091-.867.143-1.287m.606-3.6c-.167.741-.313,1.541-.447,2.455q.194-1.277.447-2.455m276.141-10.8c-6.9,3.615-10.23,9.609-13.453,16.161l0,0c1.956-2.735,3.892-5.421,5.838-7.887q.85-1.161,1.731-2.294a32.235,32.235,0,0,1,5.881-5.975M104.353,156.359c-1.27,4.1-2.737,8.118-4.271,12.32h0a114.325,114.325,0,0,0,4.271-12.32m3.863-34.769.016.179-.014-.179h0" transform="translate(36.555 25.754)" fill="#eee"/>
    <path id="Trazado_2091" data-name="Trazado 2091" d="M341.4,214.9l-.154.209.1-.124.058-.085M108.167,121.59l.014.179a87.274,87.274,0,0,1-.721,21.343,94.912,94.912,0,0,1-3.158,13.247,114.321,114.321,0,0,1-4.271,12.32h0c-3.663,10.027-5.251,12.306-6.189,16.479q-.253,1.18-.447,2.455c-.016.105-.03.212-.046.321q-.057.4-.113.823c-.052.42-.1.85-.143,1.287-1.081,11,2.123,16.586,3.092,18.147h0a23.867,23.867,0,0,0,8.224,7.868c.263-.189.541-.387.837-.592a.6.6,0,0,1,.209-.854,95.039,95.039,0,0,1,11.975-6c5.692-2.642,14.523-6,24.95-6a47.529,47.529,0,0,1,5.286.293,45.457,45.457,0,0,1,22.325,7.231c8.734,5.692,14.866,14.3,21.3,22.308a106.378,106.378,0,0,0,8.4,9.486,114.142,114.142,0,0,0,11.72,9.077c1.81,1.128,3.662,2.194,5.536,3.207,5.154,2.789,10.5,5.2,15.856,7.565a151.593,151.593,0,0,0,18.264,7.014,59.31,59.31,0,0,0,16.742,2.532A48.931,48.931,0,0,0,287.64,267.2a61.736,61.736,0,0,0,6.15-3.124c2.918-1.948,5.774-4.162,8.808-6.532a97,97,0,0,0,7.637-6.661c2.45-2.475,5.1-5.228,8.054-8.291,7.7-8.908,14.746-18.445,21.715-27.916q4.811-6.538,9.48-13.179a127.665,127.665,0,0,1,7.048-10.978c3.223-6.553,6.549-12.547,13.453-16.161a17.692,17.692,0,0,1,7.209-3.36,16.355,16.355,0,0,1,3.185-.319,12.715,12.715,0,0,1,7.468,2.247c-.282-2.617-1.231-6.889-4.554-8.911a8.2,8.2,0,0,0-4.326-1.122,17.139,17.139,0,0,0-5.555,1.122c-15.315,5.309-37.4,34.456-53.791,47.2-17.464,13.587-38.705,16.52-54.106,16.52a127.467,127.467,0,0,1-19.444-1.517c-32.019-4.812-53.82-24.007-67.7-36.227-14.825-13.053-19.1-21.526-46.472-47.2-9.749-9.144-18.07-16.385-23.733-21.2" transform="translate(36.606 25.754)" fill="#eee"/>
    <path id="Trazado_2092" data-name="Trazado 2092" d="M384.364,157.654c-3.5-4.049-9.384-4.4-14.12-2.5-5.464,2.186-9.234,7.265-12.433,11.96-7.1,10.416-14.189,20.814-21.672,30.963-7.206,9.772-14.5,19.579-22.49,28.731-7.456,8.542-15.889,16.438-26,21.74a51.6,51.6,0,0,1-31.493,5.774c-11.983-1.7-23.26-6.894-34.17-11.9-10.194-4.672-20.238-10.049-28.237-18.051-7.314-7.317-12.871-16.156-20.056-23.589a46.993,46.993,0,0,0-33.831-14.63c-13.621-.178-26.668,4.817-38.242,11.661a.634.634,0,0,1-.64-1.094c19.187-11.346,44.507-17.527,64.536-4.474,8.734,5.692,14.866,14.3,21.3,22.308a92.1,92.1,0,0,0,10.8,11.714,80.077,80.077,0,0,0,14.857,10.055c5.154,2.789,10.5,5.2,15.856,7.564A151.576,151.576,0,0,0,246.6,250.9c12.295,3.618,24.725,3.591,36.566-1.6,11.115-4.872,20.325-13.011,28.336-21.977,8.619-9.648,16.367-20.136,24.026-30.547q6.522-8.866,12.784-17.919c3.774-5.454,7.237-11.193,11.316-16.424,3.347-4.293,7.585-8.236,13.089-9.335,4.538-.9,9.428.05,12.543,3.657.532.614-.36,1.515-.9.9" transform="translate(41.082 43.647)" fill="#161616"/>
    <path id="Trazado_2093" data-name="Trazado 2093" d="M472.673,221.63c-2.024-14.883-13.093-27.362-22.651-38.249-9.945-11.327-21.6-21.755-35.981-26.953a52.86,52.86,0,0,0-21.977-3.246c-7.41.578-14.278,3.256-20.654,6.973-11.53,6.719-21.519,16.149-34.326,20.536-27.332,9.365-56.515-4.216-77.983-20.737-11.851-9.122-22.648-19.5-33.976-29.244-11.229-9.662-23.077-18.467-36.378-25.087-25.581-12.731-55.491-18.116-83.615-11.8-3.347.751-6.65,1.674-9.911,2.741-.777.253-1.111-.969-.337-1.223,27.066-8.849,56.69-6.3,82.963,4.058a151.543,151.543,0,0,1,37.188,21.4c12.2,9.447,23.291,20.2,35.029,30.187,22.05,18.767,51.129,37.018,81.457,29.982,13.971-3.24,24.6-12.728,36.43-20.19,5.763-3.635,11.942-6.734,18.663-8.1a49.377,49.377,0,0,1,20.851.489c14.523,3.342,26.907,12.166,37.237,22.626a201.574,201.574,0,0,1,14.814,17.088c4.449,5.653,8.723,11.56,11.541,18.218a39.837,39.837,0,0,1,2.837,10.2C474,222.091,472.783,222.437,472.673,221.63Z" transform="translate(37.508 7.607)" fill="#161616"/>
    <path id="Trazado_2094" data-name="Trazado 2094" d="M95.172,94.551a97.152,97.152,0,0,1,14.06,54.66,94.4,94.4,0,0,1-5.212,27.342c-3.522,9.991-9.125,19.611-10.178,30.319-.911,9.259,2.2,20.017,11.137,24.324.735.354.093,1.448-.639,1.1-7.092-3.418-10.782-10.871-11.687-18.421-1.161-9.711,2.578-19,6.233-27.792,4.041-9.717,7.33-19.439,8.537-29.948a97.016,97.016,0,0,0-1.157-29.556A94.534,94.534,0,0,0,94.077,95.189C93.649,94.492,94.744,93.855,95.172,94.551Z" transform="translate(36.356 10.071)" fill="#161616"/>
    <path id="Trazado_2095" data-name="Trazado 2095" d="M303.615,158.733c-15.242,16.257-31.559,33.432-53.587,39.962-11.179,3.314-22.92,3.007-34.3.9a133.2,133.2,0,0,1-30.923-9.83,136.5,136.5,0,0,1-30.687-19.334c-.626-.524.274-1.416.9-.9a134.745,134.745,0,0,0,56.4,27.88c11.5,2.59,23.554,3.678,35.123.9,10.361-2.482,19.888-7.684,28.368-14.042,10.263-7.7,19.068-17.115,27.812-26.442C303.276,157.239,304.172,158.136,303.615,158.733Z" transform="translate(71.618 46.433)" fill="#161616"/>
    <path id="Trazado_2096" data-name="Trazado 2096" d="M257.41,326.149q-5.2-.441-10.608-.768-9.546-.571-18.522-.7a14.959,14.959,0,0,0-4.051,3.751,17.826,17.826,0,0,0-2.982,8.277c-.409,2.378-.017-.961-4.342,13.689-4.126,13.977-9.506,34.041-10.065,36.13.176,1.213.645,3.084,2.022,3.728,1.139.533,2.96.252,7.231-3.33a53.509,53.509,0,0,0,9.8-10.987c3.144-4.515,6.378-8.968,9.472-13.516,2.4-3.525,6.011-8.745,10.649-15.094a14.08,14.08,0,0,1,7.281-1.679,14.421,14.421,0,0,1,9.114,3.939l-5-23.439" transform="translate(101.981 142.252)"/>
    <path id="Trazado_2097" data-name="Trazado 2097" d="M339.227,252.371c2.183,3.75,5.185,9.119,8.458,15.719,4.35,8.765,7.174,15.667,21.664,60.053,0,0,1.122,3.438,8.575,39.745a18.629,18.629,0,0,1,.071,7.648,21.483,21.483,0,0,1-3.405,7.409c-7.2,9.9-22.929,14.674-22.929,14.674a234.416,234.416,0,0,1-41.983,8.446,461.169,461.169,0,0,1-49.063,2.837c-9.982.057-18.325-.2-24.275-.461.976-3.575,1.892-7.319,2.721-11.223a204.238,204.238,0,0,0,3.881-27.1c7.774-.67,15.894-1.621,24.319-2.922a366.155,366.155,0,0,0,54.777-12.835c-.867-2.084-2.219-5.317-3.9-9.251-6.409-15.014-13.713-32.122-23.781-51.513-3.272-6.3-8.04-15.16-14.26-25.639-4.592-21.044,10.216-39.764,27.044-41.026,13.552-1.017,27.841,9.332,32.086,25.441" transform="translate(118.903 86.141)" fill="#fff"/>
    <path id="Trazado_2098" data-name="Trazado 2098" d="M241.2,318.043c-.368,4.814-.928,9.89-1.736,15.193l-.105-.494,1.109-14.621c.23-.024.474-.05.732-.079" transform="translate(120.632 138.445)" fill="#e5e5e5"/>
    <path id="Trazado_2099" data-name="Trazado 2099" d="M239.416,327.384l.105.494q-.132.871-.274,1.75h0q.085-1.123.17-2.244" transform="translate(120.57 143.804)" fill="#1c1c1c"/>
    <path id="Trazado_2100" data-name="Trazado 2100" d="M295.613,264.507q1.456,1.263,2.966,2.469a.655.655,0,0,0,.412.148.714.714,0,0,0,.356-.1q2.245,1.171,4.53,2.249c3.02,6.2,5.686,12.123,7.553,16.278a506.341,506.341,0,0,1,19.939,51.8,344.779,344.779,0,0,1-42.17,16.5A345.1,345.1,0,0,1,239.247,365.7q.142-.88.274-1.75c.807-5.3,1.367-10.38,1.736-15.193,1.671-.179,3.951-.433,6.636-.758a391.27,391.27,0,0,0,50.41-8.83c5.553-1.394,13.13-3.456,22.067-6.4h0c-1.726-4.467-4.173-10.647-7.259-17.952-7.387-17.485-11.08-26.228-15.595-33.879-2.217-3.756-4.1-7.758-6.038-11.714,1.375-1.567,2.732-3.165,4.136-4.713" transform="translate(120.57 107.736)" fill="#e5e5e5"/>
    <path id="Trazado_2101" data-name="Trazado 2101" d="M347.2,251.386a395.752,395.752,0,0,1,19.149,49.824,347.677,347.677,0,0,1,12.3,52.562c.554,3.862.6,7.686-.933,11.336a25.391,25.391,0,0,1-6.29,8.553c-5.531,5.154-12.507,8.4-19.625,10.74-16.847,5.531-34.9,7.959-52.509,9.483-20.794,1.8-41.682,1.884-62.539,1.959a.634.634,0,0,1,0-1.267c35.455-.128,71.408-.263,106.019-8.929,7.5-1.877,15.044-4.2,21.672-8.284,6.908-4.258,13.543-10.888,13.319-19.554-.115-4.456-1.188-8.963-2.01-13.333q-1.2-6.35-2.6-12.658-2.809-12.612-6.444-25.022a393.231,393.231,0,0,0-20.6-54.772C345.763,251.29,346.855,250.644,347.2,251.386Z" transform="translate(118.786 100.02)" fill="#161616"/>
    <path id="Trazado_2102" data-name="Trazado 2102" d="M266.454,256.6a375.231,375.231,0,0,1,37.907,77.528c.272.771-.952,1.1-1.223.337a373.875,373.875,0,0,0-37.778-77.224C264.918,256.548,266.015,255.913,266.454,256.6Z" transform="translate(135.491 103.03)" fill="#161616"/>
    <path id="Trazado_2103" data-name="Trazado 2103" d="M323.365,307.8a310.622,310.622,0,0,1-82.608,17.242c-.814.057-.81-1.212,0-1.268a309.348,309.348,0,0,0,82.271-17.2C323.8,306.306,324.128,307.53,323.365,307.8Z" transform="translate(121.087 131.847)" fill="#161616"/>
    <path id="Trazado_2104" data-name="Trazado 2104" d="M243.059,318.316a162.482,162.482,0,0,1-5.874,38.184.635.635,0,0,1-1.223-.338,160.862,160.862,0,0,0,5.829-37.846C241.819,317.5,243.085,317.5,243.059,318.316Z" transform="translate(118.671 138.251)" fill="#161616"/>
    <path id="Trazado_2105" data-name="Trazado 2105" d="M257.521,327.148c-8.021-.581-16.04-1.213-24.066-1.742-1.931-.127-4.052-.318-5.824.639a7.554,7.554,0,0,0-3.043,3.687,97.414,97.414,0,0,0-3.689,10.8q-7.247,22.438-13.008,45.316a.635.635,0,0,1-1.223-.337q6.272-24.848,14.279-49.214c1-3.047,1.773-6.6,3.709-9.228,1.72-2.337,4.228-3.076,7.04-3.021,8.592.167,17.252,1.213,25.823,1.835C258.33,325.939,258.336,327.207,257.521,327.148Z" transform="translate(101.87 141.887)" fill="#161616"/>
    <path id="Trazado_2106" data-name="Trazado 2106" d="M254.69,339.3c-7.908-2.85-12.767,5.893-16.057,11.462a184.51,184.51,0,0,1-11.489,17.5c-3.863,5.1-8.166,10.343-13.236,14.307-1.723,1.346-3.755,2.033-5.626.515-2.148-1.745-2.006-4.615-1.567-7.078.143-.8,1.366-.463,1.223.337-.386,2.167-.565,5.5,2.154,6.2,2.011.519,3.745-1.545,5.1-2.8a84.392,84.392,0,0,0,6.107-6.288,127.278,127.278,0,0,0,11.432-15.5c3.117-4.872,5.679-10.288,9.264-14.833,3.081-3.9,7.981-6.869,13.028-5.05C255.789,338.347,255.46,339.573,254.69,339.3Z" transform="translate(101.756 149.62)" fill="#161616"/>
    <path id="Trazado_2107" data-name="Trazado 2107" d="M150.4,336.977,138.31,344.46a15.183,15.183,0,0,0-6.583,1.191,16.033,16.033,0,0,0-6.156,4.955c-5.454,6.705-8.181,10.059-17.672,22.566-1.928,2.543-3.534,4.563-4.505,5.77a12.42,12.42,0,0,0-2.049,9.791,11.167,11.167,0,0,0,2.389,4.551,33.168,33.168,0,0,0,4.655-.908c6.9-1.873,11.55-5.571,15.23-8.734a281.93,281.93,0,0,0,24.471-24.487l14.122-4.2q-5.908-8.991-11.816-17.983" transform="translate(41.284 149.307)"/>
    <path id="Trazado_2108" data-name="Trazado 2108" d="M371.271,277.965a71.6,71.6,0,0,0-.172-13.3c-1.043-9.763-3.226-30.193-16.876-36.755-14.514-6.979-32.516,6.273-33.479,7-2.746,3.275-6.686,7.911-11.513,13.382a750.124,750.124,0,0,1-67.581,66.978C199,352.4,157.465,379.165,131.848,394.516a54.122,54.122,0,0,0,2.675,9.133,56.019,56.019,0,0,0,13.743,20.193c7.311-2.48,17.45-6.159,29.268-11.255,14.819-6.387,29.428-13.771,56.323-29.8,32.179-19.173,48.27-28.76,64.045-40.894a396.31,396.31,0,0,0,53.532-49.764,57.274,57.274,0,0,0,7.114-7.8c1.49-1.981,2.039-2.995,3.4-4.063,2.936-2.312,6.638-2.507,9.327-2.3" transform="translate(58.963 85.583)" fill="#fff"/>
    <path id="Trazado_2109" data-name="Trazado 2109" d="M295.662,249.6c-12.2,12.982-31.071,32.121-53.986,52.067-42.655,37.127-84.186,63.891-109.8,79.242l.008.039-.074-.25a830.3,830.3,0,0,0,73.042-49.488c7.2-5.462,19.05-14.482,34.08-27.343,5.187-4.438,28.042-24.127,56.734-54.267" transform="translate(58.939 99.187)" fill="#ededed"/>
    <path id="Trazado_2110" data-name="Trazado 2110" d="M321.165,231.8q4.225,2.823,8.915,5.711-1.334,1.952-2.8,4.049c-11.028,15.733-62.165,86.372-163.667,143.457-6.272,3.528-16.318,9.019-29.085,15.239l-2.667-9.094-.008-.039c25.617-15.351,67.148-42.115,109.8-79.242,22.915-19.946,41.789-39.084,53.987-52.067q1.421-1.494,2.862-3.023c9.377-9.944,17.068-18.57,22.665-24.991" transform="translate(58.963 88.975)" fill="#ededed"/>
    <path id="Trazado_2111" data-name="Trazado 2111" d="M365.508,259.876c-4.3-.522-7.857,1.879-10.838,4.729-3.056,2.922-5.731,6.266-8.557,9.406-5.821,6.471-11.771,12.828-17.927,18.984A291.768,291.768,0,0,1,288.1,326.8c-14.842,10.276-30.3,19.733-45.638,29.241-15.016,9.308-30.214,18.345-45.874,26.535a354.5,354.5,0,0,1-53.917,23.156c-.777.253-1.111-.971-.337-1.223,34.041-11.129,65.476-28.623,95.864-47.322,15.321-9.429,30.675-18.912,45.59-28.972a291.444,291.444,0,0,0,41.87-34.492c7.011-6.929,13.749-14.127,20.33-21.464,4.949-5.519,10.971-14.688,19.521-13.648.8.1.809,1.366,0,1.267" transform="translate(64.726 104.306)" fill="#161616"/>
    <path id="Trazado_2112" data-name="Trazado 2112" d="M321.4,232.313a714.173,714.173,0,0,1-67.2,69.811,720.165,720.165,0,0,1-75.09,59.482q-11.295,7.782-22.879,15.13-5.715,3.626-11.5,7.141-2.814,1.711-5.643,3.4c-.71.423-6.848,3.582-6.68,4.183a.635.635,0,0,1,1.223-.337l.069.253a.629.629,0,0,1-.162.617c-1.3,1.2-2.746-.363-1.711-1.715.9-1.175,2.851-1.865,4.1-2.6q2.837-1.674,5.659-3.372,10.969-6.607,21.7-13.6,21.435-13.981,41.838-29.463a716.56,716.56,0,0,0,76.626-67.257q20.229-20.484,38.754-42.559C321.032,230.791,321.926,231.691,321.4,232.313Z" transform="translate(58.753 88.632)" fill="#161616"/>
    <path id="Trazado_2113" data-name="Trazado 2113" d="M147.89,362.928a56.21,56.21,0,0,1-16.466-29.621c-.162-.8,1.059-1.136,1.223-.335a55.041,55.041,0,0,0,16.139,29.059C149.38,362.593,148.481,363.489,147.89,362.928Z" transform="translate(58.711 146.747)" fill="#161616"/>
    <path id="Trazado_2114" data-name="Trazado 2114" d="M143.829,348.968a68.062,68.062,0,0,0-12.7,4.855c-.727.367-1.369-.727-.639-1.094a69.5,69.5,0,0,1,13-4.984A.634.634,0,0,1,143.829,348.968Z" transform="translate(57.998 155.469)" fill="#161616"/>
    <path id="Trazado_2115" data-name="Trazado 2115" d="M137.258,337.758q-5.97,3.489-11.832,7.158c-.692.434-1.33-.662-.639-1.1q5.861-3.668,11.831-7.158A.635.635,0,0,1,137.258,337.758Z" transform="translate(54.742 149.074)" fill="#161616"/>
    <path id="Trazado_2116" data-name="Trazado 2116" d="M137.465,342.614a18.644,18.644,0,0,0-6.392.43c-2.338.729-4.013,2.382-5.619,4.153a97.19,97.19,0,0,0-7.6,9.819c-4.423,6.343-8.652,12.866-14.265,18.249-.59.565-1.487-.33-.9-.9,6.389-6.126,10.934-13.733,16.094-20.849a57.82,57.82,0,0,1,7.756-9.256c3.143-2.818,6.867-3.1,10.919-2.917C138.278,341.383,138.283,342.651,137.465,342.614Z" transform="translate(42.13 151.787)" fill="#161616"/>
    <path id="Trazado_2117" data-name="Trazado 2117" d="M148.147,351.9c-8.985,10.255-18.644,20.106-30.037,27.705a89.543,89.543,0,0,1-8.583,5.075c-2.153,1.113-4.933,2.609-6.927.4-4.035-4.469-.751-11.908,1.363-16.4.348-.738,1.44-.1,1.1.639-1.344,2.856-2.713,5.888-2.951,9.08a8.766,8.766,0,0,0,.862,4.935c1.506,2.549,3.624,1.423,5.6.414a94.259,94.259,0,0,0,14.12-8.962c9.1-6.918,17.05-15.209,24.563-23.782C147.79,350.389,148.683,351.287,148.147,351.9Z" transform="translate(41.089 157.235)" fill="#161616"/>
    <path id="Trazado_2118" data-name="Trazado 2118" d="M341.188,173.524c1.09,1.626,2.59,3.906,4.318,6.666a206.9,206.9,0,0,1,12.131,21.7c1.182,2.5.7,1.654,10.627,29.657a90.132,90.132,0,0,1,4.076,15.924c1.207,7.5.779,11.008-.477,14.037-1.111,2.681-2.733,4.661-5.415,7.2a73.618,73.618,0,0,1-19.636,13.146l-5.08-17.9,8.875-19.966c-.946-1.7-2.327-4.208-3.959-7.264-5.385-10.085-7.374-14.665-10.139-19.836a134.786,134.786,0,0,0-11.785-18.254q8.233-12.555,16.463-25.11" transform="translate(169.603 55.545)" fill="#fff"/>
    <path id="Trazado_2119" data-name="Trazado 2119" d="M335.545,173.452c15.154,19.039,23.633,42.169,29.737,65.474a.635.635,0,0,1-1.223.337c-6.043-23.074-14.4-46.057-29.41-64.915C334.146,173.716,335.037,172.813,335.545,173.452Z" transform="translate(175.211 55.378)" fill="#161616"/>
    <path id="Trazado_2120" data-name="Trazado 2120" d="M361.349,215.113a43.973,43.973,0,0,1,2.677,13.426c.146,3.9.014,8.288-1.884,11.807-1.819,3.369-5.3,5.922-8.287,8.2a68.676,68.676,0,0,1-11.809,7.212c-.732.353-1.375-.74-.639-1.1a68.606,68.606,0,0,0,10.048-5.912c3.221-2.3,7.125-5.036,9.251-8.454,2.179-3.508,2.222-8.147,2.036-12.144a42.9,42.9,0,0,0-2.615-12.7C359.848,214.682,361.072,214.352,361.349,215.113Z" transform="translate(178.986 79.154)" fill="#161616"/>
    <path id="Trazado_2121" data-name="Trazado 2121" d="M328.413,192.331q10.7,19.993,20.755,40.324c.36.729-.732,1.371-1.094.639q-10.051-20.328-20.756-40.324c-.384-.719.71-1.36,1.1-.639" transform="translate(171.044 66.152)" fill="#161616"/>
    <path id="Trazado_2122" data-name="Trazado 2122" d="M350.378,216.509c-8.713,3.357-8.685,15.2-14.115,21.611-.529.623-1.421-.277-.9-.9,5.7-6.724,5.394-18.361,14.676-21.936.762-.294,1.092.932.337,1.223" transform="translate(175.616 79.475)" fill="#161616"/>
    <path id="Trazado_2123" data-name="Trazado 2123" d="M340.642,217.043c.315.631.626,1.264.939,1.895a.538.538,0,0,0,.386.313,35.208,35.208,0,0,0-3.413,6.954q1.043-4.582,2.088-9.162" transform="translate(177.536 80.509)" fill="#f9f9f9"/>
    <path id="Trazado_2124" data-name="Trazado 2124" d="M335.991,188.217c3.346.6,4.206,7.681,7.089,18.026a164.436,164.436,0,0,0,9.033,24.583,12.621,12.621,0,0,0-5.352,4q-7.485-15.14-15.332-30.093c.541-1.578,1.072-3.22,1.589-4.94,1.218-4.046,2.192-7.925,2.973-11.58" transform="translate(173.449 63.973)" fill="#f9f9f9"/>
    <path id="Trazado_2125" data-name="Trazado 2125" d="M331.536,198.715q7.846,14.953,15.332,30.093c-.247.31-.482.629-.707.957a.538.538,0,0,1-.386-.313c-.313-.631-.625-1.264-.939-1.895l.34-1.487q-6.968-13.254-13.935-26.508c.1-.28.2-.563.294-.847" transform="translate(173.342 69.995)" fill="#1c1c1c"/>
    <path id="Trazado_2126" data-name="Trazado 2126" d="M347.584,216.275q-4.478,6.536-8.959,13.074c2.06-5.235,3.944-10.674,8.959-13.074" transform="translate(177.577 80.068)" fill="#f9f9f9"/>
    <path id="Trazado_2127" data-name="Trazado 2127" d="M348.317,215.294c.087.19.175.381.264.573l-.666.971c-5.015,2.4-6.9,7.838-8.959,13.074l-.692,1.009-.219-.209.8-3.5a35.209,35.209,0,0,1,3.413-6.954c.225-.327.459-.647.706-.957a12.622,12.622,0,0,1,5.352-4" transform="translate(177.245 79.505)" fill="#1c1c1c"/>
    <path id="Trazado_2128" data-name="Trazado 2128" d="M358.686,161.269a65.053,65.053,0,0,1,13.307,10.155A88.473,88.473,0,0,1,384.6,186.131a146.771,146.771,0,0,1-5.953,33.614c-5.659,18.786-12.7,28.25-21.71,46.921a301.248,301.248,0,0,0-18.209,47.974,268.149,268.149,0,0,1-31.864-9.805,269.25,269.25,0,0,1-54.976-28.363A182.476,182.476,0,0,0,270.446,239.7c3.984-10.836,15.458-36.249,23.811-71.082,1.235-5.155,2.17-9.473,2.8-12.5a110.808,110.808,0,0,1,40.269-1.506c12.35,1.893,18.895,5.281,21.359,6.653" transform="translate(127.821 44.026)" fill="#7651ee"/>
    <path id="Trazado_2129" data-name="Trazado 2129" d="M386.576,241.232c-.239,1.484-.614,3.811-1.068,6.66-4.1,25.664-4.784,31.309-6.548,40.779-1.024,5.49-2.652,13.576-5.111,23.43a127.793,127.793,0,0,1-20.087,2.771,130.08,130.08,0,0,1-30.228-1.835,132.085,132.085,0,0,1-38.153-13.121,25.964,25.964,0,0,1-3.072-1.8,29.564,29.564,0,0,1-8.594-9.393,57.37,57.37,0,0,0-12.03-13.27c.282-.837.729-2.085,1.361-3.561a57.553,57.553,0,0,1,8.317-13.321,104.494,104.494,0,0,1,7.017-8.159q1.154-4.449,2.247-9c2.984-12.419,5.405-24.5,7.352-36.2,2.415.8,6.354,2.074,11.264,3.443,14.479,4.041,23.732,5.147,42.367,8.619,4.845.9,12.164,2.307,21.157,4.206q2.632,1.692,5.324,3.615a128.473,128.473,0,0,1,18.485,16.131" transform="translate(133.442 73.725)" fill="#fff"/>
    <path id="Trazado_2130" data-name="Trazado 2130" d="M346.774,227.531q-2.929,18.239-5.857,36.478c-1.91,11.9-3.415,24.006-7.1,35.526-.247.774-1.471.442-1.221-.337,3.681-11.52,5.185-23.622,7.1-35.526q2.927-18.239,5.856-36.48C345.681,226.391,346.9,226.73,346.774,227.531Z" transform="translate(174.101 86.068)" fill="#161616"/>
    <path id="Trazado_2131" data-name="Trazado 2131" d="M365.22,278.277a130.154,130.154,0,0,1-87.881-11.854c-.722-.379-.082-1.474.639-1.1a128.755,128.755,0,0,0,86.905,11.727c.795-.175,1.135,1.048.337,1.223" transform="translate(142.239 108.161)" fill="#161616"/>
    <path id="Trazado_2132" data-name="Trazado 2132" d="M302.665,216.184a102.91,102.91,0,0,0-6.324,19.922c-1.316,6.346-1.311,13.017-3.907,19.028-5.608,12.987-10.627,25.938-14.037,39.7a.634.634,0,0,1-1.221-.337,238.379,238.379,0,0,1,13.857-39.308c2.818-6.359,2.8-13.451,4.247-20.185a104.376,104.376,0,0,1,6.291-19.461c.323-.746,1.415-.1,1.094.64" transform="translate(142.315 79.459)" fill="#161616"/>
    <path id="Trazado_2133" data-name="Trazado 2133" d="M367.29,235.682a115.494,115.494,0,0,1-21.419-1.589c-6.546-.973-13.1-1.975-19.584-3.319-11.845-2.456-23.565-6.339-32.994-14.174-.628-.522.272-1.415.9-.9,9.434,7.838,21.277,11.584,33.119,13.988,5.992,1.218,12.043,2.146,18.087,3.058a116.717,116.717,0,0,0,21.9,1.666c.817-.033.815,1.235,0,1.267" transform="translate(151.451 79.65)" fill="#161616"/>
    <path id="Trazado_2134" data-name="Trazado 2134" d="M375.043,240.824q-8-7.086-16.009-14.169c-2.74-2.423-5.16-4.455-8.809-5.338-3.265-.79-6.6-1.352-9.909-1.932-13.187-2.316-26.506-3.868-39.6-6.68a145.823,145.823,0,0,1-21.944-6.394c-.754-.291-.426-1.517.337-1.223,12.967,5.009,26.653,7.553,40.337,9.7,6.815,1.072,13.643,2.058,20.441,3.237,6.005,1.042,12.717,1.5,17.552,5.544,6.307,5.275,12.347,10.905,18.5,16.355.612.541-.286,1.435-.9.9" transform="translate(142.996 73.625)" fill="#161616"/>
    <path id="Trazado_2135" data-name="Trazado 2135" d="M279.54,205.361a68.96,68.96,0,0,0,22.632,16.3c.743.334.1,1.426-.641,1.1a69.845,69.845,0,0,1-22.887-16.5c-.552-.6.343-1.5.9-.9" transform="translate(143.07 73.693)" fill="#161616"/>
    <path id="Trazado_2136" data-name="Trazado 2136" d="M288.963,205.614q-4.069,20.038-8.14,40.076c-.529,2.593-1.056,5.012-2.755,7.116-1.794,2.22-3.991,4.079-5.781,6.315a64.922,64.922,0,0,0-5.264,7.8c-.812,1.383-1.589,2.787-2.351,4.2q-.526.977-1.045,1.961c-.172.327-.345.655-.516.983a2.924,2.924,0,0,1-1.531,1.641l.466.612-.156-.024c-.8-.116-.463-1.339.337-1.223l.156.024a.633.633,0,0,1,.464.611c-.061,1.124-1.421,1.467-1.767.266-.236-.818.611-1.925.938-2.548.8-1.53,1.61-3.058,2.447-4.57a78.658,78.658,0,0,1,5.925-9.343c1.929-2.557,4.258-4.667,6.34-7.077,2.647-3.065,2.925-7.347,3.7-11.173q1.246-6.135,2.491-12.268,2.41-11.859,4.818-23.718c.162-.8,1.385-.461,1.223.337" transform="translate(133.07 73.498)" fill="#161616"/>
    <path id="Trazado_2137" data-name="Trazado 2137" d="M285.727,275.816A123.31,123.31,0,0,1,271.5,262.222c-2.214-2.438-4.368-4.927-6.5-7.434-1.024-1.2-3.833-3.327-3.27-5.174a.632.632,0,0,1,.444-.442l.274-.06c.795-.172,1.135,1.05.337,1.223.513-.112,2.707,3.081,3.113,3.558q1.23,1.445,2.474,2.883c1.906,2.2,3.84,4.376,5.827,6.5a117.325,117.325,0,0,0,12.429,11.64c.637.508-.264,1.4-.9.9" transform="translate(133.423 98.895)" fill="#161616"/>
    <path id="Trazado_2138" data-name="Trazado 2138" d="M352.859,240.941a97.284,97.284,0,0,1-16.328,13.385c-6.3,3.931-13.174,6.874-19.9,9.989-.735.341-1.38-.751-.639-1.094,6.488-3.007,13.108-5.855,19.23-9.579a94.573,94.573,0,0,0,16.739-13.6C352.546,239.475,353.443,240.37,352.859,240.941Z" transform="translate(164.406 93.599)" fill="#161616"/>
    <path id="Trazado_2139" data-name="Trazado 2139" d="M332.244,269.221c-8.775-2.916-15.952-9.779-22.712-15.828A256.054,256.054,0,0,1,288.053,231.7c-.537-.611.357-1.511.9-.9a256.348,256.348,0,0,0,20.314,20.643c6.9,6.25,14.3,13.554,23.317,16.548.771.255.441,1.481-.337,1.223" transform="translate(148.472 88.286)" fill="#161616"/>
    <path id="Trazado_2140" data-name="Trazado 2140" d="M318.132,254.733q-1.225,15.371-3.679,30.6c-.129.8-1.352.463-1.223-.337q2.424-15.057,3.634-30.266C316.928,253.926,318.2,253.918,318.132,254.733Z" transform="translate(163.004 101.78)" fill="#161616"/>
    <path id="Trazado_2141" data-name="Trazado 2141" d="M358.7,226.884c-2.515.688-5.195.022-7.72-.334q-4.428-.626-8.844-1.336-9.43-1.518-18.792-3.434-18.522-3.786-36.681-9.1a.635.635,0,0,1,.337-1.223q17.366,5.068,35.089,8.775,8.755,1.822,17.577,3.3,4.412.739,8.834,1.391c3.086.455,6.8,1.577,9.864.74A.634.634,0,0,1,358.7,226.884Z" transform="translate(147.516 77.288)" fill="#161616"/>
    <path id="Trazado_2142" data-name="Trazado 2142" d="M298.09,237.933q-.321,1.315-.609,2.641c.121.028.241.058.356.088q.09-1.362.253-2.729m-17.611-31.992q-2.5,12.307-5,24.613,3.751,4.759,7.5,9.521c2.266-.227,4.266-.3,5.922-.3.714,0,1.364.013,1.943.033a38.785,38.785,0,0,1,5.4.508,104,104,0,0,1,5.888-18.517,69.864,69.864,0,0,1-21.65-15.861" transform="translate(141.357 74.14)" fill="#e5e5e5"/>
    <path id="Trazado_2143" data-name="Trazado 2143" d="M294.562,216.02c.176.082.354.165.53.245a51.725,51.725,0,0,0-3.161,8.6,51.2,51.2,0,0,0-1.408,7.291q-.321,1.315-.609,2.641c-.378-.09-.79-.176-1.24-.255a104,104,0,0,1,5.888-18.517" transform="translate(148.923 79.922)" fill="#2d2d2d"/>
    <path id="Trazado_2144" data-name="Trazado 2144" d="M278.8,205.5a46.185,46.185,0,0,0,22.456,15.939q-.212.434-.417.866c-.176-.08-.354-.164-.53-.245a69.865,69.865,0,0,1-21.65-15.861l.142-.7" transform="translate(143.178 73.886)" fill="#2d2d2d"/>
    <path id="Trazado_2145" data-name="Trazado 2145" d="M264.937,252.835a55.723,55.723,0,0,1,4.6,5.264q-1.541-1.721-3.051-3.468-.777-.895-1.545-1.8" transform="translate(135.307 101.04)" fill="#e5e5e5"/>
    <path id="Trazado_2146" data-name="Trazado 2146" d="M300.709,249.017c.08.209.159.414.236.617a.549.549,0,0,1,.494.315,23.551,23.551,0,0,1,2.548,7.308c.2,1.243.574,3.2-.574,4.165a1.441,1.441,0,0,1-.941.368c-2.324,0-4.918-5.969-5.626-7.191l-.12-.206a223.555,223.555,0,0,0-9.645,28.994,128.642,128.642,0,0,0,53.429,14.205c-5.486-5.619-19.266-20.508-27.864-39.2a8.563,8.563,0,0,0-.869.486c-1.572-1.742-2.77-3.207-3.556-4.2-1.654-2.088-2.214-3-3.522-3.948a10.291,10.291,0,0,0-3.991-1.717m-22.3-14.688a10.052,10.052,0,0,1-1.028,1.55c-1,1.238-2.126,2.364-3.237,3.506-2.107,3.176-3.972,5.492-6.416,8.9-.658.917-1.438,2.025-2.312,3.309q-.729,1.294-1.432,2.6-.526.977-1.045,1.961c-.172.327-.345.655-.516.983a3.022,3.022,0,0,1-.2.428h.036c.685,0,.933,1.076.187,1.238a.073.073,0,0,1,.027,0c.56,0,2.688,3.094,3.086,3.561q.463.543.929,1.088a55.723,55.723,0,0,1,4.6,5.264q1.374,1.532,2.776,3.036a118.442,118.442,0,0,0,12,11.292,223.092,223.092,0,0,1,10.005-30.056,21.7,21.7,0,0,0-3.807-4.59c-2.025-1.8-4.331-3.251-6.494-4.875-3.18-2.382-6.121-5.3-7.152-9.192" transform="translate(133.753 90.424)" fill="#e5e5e5"/>
    <path id="Trazado_2147" data-name="Trazado 2147" d="M278.081,265.5a128.642,128.642,0,0,0,53.43,14.205q.363.373.677.689a127.961,127.961,0,0,1-54.271-14.285.573.573,0,0,0,.044-.128c.041-.16.08-.321.121-.482" transform="translate(142.752 108.307)" fill="#2d2d2d"/>
    <path id="Trazado_2148" data-name="Trazado 2148" d="M287.25,246.185c.3.46.581.93.861,1.407a223.563,223.563,0,0,0-9.645,28.994c-.041.16-.08.321-.121.482a.568.568,0,0,1-.044.127c-.135-.071-.271-.14-.4-.211a.522.522,0,0,0-.219-.395l-.433-.348a223.09,223.09,0,0,1,10.005-30.056" transform="translate(142.367 97.225)" fill="#2d2d2d"/>
    <path id="Trazado_2149" data-name="Trazado 2149" d="M265.8,268.152c-1.245,1.83-2.68,4.021-4.225,6.535l.146.2a1.854,1.854,0,0,1,.055-.242.632.632,0,0,1,.444-.442l.274-.06a.73.73,0,0,1,.113-.016,3.035,3.035,0,0,0,.2-.428c.172-.329.345-.656.516-.983q.519-.982,1.045-1.961.706-1.308,1.432-2.6m12.259-18.018c-.494.888-1.075,1.895-1.737,2.985-.628,1.032-1.22,1.961-1.794,2.826,1.111-1.142,2.236-2.268,3.237-3.506a10.053,10.053,0,0,0,1.028-1.55c-.028-.105-.055-.212-.08-.319a.612.612,0,0,1-.233-.113l-.42-.323m10.5-44.674q-2.884,12.005-5.58,24.568l-.032.148.518.655q2.5-12.305,5-24.613l.142-.7-.044-.058" transform="translate(133.376 73.864)" fill="#2d2d2d"/>
    <path id="Trazado_2150" data-name="Trazado 2150" d="M262.586,249.1c.685,0,.933,1.076.187,1.238a.074.074,0,0,1,.027,0c.56,0,2.688,3.094,3.086,3.561q.463.543.928,1.087.769.9,1.545,1.8,1.513,1.744,3.051,3.468,1.374,1.532,2.776,3.036a118.431,118.431,0,0,0,12,11.292l.433.348a.522.522,0,0,1,.219.395l-.162-.085a123.816,123.816,0,0,1-25.008-25.373,1.861,1.861,0,0,1,.055-.242.632.632,0,0,1,.444-.442l.274-.06a.724.724,0,0,1,.113-.016h.036" transform="translate(133.43 98.895)" fill="#2d2d2d"/>
    <path id="Trazado_2151" data-name="Trazado 2151" d="M340.014,224.866a8.5,8.5,0,0,1,2.842,1.615,22.238,22.238,0,0,1,2.463,2.028,8.623,8.623,0,0,1,.68,7.772,3.994,3.994,0,0,1,1.627,2.578,6.484,6.484,0,0,1-.614,2.565,21.549,21.549,0,0,0-.773,3.388q-.186,2.257-.47,4.63c-.373,3.1-.842,6.033-1.375,8.8a27.187,27.187,0,0,1,.2,2.713c.061,2.8.1,6.5-2.129,9.451-.324.431-1.685,2.235-2.62,1.929-.9-.291-.991-2.392-1.1-4.8a33.2,33.2,0,0,1,.146-4.938,12.849,12.849,0,0,1-.494-7.091,4.977,4.977,0,0,1-1.246-1.871,5.262,5.262,0,0,1,.091-3.734,2.48,2.48,0,0,1-1.707-.943c-.622-.954-.075-2.294.389-3.346a85.7,85.7,0,0,1,4.948-9.069,46.465,46.465,0,0,0,2.308-4.617,4.941,4.941,0,0,0-2.8-1.811c-1.5-.294-2.2.5-3.874.115-.351-.08-2.124-.488-2.419-1.665-.272-1.089.892-2.164,1.253-2.5A5.288,5.288,0,0,1,340.014,224.866Z" transform="translate(174.944 84.921)" fill="#fff"/>
    <path id="Trazado_2152" data-name="Trazado 2152" d="M346.216,227.317c1.756,3.931-.046,9.2-1.6,12.949a21.774,21.774,0,0,1-3.361,5.7c-1.07,1.276-2.793,3.21-4.532,3.534-4.3.8-.973-7.174-.216-8.71,1.331-2.7,2.922-5.283,4.411-7.9,1.141-2.006,2.087-4.556,4.039-5.909.672-.466,1.306.633.64,1.094-1.684,1.168-2.606,3.731-3.586,5.454q-1.412,2.486-2.825,4.969a33.665,33.665,0,0,0-2.548,5.147,8.46,8.46,0,0,0-.755,3.366q-.4,1.386,1.369.894a8.6,8.6,0,0,0,.943-.706,19.065,19.065,0,0,0,5.665-8.466c1.144-3.127,2.686-7.59,1.262-10.775C344.791,227.218,345.883,226.573,346.216,227.317Z" transform="translate(175.246 86.144)" fill="#161616"/>
    <path id="Trazado_2153" data-name="Trazado 2153" d="M345.325,231.691c2.87.659,1.953,4.08,1.408,6.121a30.357,30.357,0,0,1-7.372,13.107c-.6.626-1.559,1.89-2.618,1.481-2.131-.826-.965-5.914-.5-7.415.242-.776,1.467-.445,1.223.337a11.038,11.038,0,0,0-.574,3.577,9.419,9.419,0,0,0,.269,2.094,3.1,3.1,0,0,0,1.3-.969,22.691,22.691,0,0,0,3.624-4.669c.8-1.286,6.268-11.668,2.9-12.443C344.192,232.729,344.529,231.507,345.325,231.691Z" transform="translate(175.787 88.9)" fill="#161616"/>
    <path id="Trazado_2154" data-name="Trazado 2154" d="M345.57,237.212c.554,6.018-.795,13.1-4.682,17.925-1.026,1.273-2.752,2.31-3.852.526-1.424-2.313-.826-6.011.1-8.35.3-.751,1.522-.423,1.223.337a11.079,11.079,0,0,0-.8,3.154c-.077.906-.233,2.784.354,3.572,1.574,2.118,3.825-3.012,4.383-4.274a25.967,25.967,0,0,0,2.013-12.89C344.228,236.4,345.5,236.405,345.57,237.212Z" transform="translate(176.177 91.73)" fill="#161616"/>
    <path id="Trazado_2155" data-name="Trazado 2155" d="M343.617,246.249a22.489,22.489,0,0,1-.452,8.2c-.472,1.9-1.242,5.025-3.023,6.154-4.647,2.946-3.514-7.793-3.556-9.508a.634.634,0,0,1,1.267,0q.073,2.87.145,5.742c.014.574-.244,3.641,1.725,2.483.642-.378,1.076-1.852,1.334-2.5a21.2,21.2,0,0,0,1.293-10.572C342.251,245.442,343.519,245.448,343.617,246.249Z" transform="translate(176.354 96.916)" fill="#161616"/>
    <path id="Trazado_2156" data-name="Trazado 2156" d="M343.674,228.857a4.944,4.944,0,0,0-4.568-3.25,4.762,4.762,0,0,0-3.185,1.2c-1.27,1.273.2,3.1,1.74,2.979,2.12-.161,4.357-.447,5.278,1.906.3.76-.928,1.091-1.223.337-.968-2.478-5.536.028-7.393-1.9-1.3-1.35-.494-3.128.7-4.214,3.342-3.036,8.3-1.325,9.873,2.614C345.2,229.279,343.973,229.608,343.674,228.857Z" transform="translate(174.728 84.703)" fill="#161616"/>
    <path id="Trazado_2157" data-name="Trazado 2157" d="M298.524,155.3a43.342,43.342,0,0,1,4.077,8.161c4.749,12.731,2.252,24.553.565,30.3Q295.6,205.3,288.019,217.105q-6.975,10.87-13.746,21.634,6.548,8.233,13.069,16.488,5.486,6.942,10.951,13.9a59.088,59.088,0,0,1,7.865-.264c8.816.3,10.4,2.346,10.786,2.924.161.241.9,1.358.505,2.112-.286.543-.984.555-2.239,1.084a10.871,10.871,0,0,0-2.03,1.127c4.232,4.217,7.656,7.527,10.606,10.142A15.578,15.578,0,0,1,327.891,292c.222.551,1.218,3.025.491,3.564-.475.352-1.438-.308-4.543-2.2-1.646-1-2.98-1.8-3.8-2.283a20.648,20.648,0,0,1,3.432,5.674c.48,1.2,1.948,4.87.7,5.926-.511.433-1.087.1-2.666.6a8.5,8.5,0,0,0-2.014.944c-1.572-1.742-2.77-3.207-3.556-4.2-1.654-2.088-2.214-3-3.522-3.948a10.289,10.289,0,0,0-3.991-1.717c.911,2.357,1.6,4.354,2.09,5.841,1.075,3.261,1.32,4.474.675,5.179a2.207,2.207,0,0,1-2.085.483c-1.742-.437-2.3-2.782-3.279-4.99-1.2-2.713-2.64-4.335-5.173-7.192-4.551-5.132-7.594-4.529-11.365-9.335a21.093,21.093,0,0,1-3.152-5.656c-2.074-1.593-5.179-4.01-8.894-7.033-8.705-7.081-6.367-5.778-17.2-15.119-4.812-4.15-7.815-6.6-9.76-11.336a22.068,22.068,0,0,1-1.49-5.805c1.128-3.152,2.65-7.25,4.567-12,1.209-3,4.055-9.925,8.288-18.813.965-2.025,1.457-3.01,8.441-16.613,0,0,3.67-7.144,11.206-20.74,3.091-5.577,5.405-9.639,10.281-12.816a24.751,24.751,0,0,1,6.957-3.113" transform="translate(126.042 45.09)" fill="#fff"/>
    <path id="Trazado_2158" data-name="Trazado 2158" d="M298.727,156.164c-6.063.318-9.668,6.271-12.652,10.822q-5.309,8.1-10.17,16.481a355.619,355.619,0,0,0-17.727,34.853Q253.6,228.7,249.7,239.358c-.279.76-1.5.431-1.223-.337a356.789,356.789,0,0,1,37.358-73.969c3.064-4.628,6.852-9.84,12.894-10.158.815-.043.814,1.226,0,1.268" transform="translate(125.84 44.858)" fill="#161616"/>
    <path id="Trazado_2159" data-name="Trazado 2159" d="M294.515,180.631q-14.727,21.985-28.75,44.431c-.431.691-1.528.054-1.094-.64q14.021-22.441,28.749-44.431C293.872,179.315,294.97,179.949,294.515,180.631Z" transform="translate(135.097 59.089)" fill="#161616"/>
    <path id="Trazado_2160" data-name="Trazado 2160" d="M261.7,207.339c2.743-.76,4.933,1.015,6.677,2.952,2.663,2.957,5.113,6.137,7.656,9.2l15.79,19c.518.622-.375,1.523-.9.9L277.277,222.96l-6.691-8.051c-1.943-2.34-4.935-7.349-8.55-6.348A.635.635,0,0,1,261.7,207.339Z" transform="translate(133.193 74.839)" fill="#161616"/>
    <path id="Trazado_2161" data-name="Trazado 2161" d="M249.651,208.959c.181,4.551,2.787,8.288,5.791,11.519s6.3,6.183,9.552,9.14q10.45,9.506,21.688,18.087c.639.489.008,1.591-.64,1.1q-11.977-9.161-23.109-19.351c-5.922-5.44-14.2-11.717-14.55-20.49-.031-.815,1.235-.814,1.268,0" transform="translate(125.81 75.521)" fill="#161616"/>
    <path id="Trazado_2162" data-name="Trazado 2162" d="M280.306,227.389c5.722-.785,12.211-.533,17.593,1.8,1.441.625,3.048,1.973,2.343,3.753-.74,1.863-3.22,1.264-4.433,2.491-.574.582-1.471-.315-.9-.9.842-.853,1.742-.79,2.757-1.259q1.73-.241.2-2.727a15.241,15.241,0,0,0-1.652-.617c-.85-.283-1.715-.516-2.584-.724a35.094,35.094,0,0,0-12.987-.6C279.845,228.721,279.5,227.5,280.306,227.389Z" transform="translate(143.86 86.213)" fill="#161616"/>
    <path id="Trazado_2163" data-name="Trazado 2163" d="M289.136,231.216c5.663,4.829,12.767,9.558,16.4,16.251.674,1.237,2.7,5.146-.1,5.413-1.426.137-2.891-1.347-3.962-2.1-1.618-1.133-3.2-2.315-4.757-3.525-.645-.5.258-1.391.9-.9q2.061,1.6,4.186,3.108.786.552,1.578,1.094.477.326.955.644.564-.427,1.127-.858c.189-.87-1.534-3.168-2.038-3.914a26.128,26.128,0,0,0-2.6-3.2c-3.813-4.068-8.35-7.513-12.583-11.122C287.618,231.581,288.518,230.688,289.136,231.216Z" transform="translate(148.554 88.546)" fill="#161616"/>
    <path id="Trazado_2164" data-name="Trazado 2164" d="M273.6,233.659c1.361,7.818,9.841,10.529,14.77,15.675,2.42,2.527,3.882,5.7,5.708,8.639.31.5,1.419,2.645,1.94,2.746,1.816.354.91-2.628.793-3.228a22.3,22.3,0,0,0-2.286-6.255c-.386-.719.71-1.36,1.1-.64a23.552,23.552,0,0,1,2.548,7.308c.2,1.243.574,3.2-.574,4.165-2.515,2.1-5.761-5.432-6.567-6.823a24.44,24.44,0,0,0-4.787-6.2c-2.025-1.8-4.331-3.251-6.494-4.875-3.442-2.579-6.6-5.782-7.368-10.172-.138-.8,1.083-1.139,1.223-.337" transform="translate(139.57 89.777)" fill="#161616"/>
    <path id="Trazado_2165" data-name="Trazado 2165" d="M292.095,238.892c1.525-2.354,5.226,3.449,5.966,4.467a35.836,35.836,0,0,1,3.641,6.262c.67,1.476,1.418,3.251.8,4.869a2.45,2.45,0,0,1-2.554,1.729c-1.435-.244-1.947-1.877-2.5-3a33.944,33.944,0,0,0-8.878-11.163c-.629-.521.272-1.413.9-.9a36.931,36.931,0,0,1,9.511,12.334c.36.722,1.07,2.6,2.4.4.351-.579-.124-1.988-.327-2.565a25.979,25.979,0,0,0-2.112-4.293,35.275,35.275,0,0,0-2.37-3.552c-.25-.332-3.431-3.885-3.386-3.953C292.748,240.214,291.649,239.58,292.095,238.892Z" transform="translate(148.744 92.722)" fill="#161616"/>
    <path id="Trazado_2166" data-name="Trazado 2166" d="M300.055,251.221c1.947,2.189-1.205,4.085-3.228,2.653-1.4-.99-2.189-2.98-3.209-4.313-1.506-1.97-3.97-5.27-6.716-5.026-.814.072-.809-1.2,0-1.268,2.382-.211,4.121,1.5,5.659,3.109a29.7,29.7,0,0,1,2.315,2.751c.411.551.8,1.116,1.172,1.695q.257.4.5.8.692,1.754,2.608.493C298.618,251.509,299.512,250.609,300.055,251.221Z" transform="translate(147.558 95.541)" fill="#161616"/>
    <path id="Trazado_2167" data-name="Trazado 2167" d="M281.369,155.055a50.906,50.906,0,0,1,4.2,39.825c-.241.776-1.465.445-1.223-.337a49.618,49.618,0,0,0-4.068-38.85.634.634,0,0,1,1.094-.639" transform="translate(144.056 44.772)" fill="#161616"/>
    <path id="Trazado_2168" data-name="Trazado 2168" d="M254.088,218.544c1.887,1.786,3.83,3.457,5.571,5.056l.055.049-.107.2a69.915,69.915,0,0,1-5.519-5.306" transform="translate(129.084 81.37)" fill="#efefef"/>
    <path id="Trazado_2169" data-name="Trazado 2169" d="M257.7,221.788q2.346,2.155,4.735,4.263c-1.857-1.5-3.456-2.847-4.842-4.062l.107-.2" transform="translate(131.095 83.231)" fill="#df6660"/>
    <path id="Trazado_2170" data-name="Trazado 2170" d="M298.365,155.7q.446.819.859,1.654c-1.506,2.469-5.973,6.691-9.971,11.154a130.2,130.2,0,0,0-20.454,33.13c-4.445,10.683-7.686,18.473-6.915,29.1,1.057,14.616,8.937,25.189,12.676,29.962,7.075,9.03,13.02,11.047,21.32,21.032a80.3,80.3,0,0,1,13.469,23.457l-.028,0-.028-.008a31.97,31.97,0,0,0-7.237-10.963c-.124-.14-.252-.277-.382-.414-4.929-5.146-13.409-7.857-14.77-15.675a.512.512,0,0,0-.527-.458.736.736,0,0,0-.354.094q-11.113-8.514-21.486-17.935c-3.25-2.957-6.557-5.918-9.552-9.14s-5.61-6.968-5.791-11.519a.664.664,0,0,0-.011-.1.683.683,0,0,0,.087-.165q3.914-10.648,8.48-21.039a355.6,355.6,0,0,1,17.727-34.853q4.86-8.377,10.17-16.481c2.984-4.551,6.589-10.5,12.652-10.822.024,0,.046,0,.068-.006" transform="translate(126.269 45.319)" fill="#efefef"/>
    <path id="Trazado_2171" data-name="Trazado 2171" d="M298.215,155.348c.1.183.2.365.3.549-.022,0-.044,0-.068.006-6.063.318-9.668,6.271-12.652,10.822q-5.309,8.1-10.17,16.481A355.608,355.608,0,0,0,257.9,218.059q-4.579,10.381-8.48,21.039a.682.682,0,0,1-.087.165.6.6,0,0,0-.417-.477c1.094-3.031,2.551-6.93,4.361-11.423a338.667,338.667,0,0,1,36.234-66.925,11.028,11.028,0,0,1,3.921-3.555,13.974,13.974,0,0,1,4.782-1.534" transform="translate(126.117 45.119)" fill="#242424"/>
    <path id="Trazado_2172" data-name="Trazado 2172" d="M248.991,208.371a.6.6,0,0,1,.417.477.66.66,0,0,1,.011.1c.181,4.551,2.787,8.288,5.791,11.519s6.3,6.183,9.552,9.14q10.358,9.421,21.486,17.935a.714.714,0,0,0-.217.184c-1.835-1.314-4.494-3.237-7.657-5.59-4.384-3.259-7.953-6.018-10.883-8.386q-2.389-2.108-4.735-4.263l-.055-.049c-1.74-1.6-3.684-3.27-5.571-5.056a30.108,30.108,0,0,1-3.907-5.221,44.4,44.4,0,0,1-4.438-10.213c.068-.187.135-.379.206-.574" transform="translate(126.042 75.534)" fill="#242424"/>
    <path id="Trazado_2173" data-name="Trazado 2173" d="M295.942,260.711c.151.357.3.721.45,1.094-.124-.349-.255-.711-.393-1.081l-.028,0-.028-.008M273.025,233.2a.737.737,0,0,0-.354.094.714.714,0,0,0-.217.184l.488.348a19.1,19.1,0,0,0,2.763,5.824c2.98,4.206,6.789,5.769,9.291,7.27a21.41,21.41,0,0,1,3.709,2.826c-.124-.14-.252-.277-.382-.414-4.929-5.146-13.409-7.857-14.77-15.675a.512.512,0,0,0-.527-.458" transform="translate(139.619 89.777)" fill="#242424"/>
    <path id="Trazado_2174" data-name="Trazado 2174" d="M280.612,155.339a1.43,1.43,0,0,1,1.194.4c.269.378.094,1-.4,1.816q-.413-.836-.859-1.654c-.1-.184-.2-.367-.3-.549q.191-.014.368-.014" transform="translate(144.088 45.113)" fill="#242424"/>
    <path id="Trazado_2175" data-name="Trazado 2175" d="M360.244,127.141a19.681,19.681,0,0,1,4.143,21.184c-1.566,7.909-3.238,14.731-4.738,20.273-1.545,5.714-3.106,10.816-7.083,15.867-2.828,3.593-5.006,4.779-6.779,5.341-3.308,1.05-6.309.272-8.841-.382a24.6,24.6,0,0,1-8.254-3.911,19.479,19.479,0,0,1-7.113,8.644,18.263,18.263,0,0,1-3.791,1.884,24.075,24.075,0,0,1-3.92-2.836,16.453,16.453,0,0,1-5.4-7.44,13.349,13.349,0,0,1-.574-4.652,32.5,32.5,0,0,0,3.026-3.873,34.017,34.017,0,0,0,5.355-14.866,21.869,21.869,0,0,1-6.721-8.528c-.689-1.57-3.108-7.309-1.169-13.645.592-1.936,1.7-4.276,7.6-10.137,6.99-6.937,10.484-10.406,13.842-11.7C340.807,114.154,353.769,120.1,360.244,127.141Z" transform="translate(159.81 23.1)" fill="#fff"/>
    <path id="Trazado_2176" data-name="Trazado 2176" d="M365.81,162.6c2-.971,6.45-3.493,7.752-8.166.513-1.838.747-4.763-3.262-12.325-5.607-10.573-10.4-13.025-15.225-22.113a52.674,52.674,0,0,1-4.351-11.056q-.635,4.983-1.268,9.969a49.682,49.682,0,0,1-17.582-23.564q-.7,4.138-1.268,8.52c-.839,6.472-1.355,12.65-1.632,18.487a21.4,21.4,0,0,1-11.237-15.044q.725,9.425,1.451,18.851a21.141,21.141,0,0,1-4.17-4.713,21.467,21.467,0,0,1-3.262-9.063,122.955,122.955,0,0,0-1.813,12.869c-.436,5.017-.474,9.1-.543,16.314-.036,3.69-.02,6.752,0,8.882-2.181-6.214-3.242-7.355-3.807-7.251-1.333.245-1.153,7.643-.544,12.688.6,4.965,1.278,10.1,4.713,15.588a30.06,30.06,0,0,0,7.454,8.074,17.939,17.939,0,0,0,1.246-9.525,16.59,16.59,0,0,0-.544-2.356,7.625,7.625,0,0,1-2.719-.906,8.642,8.642,0,0,1-3.443-3.988c-.881-1.755-2.434-4.84-1.087-7.975a6.427,6.427,0,0,1,3.895-3.7,6.582,6.582,0,0,1,6.729,2.31A25.824,25.824,0,0,1,332.146,138.7a22.008,22.008,0,0,1,26.191,4.861,16.459,16.459,0,0,1,5.075,4.711C367.592,154.3,366.142,161.176,365.81,162.6Z" transform="translate(158.05 10.698)" fill="#4a3288"/>
    <path id="Trazado_2177" data-name="Trazado 2177" d="M362.516,135.618a172.957,172.957,0,0,1-4.925,22.047c-1.939,6.26-4.37,13.36-8.608,18.474-9.188,11.088-24.766.011-30.827-8.83a30.409,30.409,0,0,1-5-22.009c.129-.8,1.35-.461,1.221.338-2.065,12.861,5.291,25.538,16.608,31.536,6.493,3.442,13.93,3.039,18.215-3.464,3.467-5.259,5.706-11.459,7.494-17.461a179.243,179.243,0,0,0,4.6-20.969C361.43,134.479,362.653,134.818,362.516,135.618Z" transform="translate(162.75 33.345)" fill="#161616"/>
    <path id="Trazado_2178" data-name="Trazado 2178" d="M316.825,146.041a34.716,34.716,0,0,1-7.963,18.739c-.526.626-1.418-.275-.9-.9a33.217,33.217,0,0,0,7.591-17.842C315.643,145.239,316.912,145.231,316.825,146.041Z" transform="translate(159.899 39.433)" fill="#161616"/>
    <path id="Trazado_2179" data-name="Trazado 2179" d="M325.491,160.749c-2.757,4.135-5.708,8.114-9.8,11.03-.666.475-1.3-.625-.64-1.1,3.9-2.781,6.711-6.631,9.341-10.575C324.845,159.433,325.944,160.067,325.491,160.749Z" transform="translate(163.897 47.684)" fill="#161616"/>
    <path id="Trazado_2180" data-name="Trazado 2180" d="M319.852,173.326c-3.084,1.363-6.775-3.253-8.4-5.339-2.077-2.672-5.217-6.616-3.922-10.207.274-.762,1.5-.434,1.221.337-1.028,2.853,1.484,6.06,3.089,8.282a24.234,24.234,0,0,0,2.743,3.221c.832.81,3.223,3.232,4.626,2.611C319.951,171.9,320.6,173,319.852,173.326Z" transform="translate(159.567 46.265)" fill="#161616"/>
    <path id="Trazado_2181" data-name="Trazado 2181" d="M315.963,148.4c-5.931-.884-8.46-7.418-7.712-12.866a6.2,6.2,0,0,1,10.707-3.309c.568.585-.327,1.482-.9.9a4.962,4.962,0,0,0-6.337-.949c-2.025,1.319-2.4,3.542-2.2,5.8.384,4.332,1.964,8.487,6.771,9.2C317.1,147.3,316.762,148.52,315.963,148.4Z" transform="translate(160.08 30.72)" fill="#161616"/>
    <path id="Trazado_2182" data-name="Trazado 2182" d="M339.656,134.67a190.121,190.121,0,0,1-3.352,22.879.639.639,0,0,1-1.223,0l-2-9.262c-.172-.795,1.05-1.135,1.223-.337q1,4.631,2,9.262h-1.223a187.1,187.1,0,0,0,3.306-22.542C338.457,133.862,339.725,133.856,339.656,134.67Z" transform="translate(174.388 32.908)" fill="#161616"/>
    <path id="Trazado_2183" data-name="Trazado 2183" d="M335.834,154.668c-4.96-.825-8.8-6.447-9.709-11.066-.157-.8,1.064-1.138,1.223-.337.826,4.191,4.293,9.428,8.823,10.18C336.975,153.579,336.634,154.8,335.834,154.668Z" transform="translate(170.398 37.926)" fill="#161616"/>
    <path id="Trazado_2184" data-name="Trazado 2184" d="M338.958,141.517c-.543,2.173-.384,4.084.356,4.268s1.778-1.427,2.32-3.6.384-4.084-.354-4.268S339.5,139.344,338.958,141.517Z" transform="translate(177.583 35.111)" fill="#161616"/>
    <path id="Trazado_2185" data-name="Trazado 2185" d="M328.721,137.093c-.543,2.173-.384,4.084.356,4.269s1.777-1.427,2.319-3.6.384-4.085-.356-4.269S329.263,134.919,328.721,137.093Z" transform="translate(171.71 32.573)" fill="#161616"/>
    <path id="Trazado_2186" data-name="Trazado 2186" d="M344.413,136.2c.1-.949-.025-2.42-.9-3.009a2.755,2.755,0,0,0-2.782.4c-.6.552-1.5-.341-.9-.9a4.387,4.387,0,0,1,4.117-.809c1.445.617,1.871,2.957,1.733,4.316C345.6,137,344.331,137.007,344.413,136.2Z" transform="translate(178.154 31.529)" fill="#161616"/>
    <path id="Trazado_2187" data-name="Trazado 2187" d="M336.106,129.961a3.437,3.437,0,0,0-3.9-2.349,5.015,5.015,0,0,0-3.383,2.754c-.386.719-1.481.08-1.094-.639a5.968,5.968,0,0,1,5.262-3.435,4.693,4.693,0,0,1,4.334,3.333C337.571,130.406,336.347,130.74,336.106,129.961Z" transform="translate(171.282 28.449)" fill="#161616"/>
  </g>
</svg>
